<svg xmlns="http://www.w3.org/2000/svg" width="424.725" height="362.6596" viewBox="0 0 424.725 362.6596">
  <title>opensource</title>
  <g id="Shadows">
    <g id="Shadow--inject-214">
      <ellipse id="path--inject-214" cx="210.395" cy="351.3396" rx="193.89" ry="11.32" style="fill: #f5f5f5"/>
    </g>
  </g>
  <g id="Background_Complete" data-name="Background Complete">
    <g>
      <path d="M238.395,341.5304H45.305a5.71,5.71,0,0,1-5.7-5.71V64.3904a5.71,5.71,0,0,1,5.7-5.66h193.09a5.71,5.71,0,0,1,5.71,5.71h0v271.38A5.71007,5.71007,0,0,1,238.395,341.5304Zm-193.09-282.6a5.45994,5.45994,0,0,0-5.45,5.46v271.43a5.45994,5.45994,0,0,0,5.45,5.46h193.09a5.47,5.47,0,0,0,5.46-5.46V64.3904a5.47,5.47,0,0,0-5.46-5.46Z" transform="translate(-39.605 -58.7304)" style="fill: #e6e6e6"/>
      <path d="M454.705,341.5304h-193.1a5.71992,5.71992,0,0,1-5.71-5.71V64.3904a5.72,5.72,0,0,1,5.71-5.66h193.1a5.71,5.71,0,0,1,5.69,5.66v271.43A5.71,5.71,0,0,1,454.705,341.5304Zm-193.1-282.6a5.47,5.47,0,0,0-5.46,5.46v271.43a5.47,5.47,0,0,0,5.46,5.46h193.1a5.47,5.47,0,0,0,5.46-5.46V64.3904a5.47,5.47,0,0,0-5.46-5.46Z" transform="translate(-39.605 -58.7304)" style="fill: #e6e6e6"/>
    </g>
    <g>
      <rect x="14.185" y="333.4796" width="41.21" height="0.25" style="fill: #e0e0e0"/>
      <rect x="98.065" y="331.4796" width="41.33" height="0.25" style="fill: #e0e0e0"/>
      <rect x="183.175" y="331.4796" width="10" height="0.25" style="fill: #e0e0e0"/>
      <rect x="46.975" y="340.0196" width="46.25" height="0.25" style="fill: #e0e0e0"/>
      <rect x="231.595" y="333.3496" width="21.6" height="0.25" style="fill: #e0e0e0"/>
      <rect x="262.095" y="333.3496" width="27.93" height="0.25" style="fill: #e0e0e0"/>
      <rect x="362.285" y="337.5796" width="62.44" height="0.25" style="fill: #e0e0e0"/>
    </g>
    <g>
      <rect x="325.2252" y="55.495" width="47.61" height="33.27" style="fill: #e6e6e6"/>
      <g>
        <rect x="325.2252" y="55.495" width="21.47" height="33.27" style="fill: #f0f0f0"/>
        <path d="M375.548,118.7354a7.09,7.09,0,1,1-7.0901,7.09A7.09,7.09,0,0,1,375.548,118.7354Z" transform="translate(-39.605 -58.7304)" style="fill: #e0e0e0;opacity: 0.4;isolation: isolate"/>
        <path d="M379.008,139.6554a3.46,3.46,0,1,1-3.4601-3.46h.0001A3.46007,3.46007,0,0,1,379.008,139.6554Z" transform="translate(-39.605 -58.7304)" style="fill: #e0e0e0"/>
      </g>
      <circle cx="335.8918" cy="67.5762" r="2.0175" style="fill: #fafafa"/>
    </g>
    <g>
      <g>
        <rect x="250.60348" y="43.5816" width="20.5876" height="45.1961" style="fill: #f0f0f0"/>
        <rect x="270.62958" y="43.5816" width="27.31742" height="45.1961" style="fill: #e6e6e6"/>
        <g>
          <path d="M300.42748,116.663a2.8515,2.8515,0,1,1-2.85148,2.8515A2.85144,2.85144,0,0,1,300.42748,116.663Z" transform="translate(-39.605 -58.7304)" style="fill: #fff"/>
          <path d="M300.42748,112.2119a1.42575,1.42575,0,1,1-1.4257,1.4258A1.42586,1.42586,0,0,1,300.42748,112.2119Z" transform="translate(-39.605 -58.7304)" style="fill: #fff"/>
          <path d="M300.42748,107.8895a1.42575,1.42575,0,1,1-1.4257,1.4258A1.42586,1.42586,0,0,1,300.42748,107.8895Z" transform="translate(-39.605 -58.7304)" style="fill: #fff"/>
        </g>
        <g>
          <rect x="251.06428" y="68.932" width="46.40372" height="0.7129" style="fill: #e0e0e0"/>
          <rect x="251.06428" y="72.9419" width="46.40372" height="0.7129" style="fill: #e0e0e0"/>
          <rect x="251.06428" y="76.9518" width="46.40372" height="0.7129" style="fill: #e0e0e0"/>
          <rect x="251.06428" y="80.9617" width="46.40372" height="0.7129" style="fill: #e0e0e0"/>
          <rect x="251.06428" y="84.9716" width="46.40372" height="0.7129" style="fill: #e0e0e0"/>
        </g>
        <rect x="259.35218" y="70.1498" width="1.9604" height="1.9604" style="fill: #e0e0e0"/>
        <rect x="259.35218" y="74.3676" width="1.9604" height="1.9604" style="fill: #e0e0e0"/>
        <rect x="259.35218" y="78.1696" width="1.9604" height="1.9604" style="fill: #e0e0e0"/>
        <rect x="259.35218" y="82.2686" width="1.9604" height="1.9604" style="fill: #e0e0e0"/>
        <rect x="259.35218" y="86.2509" width="1.9604" height="1.9604" style="fill: #e0e0e0"/>
      </g>
      <path d="M250.86908,192.0156h-1V153.7114a7.805,7.805,0,0,1,7.79592-7.7964h33.00388v1H257.665a6.80407,6.80407,0,0,0-6.79592,6.7964Z" transform="translate(-39.605 -58.7304)" style="fill: #e0e0e0"/>
      <path d="M248.86908,192.0728h-1V153.4312a9.47,9.47,0,0,1,9.459-9.4595h33.3408v1h-33.3408a8.469,8.469,0,0,0-8.459,8.4595Z" transform="translate(-39.605 -58.7304)" style="fill: #e0e0e0"/>
    </g>
    <g>
      <rect x="68.45558" y="37.2713" width="31.31" height="33.33" style="fill: #e6e6e6"/>
      <rect x="99.76558" y="37.2713" width="8.02" height="33.33" style="fill: #f5f5f5"/>
      <rect x="60.24558" y="32.1313" width="23.52" height="38.47" style="fill: #e6e6e6"/>
      <rect x="83.75558" y="32.1313" width="6.8" height="38.47" style="fill: #f5f5f5"/>
      <rect x="57.00558" y="37.2713" width="19.83" height="33.33" style="fill: #ebebeb"/>
      <rect x="76.83558" y="37.2713" width="4.53" height="33.33" style="fill: #f5f5f5"/>
      <rect x="34.59558" y="42.9113" width="26.01" height="27.69" style="fill: #e6e6e6"/>
      <rect x="60.60558" y="42.9113" width="6.66" height="27.69" style="fill: #f5f5f5"/>
      <rect x="27.77558" y="38.6413" width="19.54" height="31.96" style="fill: #e6e6e6"/>
      <rect x="47.30558" y="38.6413" width="5.65" height="31.96" style="fill: #f5f5f5"/>
      <rect x="22.57558" y="42.9113" width="18.98" height="27.69" style="fill: #e6e6e6"/>
      <rect x="41.56558" y="42.9113" width="3.76" height="27.69" style="fill: #f0f0f0"/>
    </g>
    <g>
      <rect x="39.998" y="129.314" width="204" height="9.6465" transform="translate(244.391 209.5441) rotate(180)" style="fill: #e6e6e6"/>
      <g>
        <polygon points="37.001 80.457 48.286 80.457 40.066 92.869 37.001 92.869 37.001 80.457" style="fill: #e0e0e0"/>
        <rect x="35.37518" y="80.4575" width="1.6255" height="12.4119" style="fill: #e0e0e0"/>
      </g>
      <g>
        <polygon points="163.709 80.457 174.995 80.457 166.774 92.869 163.709 92.869 163.709 80.457" style="fill: #e0e0e0"/>
        <rect x="162.08348" y="80.4575" width="1.62552" height="12.4119" style="fill: #e0e0e0"/>
      </g>
    </g>
    <g>
      <rect x="216.62948" y="88.7777" width="204.00002" height="9.6465" style="fill: #e6e6e6"/>
      <g>
        <polygon points="384.022 111.063 380.957 111.063 372.736 98.652 384.022 98.652 384.022 111.063" style="fill: #e0e0e0"/>
        <rect x="384.0219" y="98.6516" width="1.6255" height="12.4119" style="fill: #e0e0e0"/>
      </g>
      <g>
        <polygon points="257.313 111.063 254.248 111.063 246.028 98.652 257.313 98.652 257.313 111.063" style="fill: #e0e0e0"/>
        <rect x="257.31348" y="98.6516" width="1.62552" height="12.4119" style="fill: #e0e0e0"/>
      </g>
    </g>
    <g>
      <path d="M197.45,109.8901a14.44225,14.44225,0,0,0-.62512-4.2281l3.7095-3.263-2.3356-4.0461-4.6816,1.5834a14.5461,14.5461,0,0,0-7.3228-4.2316l-.9721-4.843h-4.6712l-.9686,4.843a14.55612,14.55612,0,0,0-7.3263,4.2316l-4.6816-1.5834L165.239,102.399l3.70948,3.263a14.62356,14.62356,0,0,0,0,8.4597l-3.70948,3.2596,2.33558,4.0461,4.6816-1.5834a14.58681,14.58681,0,0,0,7.3263,4.235l.9686,4.843h4.6712l.9721-4.843a14.57677,14.57677,0,0,0,7.3228-4.235l4.6816,1.5834,2.3356-4.0461-3.7095-3.2596A14.46533,14.46533,0,0,0,197.45,109.8901Zm-14.56332,7.8622a7.5702,7.5702,0,1,1,7.5702-7.5702A7.56823,7.56823,0,0,1,182.88668,117.7523Z" transform="translate(-39.605 -58.7304)" style="fill: #f0f0f0"/>
      <path d="M222.71318,112.3365a9.5058,9.5058,0,0,0-1.8046-2.1593l.9613-3.1076-2.7025-1.469-2.0845,2.4985a9.578,9.578,0,0,0-5.5668.1413l-2.2107-2.3853-2.6231,1.6059,1.1211,3.0524a9.584,9.584,0,0,0-2.6592,4.8948l-3.17318.7203.07938,3.075,3.2048.557a9.62786,9.62786,0,0,0,2.9083,4.7504l-.9624,3.1056,2.7025,1.4691,2.0845-2.4986a9.60314,9.60314,0,0,0,5.5698-.1405l2.2088,2.3865,2.6231-1.6059-1.1191-3.0536a9.59773,9.59773,0,0,0,2.6561-4.8956l3.17322-.7203-.07952-3.0749-3.2036-.5551A9.52251,9.52251,0,0,0,222.71318,112.3365Zm-5.4749,9.4214a4.98426,4.98426,0,1,1,1.6484-6.8534A4.983,4.983,0,0,1,217.23828,121.7579Z" transform="translate(-39.605 -58.7304)" style="fill: #f0f0f0"/>
    </g>
  </g>
  <g id="Desk">
    <g id="Group">
      <rect x="6.95418" y="214.39" width="407.61902" height="5.1293" style="fill: #407bff"/>
      <polygon points="31.234 218.07 31.234 340.41 34.414 340.41 38.414 218.07 31.234 218.07" style="fill: #407bff"/>
      <g>
        <polygon points="68.774 222.07 68.774 335.41 71.954 335.41 75.954 222.07 68.774 222.07" style="fill: #407bff"/>
        <polygon points="68.774 222.07 68.774 335.41 71.954 335.41 75.954 222.07 68.774 222.07" style="opacity: 0.5"/>
      </g>
      <polygon points="391.74 218.07 391.74 340.41 388.57 340.41 384.56 218.07 391.74 218.07" style="fill: #407bff"/>
      <g>
        <polygon points="354.21 222.07 354.21 335.41 351.03 335.41 347.03 222.07 354.21 222.07" style="fill: #407bff"/>
        <polygon points="354.21 222.07 354.21 335.41 351.03 335.41 347.03 222.07 354.21 222.07" style="opacity: 0.5"/>
      </g>
      <g>
        <polygon points="398.991 225.008 23.734 225.008 15.434 219.519 407.291 219.519 398.991 225.008" style="fill: #407bff"/>
        <polygon points="398.991 225.008 23.734 225.008 15.434 219.519 407.291 219.519 398.991 225.008" style="opacity: 0.5"/>
      </g>
    </g>
  </g>
  <g id="Beverages">
    <g>
      <path d="M73.35,257.3939v3.9565a2.48548,2.48548,0,0,0,.73038,1.7657l3.1739,3.1728a2.46651,2.46651,0,0,0,1.0265.6085,8.13742,8.13742,0,0,0,7.38,4.7171H86.849a8.14358,8.14358,0,0,0,8.14368-8.1435v-9.3317H77.51728v.757H75.847A2.5002,2.5002,0,0,0,73.35,257.3939Zm2,0a.49767.49767,0,0,1,.497-.4976h1.67028v6.5747c0,.0898.0105.177.0134.2661l-2.0352-2.0346a.50539.50539,0,0,1-.14548-.3521Z" transform="translate(-39.605 -58.7304)" style="fill: #407bff"/>
      <path d="M73.35,257.3939v3.9565a2.48548,2.48548,0,0,0,.73038,1.7657l3.1739,3.1728a2.46651,2.46651,0,0,0,1.0265.6085,8.13742,8.13742,0,0,0,7.38,4.7171H86.849a8.14358,8.14358,0,0,0,8.14368-8.1435v-9.3317H77.51728v.757H75.847A2.5002,2.5002,0,0,0,73.35,257.3939Zm2,0a.49767.49767,0,0,1,.497-.4976h1.67028v6.5747c0,.0898.0105.177.0134.2661l-2.0352-2.0346a.50539.50539,0,0,1-.14548-.3521Z" transform="translate(-39.605 -58.7304)" style="fill: #fff;opacity: 0.5"/>
      <g>
        <path d="M99.14108,272.9512H74.00238a4.61544,4.61544,0,0,1-2.9603-1.4802h31.0594A4.61549,4.61549,0,0,1,99.14108,272.9512Z" transform="translate(-39.605 -58.7304)" style="fill: #407bff"/>
        <path d="M99.14108,272.9512H74.00238a4.61544,4.61544,0,0,1-2.9603-1.4802h31.0594A4.61549,4.61549,0,0,1,99.14108,272.9512Z" transform="translate(-39.605 -58.7304)" style="fill: #fff;opacity: 0.5"/>
      </g>
    </g>
    <g>
      <path d="M437.3638,260.7602c-.131-3.9692-3.1519-4.9418-7.0978-5.3899v-1.4498a.63042.63042,0,0,0-.6424-.6182l-.0132.0004H415.9947a.64294.64294,0,0,0-.6682.6168v18.9117H430.266v-2.0676C434.2191,270.3199,437.2443,264.7363,437.3638,260.7602Zm-7.0978,7.5577V257.8161c2.9.4275,4.9043.8244,4.4768,3.7244C434.4014,263.8569,432.5824,267.9764,430.266,268.3179Z" transform="translate(-39.605 -58.7304)" style="fill: #407bff"/>
      <g style="opacity: 0.5">
        <path d="M437.3638,260.7602c-.131-3.9692-3.1519-4.9418-7.0978-5.3899v-1.4498a.63042.63042,0,0,0-.6424-.6182l-.0132.0004H415.9947a.64294.64294,0,0,0-.6682.6168v18.9117H430.266v-2.0676C434.2191,270.3199,437.2443,264.7363,437.3638,260.7602Zm-7.0978,7.5577V257.8161c2.9.4275,4.9043.8244,4.4768,3.7244C434.4014,263.8569,432.5824,267.9764,430.266,268.3179Z" transform="translate(-39.605 -58.7304)" style="fill: #fff"/>
      </g>
    </g>
  </g>
  <g id="PC">
    <g>
      <g>
        <g>
          <rect x="204.5" y="190.001" width="11.79" height="23.9517" style="fill: #407bff"/>
          <rect x="204.5" y="190.001" width="11.79" height="23.9517" style="fill: #fff;opacity: 0.5"/>
        </g>
        <g>
          <polygon points="221.613 214.382 199.276 214.382 204.724 209.586 216.165 209.586 221.613 214.382" style="fill: #407bff"/>
          <polygon points="221.613 214.382 199.276 214.382 204.724 209.586 216.165 209.586 221.613 214.382" style="fill: #fff;opacity: 0.5"/>
        </g>
      </g>
      <g>
        <g>
          <polygon points="270.724 206.627 214.884 206.627 224.974 214.411 280.804 214.411 270.724 206.627" style="fill: #407bff"/>
          <polygon points="270.724 206.627 214.884 206.627 224.974 214.411 280.804 214.411 270.724 206.627" style="fill: #fff;opacity: 0.4"/>
        </g>
        <g>
          <polygon points="216.174 214.411 214.884 206.627 224.974 214.411 216.174 214.411" style="fill: #407bff"/>
          <polygon points="216.174 214.411 214.884 206.627 224.974 214.411 216.174 214.411" style="opacity: 0.5"/>
        </g>
      </g>
      <g>
        <rect x="157.36278" y="133.3138" width="105.4915" height="66.1809" rx="1.9281" ry="1.9281" style="fill: #407bff"/>
        <rect x="161.19468" y="137.4482" width="97.7207" height="57.6745" style="opacity: 0.5"/>
      </g>
      <g>
        <g>
          <rect x="206.5" y="149.3116" width="49.31078" height="33.9477" style="opacity: 0.4"/>
          <rect x="206.5" y="149.3116" width="49.31078" height="3.1098" style="fill: #407bff"/>
        </g>
        <g>
          <path d="M255.14008,226.8173l8.06192,4.4676a2.68522,2.68522,0,0,1,.80718.6074,1.10193,1.10193,0,0,1,.2002.6797,1.24725,1.24725,0,0,1-.3762.9048,1.19146,1.19146,0,0,1-.8744.3823,2.34276,2.34276,0,0,1-.9832-.3641l-10.4004-5.7839a1.0227,1.0227,0,0,1,0-1.7876l10.4004-5.7839a2.39461,2.39461,0,0,1,.971-.3523,1.21313,1.21313,0,0,1,.8866.3765,1.22736,1.22736,0,0,1,.3762.8985,1.10194,1.10194,0,0,1-.2002.6799,2.67734,2.67734,0,0,1-.80718.6069Z" transform="translate(-39.605 -58.7304)" style="fill: #fff"/>
          <path d="M275.88328,218.4884l-7.9765,17.1918a2.49489,2.49489,0,0,1-.5467.838,1.17887,1.17887,0,0,1-.7646.2549,1.212,1.212,0,0,1-.88048-.3646,1.12866,1.12866,0,0,1-.37022-.8254,2.57254,2.57254,0,0,1,.2913-.9593l8.0012-17.1795a2.6432,2.6432,0,0,1,.5341-.8378,1.25836,1.25836,0,0,1,1.639.1032,1.11763,1.11763,0,0,1,.36462.8195A2.56559,2.56559,0,0,1,275.88328,218.4884Z" transform="translate(-39.605 -58.7304)" style="fill: #fff"/>
          <path d="M285.91378,226.8173l-8.0619-4.4682a2.66984,2.66984,0,0,1-.8071-.6069,1.10134,1.10134,0,0,1-.2003-.6799,1.22553,1.22553,0,0,1,.3763-.8985,1.21207,1.21207,0,0,1,.886-.3765,2.39512,2.39512,0,0,1,.9715.3523l10.4004,5.7839a1.0227,1.0227,0,0,1,0,1.7876l-10.4004,5.7839a2.34527,2.34527,0,0,1-.9715.3641,1.21475,1.21475,0,0,1-.8951-.3855,1.27547,1.27547,0,0,1-.3672-.9024,1.10121,1.10121,0,0,1,.2003-.6789,2.67768,2.67768,0,0,1,.8071-.6074Z" transform="translate(-39.605 -58.7304)" style="fill: #fff"/>
        </g>
      </g>
      <g>
        <g>
          <rect x="165.201" y="142.773" width="3.33808" height="3.3381" style="fill: #fff"/>
          <rect x="165.201" y="151.415" width="3.33808" height="3.3381" style="fill: #fff"/>
          <rect x="165.201" y="160.057" width="3.33808" height="3.3381" style="fill: #fff"/>
          <rect x="165.201" y="168.699" width="3.33808" height="3.3381" style="fill: #fff"/>
          <rect x="165.201" y="177.341" width="3.33808" height="3.3381" style="fill: #fff"/>
          <rect x="165.201" y="185.983" width="3.33808" height="3.3381" style="fill: #fff"/>
        </g>
        <rect x="171.71138" y="143.525" width="13.30762" height="1" style="fill: #fff"/>
        <rect x="174.813" y="152.1895" width="4.74018" height="1" style="fill: #fff"/>
        <rect x="195.44378" y="161.9092" width="4.7403" height="1" style="fill: #fff"/>
        <rect x="174.813" y="169.6236" width="4.74018" height="1" style="fill: #fff"/>
        <rect x="181.64888" y="169.6236" width="4.7402" height="1" style="fill: #fff"/>
        <rect x="181.64888" y="161.9092" width="12.1123" height="1" style="fill: #fff"/>
        <rect x="188.70458" y="169.6236" width="7.9746" height="1" style="fill: #fff"/>
        <rect x="188.67718" y="188.1519" width="4.7403" height="1" style="fill: #fff"/>
        <rect x="195.51218" y="188.1519" width="4.7402" height="1" style="fill: #fff"/>
        <rect x="202.56878" y="188.1519" width="2.6485" height="1" style="fill: #fff"/>
        <rect x="181.92918" y="152.1895" width="14.75" height="1" style="fill: #fff"/>
        <rect x="181.64888" y="178.6495" width="4.7402" height="1" style="fill: #fff"/>
        <rect x="187.97308" y="178.6495" width="2.7403" height="1" style="fill: #fff"/>
        <rect x="192.80908" y="178.6495" width="7.7402" height="1" style="fill: #fff"/>
      </g>
    </g>
  </g>
  <g id="Speech_Code" data-name="Speech Code">
    <g>
      <path d="M241.436,164.503c-.24372,12.1005-12.81982,22.2443-28.08792,22.6479a32.39209,32.39209,0,0,1-13.6808-2.534c-1.5337,3.8015-4.7772,7.0607-14.0695,8.5208,9.6966-7.4889,4.3926-13.8234,2.1818-19.3981h0a17.47877,17.47877,0,0,1-1.6669-7.7786c.2444-12.1072,12.8198-22.2442,28.0879-22.6478C229.478,142.8763,241.67968,152.4026,241.436,164.503Z" transform="translate(-39.605 -58.7304)" style="fill: #407bff"/>
      <g>
        <rect x="161.18578" y="93.1036" width="13.3076" height="1" style="fill: #fff"/>
        <rect x="164.28738" y="101.7681" width="4.7402" height="1" style="fill: #fff"/>
        <rect x="184.91808" y="111.4878" width="4.7403" height="1" style="fill: #fff"/>
        <rect x="164.28738" y="119.2022" width="4.7402" height="1" style="fill: #fff"/>
        <rect x="171.12318" y="119.2022" width="4.7402" height="1" style="fill: #fff"/>
        <rect x="171.12318" y="111.4878" width="12.1123" height="1" style="fill: #fff"/>
        <rect x="178.17888" y="119.2022" width="7.9746" height="1" style="fill: #fff"/>
        <rect x="171.40348" y="101.7681" width="14.75" height="1" style="fill: #fff"/>
      </g>
    </g>
  </g>
  <g id="Character_2" data-name="Character 2">
    <g>
      <g>
        <g>
          <g>
            <g>
              <polygon points="259.562 335.018 252.272 332.838 253.972 314.968 261.262 317.148 259.562 335.018" style="fill: #7f3e3b"/>
              <polygon points="261.863 313.112 254.573 310.942 253.623 320.952 260.993 322.322 261.863 313.112" style="opacity: 0.2;isolation: isolate"/>
            </g>
            <path d="M342.317,283.3785s-50.13,4.2301-48.9,26c1.00918,17.8226,3.64978,12.9777-1.54,65.9662l12.61108.6961s12.82892-43.3422,11.0988-60.5622c14.13012,0,46.48012,1.2399,51.18-11.5101a56.66655,56.66655,0,0,0,3.35-20.2Z" transform="translate(-39.605 -58.7304)" style="fill: #407bff"/>
          </g>
          <polygon points="266.889 319.751 250.409 316.931 250.679 309.64 267.739 313.431 266.889 319.751" style="fill: #263238"/>
        </g>
        <g>
          <path d="M291.127,388.5704l8.42,1.6654a.63343.63343,0,0,1,.48.7086l-.7,7.9605a1.405,1.405,0,0,1-1.54,1.3109c-2.92-.6378-4.3-1.1102-8-1.8425-2.28-.4488-7.49-1.5471-10.66-1.9014s-2.79-4.063-1.42-4.2519c6.16-.815,9.66-1.8071,12.05-3.3543A1.87257,1.87257,0,0,1,291.127,388.5704Z" transform="translate(-39.605 -58.7304)" style="fill: #263238"/>
          <g>
            <path d="M287.34948,390.0132a9.60186,9.60186,0,0,0,2,.06.16.16,0,0,0,.1499-.11.18971.18971,0,0,0,0-.19c-.21-.21-2.1-2-3.07-1.8a.62987.62987,0,0,0-.49.42,1.00032,1.00032,0,0,0,.06,1A2.0904,2.0904,0,0,0,287.34948,390.0132Zm1.61-.27c-1.39,0-2.37-.16-2.6601-.57a.63041.63041,0,0,1,0-.6401.32047.32047,0,0,1,.23-.22C287.03948,388.2032,288.17948,389.0432,288.95948,389.7432Z" transform="translate(-39.605 -58.7304)" style="fill: #407bff"/>
            <path d="M289.35948,390.0732h.08a.20045.20045,0,0,0,.12-.1301c0-.0899.55-2.22-.09-3.07a.85018.85018,0,0,0-.7-.37.6701.6701,0,0,0-.72.4201c-.31.79.55,2.54,1.22,3.1099A.13012.13012,0,0,0,289.35948,390.0732Zm-.52-3.21a.53.53,0,0,1,.35.22,3.92065,3.92065,0,0,1,.09,2.46,3.59018,3.59018,0,0,1-.9-2.49c0-.1.11-.21.37-.2Z" transform="translate(-39.605 -58.7304)" style="fill: #407bff"/>
          </g>
        </g>
        <g>
          <g>
            <polygon points="227.062 337.798 220.122 334.678 224.922 317.558 231.862 320.678 227.062 337.798" style="fill: #7f3e3b"/>
            <polygon points="233.034 316.273 226.094 313.153 223.624 321.983 230.564 325.103 233.034 316.273" style="opacity: 0.2;isolation: isolate"/>
          </g>
          <g>
            <path d="M327.39687,283.3785c-.32987,0-56.2,5.75-56.27,24.7001-.12,31.34-9.06988,67.2661-9.06988,67.2661l11.042,5.47s19.22788-38.9461,18.93788-63.3761c15.37-4.41,55.13,3,59.83-9.74,3.8501-10.42,1.77-24.32,1.77-24.32Z" transform="translate(-39.605 -58.7304)" style="fill: #407bff"/>
            <polygon points="235.259 323.67 220.459 317.01 221.649 310.95 237.259 316.341 235.259 323.67" style="fill: #263238"/>
          </g>
        </g>
        <g>
          <path d="M260.417,387.6551l8.44,1.753a.69952.69952,0,0,1,.47.7791l-.66,8.7522c-.11282.9498-.79712,1.601-1.52852,1.4547l-.00148-.0003c-2.92-.6752-4.3-1.1946-8-1.9608-2.28-.4675-8.49-1.9738-11.62-2.7919s-2.43-4.8046-1-4.8306c6.19-.0909,10.2-1.1037,12.58-2.8308A1.69332,1.69332,0,0,1,260.417,387.6551Z" transform="translate(-39.605 -58.7304)" style="fill: #263238"/>
          <g>
            <path d="M256.95088,389.5451a9.45013,9.45013,0,0,0,1.6468-1.136.1802.1802,0,0,0,.0588-.1912.17026.17026,0,0,0-.1463-.1161c-.2934-.0462-2.8748-.3821-3.5437.3642a.66951.66951,0,0,0-.1352.63.99934.99934,0,0,0,.63672.7734A2.08892,2.08892,0,0,0,256.95088,389.5451Zm1.1292-1.1676c-1.0866.8522-1.9967,1.267-2.4746,1.12a.63928.63928,0,0,1-.3823-.5257.29973.29973,0,0,1,.0624-.3051C255.64288,388.3079,257.04348,388.2783,258.08008,388.3775Z" transform="translate(-39.605 -58.7304)" style="fill: #407bff"/>
            <path d="M258.59778,388.4092l.0727-.053a.14993.14993,0,0,0,.0184-.1617c-.05288-.0728-.8751-2.121-1.8927-2.4319a.86989.86989,0,0,0-.7778.1206.68019.68019,0,0,0-.32938.7713c.214.8212,1.94108,1.7166,2.82638,1.7775A.202.202,0,0,0,258.59778,388.4092Zm-2.3249-2.2783a.51947.51947,0,0,1,.4146-.0419,4.00032,4.00032,0,0,1,1.5419,1.9327,3.56992,3.56992,0,0,1-2.2087-1.4724c-.0588-.0809-.0346-.2346.1816-.3794Z" transform="translate(-39.605 -58.7304)" style="fill: #407bff"/>
          </g>
        </g>
        <g>
          <path d="M346.3769,222.916c1.47,3.16,2.68,6.2,3.89,9.36s2.28,6.32,3.27,9.56,1.85,6.56,2.54,10a52.17262,52.17262,0,0,1,1.12,10.87,22.36939,22.36939,0,0,1-.95,6.33,14.21021,14.21021,0,0,1-1.67,3.56,11.37092,11.37092,0,0,1-1.43,1.74l-.43.42c-.24.2-.5.42-.75.59a7.93263,7.93263,0,0,1-1.34.74,10.58428,10.58428,0,0,1-2.16.69,14.0124,14.0124,0,0,1-1.77.26,24.24926,24.24926,0,0,1-3.05,0,42.73522,42.73522,0,0,1-5.38-.6,101.91061,101.91061,0,0,1-19.41-5.56l1.45-5.51c6.35.76,12.83,1.57,18.94,1.85,1.52,0,3,.07,4.38,0a12.84393,12.84393,0,0,0,1.83-.23c.5-.09.93-.27.78-.26a1.15025,1.15025,0,0,0-.28.14,1.70025,1.70025,0,0,0-.28.21h0a1.55875,1.55875,0,0,0,.09-.17,4.66182,4.66182,0,0,0,.3-.8901,14.00157,14.00157,0,0,0,.27-3.34,44.22694,44.22694,0,0,0-1.27-8.4899c-.68-3-1.56-5.9201-2.52-8.89s-2-5.9401-3.14-8.9-2.34-5.93-3.52-8.72Z" transform="translate(-39.605 -58.7304)" style="fill: #7f3e3b"/>
          <path d="M323.06687,266.866l-6.63-3.73-3.33,7.18s7.75,3.23,9.38,1.21Z" transform="translate(-39.605 -58.7304)" style="fill: #7f3e3b"/>
          <polygon points="271.462 205.766 268.432 210.566 273.502 211.536 276.832 204.356 271.462 205.766" style="fill: #7f3e3b"/>
        </g>
        <g>
          <path d="M330.917,228.6186c-1.27,3.19-2.6,6.24-4,9.33s-2.8,6.13-4.28,9.17a176.02629,176.02629,0,0,1-10,18c-1,1.48-2,2.95-3.12,4.42-.56.74-1.18,1.47-1.84,2.22-.36.38-.65.73-1.07,1.12l-.6.58-.34.32a8.49079,8.49079,0,0,1-3.28,1.74,14.46022,14.46022,0,0,1-1.94.41,20.1545,20.1545,0,0,1-3.22.13,41.58419,41.58419,0,0,1-5.54-.55,101.66437,101.66437,0,0,1-19.82-5.62l1.46-5.52c6.47.78,13.08,1.61,19.3,1.87a42.23892,42.23892,0,0,0,4.4-.06,11.06313,11.06313,0,0,0,1.75-.28,2.29307,2.29307,0,0,0,.54-.2c.06,0,0-.0701-.27.1a1.31737,1.31737,0,0,0-.27.2s.07-.09.1-.12l.28-.31c.17988-.18.39988-.48.61-.72.41-.52.83-1.08,1.25-1.69.83-1.19,1.64-2.51,2.44-3.85,1.6-2.68,3.09-5.53,4.55-8.41s2.86-5.82,4.24-8.78c2.75-5.9,5.44-11.95,8-17.9Z" transform="translate(-39.605 -58.7304)" style="fill: #7f3e3b"/>
          <g>
            <path d="M276.167,265.8085l-6.64-3.78-3.33,7.18s7.75,3.24,9.39,1.22Z" transform="translate(-39.605 -58.7304)" style="fill: #7f3e3b"/>
            <polygon points="224.562 204.718 221.522 209.508 226.592 210.478 229.922 203.298 224.562 204.718" style="fill: #7f3e3b"/>
          </g>
        </g>
        <g>
          <path d="M348.0869,193.1386l-4.2399,4.91-6.4708,6.694c.1328.3293.3115.7581.4949,1.2123a12.03385,12.03385,0,0,1,.863,3.8725c.1409,2.6828-.1159,4.9519-4.3471,6.7712,0,0-4.44,5.8,6.12,4.19s12.15-7.09,12.15-7.09C347.977,210.3686,347.717,199.2986,348.0869,193.1386Z" transform="translate(-39.605 -58.7304)" style="fill: #7f3e3b"/>
          <g>
            <path d="M326.55687,187.5986c0,.66-.32987,1.22-.76987,1.24s-.79-.5-.8-1.16.34-1.22.77-1.2401S326.547,186.9386,326.55687,187.5986Z" transform="translate(-39.605 -58.7304)" style="fill: #263238"/>
            <path d="M328.767,185.1386a.38017.38017,0,0,1-.32-.18,3.25018,3.25018,0,0,0-2.42-1.54.40016.40016,0,0,1-.38013-.4.39007.39007,0,0,1,.3998-.38h.0002a3.99979,3.99979,0,0,1,3.06,1.9.39993.39993,0,0,1-.12.54A.43031.43031,0,0,1,328.767,185.1386Z" transform="translate(-39.605 -58.7304)" style="fill: #263238"/>
            <path d="M326.317,187.9686a21.19622,21.19622,0,0,1-2.3,5.12,3.20044,3.20044,0,0,0,2.72.2Z" transform="translate(-39.605 -58.7304)" style="fill: #630f0f"/>
            <path d="M348.687,184.2686c-.3901,8.16-.21,13-4.2601,17.32a10.63005,10.63005,0,0,1-18.22-4.71c-1.84-7.23-.88-19.36,7-23a10.74009,10.74009,0,0,1,15.4801,10.39Z" transform="translate(-39.605 -58.7304)" style="fill: #7f3e3b"/>
          </g>
        </g>
        <g>
          <g>
            <path d="M352.39,186.99a30.21934,30.21934,0,0,1-5.3,9.5l-10.62,2s-8.39-3.51-6.15-9.29c-1.42-1.2-.89-4.91.11-6.95a4.32739,4.32739,0,0,0,5.67-.15,3.885,3.885,0,0,0,6.15.51,4.09909,4.09909,0,0,0,6.46-1.04,3.67142,3.67142,0,0,0,4.28-.28c.05-.05.1-.09.15-.14A14.5961,14.5961,0,0,1,352.39,186.99Z" transform="translate(-39.605 -58.7304)" style="fill: #263238"/>
            <path d="M352.39,186.99a30.21934,30.21934,0,0,1-5.3,9.5l-10.62,2s-8.39-3.51-6.15-9.29c-1.42-1.2-.89-4.91.11-6.95a4.32739,4.32739,0,0,0,5.67-.15,3.885,3.885,0,0,0,6.15.51,4.09909,4.09909,0,0,0,6.46-1.04,3.67142,3.67142,0,0,0,4.28-.28c.05-.05.1-.09.15-.14A14.5961,14.5961,0,0,1,352.39,186.99Z" transform="translate(-39.605 -58.7304)" style="fill: #fff;opacity: 0.1"/>
          </g>
          <path d="M353.92,177.1a3.689,3.689,0,0,1-.78,4.05c-.05.05-.1.09-.15.14a3.67142,3.67142,0,0,1-4.28.28,4.09909,4.09909,0,0,1-6.46,1.04,3.885,3.885,0,0,1-6.15-.51,4.32739,4.32739,0,0,1-5.67.15,3.45264,3.45264,0,0,1-1-1.24,2.32926,2.32926,0,0,1-.14-.33,2.36713,2.36713,0,0,1-.28.27,3.08609,3.08609,0,0,1-3.56.21,3.0339,3.0339,0,0,1-1.28-2.69,2.76731,2.76731,0,0,1,.11-.64,1.73016,1.73016,0,0,1-.3.41,2.49742,2.49742,0,0,1-3.56-.09,3.09443,3.09443,0,0,1,.99-4.36,3.67848,3.67848,0,0,1,1.88-.5,4.81626,4.81626,0,0,1,2.87.99,2.95627,2.95627,0,0,1,4.74-3.53,2.60945,2.60945,0,0,1,1.07-2.71c1.38-.8,3.68-.11,4.8,1.23,0,0,1.54-3.72,4.2-3.3.58.08,3.31,1.29,3.24,2.27a.41362.41362,0,0,1-.05.19,1.59161,1.59161,0,0,1,.13-.22,2.9624,2.9624,0,0,1,2.56-1.21,8.59417,8.59417,0,0,1,3.08.82c2.07.85,4.27,1.8,5.47,3.69C356.5901,173.41,356.0701,176.5,353.92,177.1Z" transform="translate(-39.605 -58.7304)" style="fill: #263238"/>
          <path d="M335.007,189.9586a9.5795,9.5795,0,0,1-2.6401,5.3399c-1.81,1.73-3.35,0-3.3699-2.63,0-2.38.89-6.15,3-6.85S335.3969,187.3686,335.007,189.9586Z" transform="translate(-39.605 -58.7304)" style="fill: #7f3e3b"/>
        </g>
        <g>
          <path d="M366.987,216.5386c-.75-2-4.25-4-6.4-4h-1.42a77.65922,77.65922,0,0,0-8.57.55,152.68323,152.68323,0,0,0-17,2.86c-2.58.6799-5.07,1.5399-7.05,2.28-2.52,1-4,1.67-4,1.67s2.762,18.3848,4.19,36.646c.79457,10.162.46607,20.2544.72,27.194h42.6599c1.47-8.34,1.2384-15.6134,1.3583-30.6734C371.5453,244.0252,370.077,224.7686,366.987,216.5386Z" transform="translate(-39.605 -58.7304)" style="fill: #263238"/>
          <path d="M325.815,246.3379c.32,3.83.65,7.85,1,11.87,5-7.3,7.77-27.2708,7.77-27.2708Z" transform="translate(-39.605 -58.7304)" style="opacity: 0.2;isolation: isolate"/>
        </g>
        <path d="M320.13607,221.2431c-6.11,3.44-12.09919,21.044-12.09919,21.044l13.98919,10.556c5.34-5.05,13.15-17.58,14-22.59C337.3961,222.5631,329.92607,215.7631,320.13607,221.2431Z" transform="translate(-39.605 -58.7304)" style="fill: #263238"/>
      </g>
      <g>
        <g>
          <path d="M308.06308,400.4355a4.35,4.35,0,1,1-4.35-4.35,4.35,4.35,0,0,1,4.35,4.35Z" transform="translate(-39.605 -58.7304)" style="fill: #263238"/>
          <path d="M372.953,400.4355a4.35005,4.35005,0,1,0,4.3501-4.35,4.35007,4.35007,0,0,0-4.3501,4.35Z" transform="translate(-39.605 -58.7304)" style="fill: #263238"/>
          <path d="M336.2741,399.0447a4.35,4.35,0,1,0,4.35-4.35,4.35,4.35,0,0,0-4.35,4.35Z" transform="translate(-39.605 -58.7304)" style="fill: #263238"/>
        </g>
        <g>
          <path d="M339.2731,393.6755v-8.4101h-12.46a39.72687,39.72687,0,0,0-7.29.68L296.322,390.4545a2.11,2.11,0,0,0,.47,4.18Z" transform="translate(-39.605 -58.7304)" style="fill: #263238"/>
          <path d="M339.2731,393.6755v-8.4101h12.47a39.56935,39.56935,0,0,1,7.29.68l26.0753,4.1691a2.11,2.11,0,0,1-.47,4.18Z" transform="translate(-39.605 -58.7304)" style="fill: #263238"/>
        </g>
        <g>
          <rect x="291.9481" y="288.035" width="15.4299" height="38.5101" style="fill: #263238"/>
          <rect x="294.1681" y="270.1151" width="11" height="17.91" style="fill: #263238"/>
          <polygon points="294.168 275.375 305.168 278.145 305.168 270.115 294.168 270.115 294.168 275.375" style="opacity: 0.5;isolation: isolate"/>
        </g>
        <g>
          <g>
            <rect x="258.51808" y="229.5951" width="5.59" height="23.85" style="fill: #263238"/>
            <path d="M331.7386,328.8455V225.1626a13.61777,13.61777,0,0,1,4.6477-10.246l7.3899-6.4695a13.61808,13.61808,0,0,1,8.97-3.3716h26.6963l13.0451,13.88v109.89Z" transform="translate(-39.605 -58.7304)" style="fill: #407bff"/>
            <path d="M291.99308,308.7855h60.9v20.06h-70.82a7.19994,7.19994,0,0,1-6.2-10.87h0A18.7197,18.7197,0,0,1,291.99308,308.7855Z" transform="translate(-39.605 -58.7304)" style="fill: #407bff"/>
            <path d="M392.49,218.96V328.85H282.07a7.20738,7.20738,0,0,1-6.2-10.87,18.70658,18.70658,0,0,1,16.09-9.19h30.67337a9.10667,9.10667,0,0,0,9.10663-9.1066V225.16a13.5848,13.5848,0,0,1,4.65-10.24l7.39-6.47a13.57727,13.57727,0,0,1,8.97-3.37h26.6899Z" transform="translate(-39.605 -58.7304)" style="fill: #fff;opacity: 0.7000000000000001"/>
            <g>
              <path d="M340.6241,328.8455V225.1626a13.61777,13.61777,0,0,1,4.6477-10.246l7.3899-6.4695a13.61808,13.61808,0,0,1,8.97-3.3716h20.8068a13.61767,13.61767,0,0,1,9.923,4.2916l5.3169,5.6572a13.61768,13.61768,0,0,1,3.6947,9.3261v94.1137a10.38139,10.38139,0,0,1-10.3814,10.3814Z" transform="translate(-39.605 -58.7304)" style="fill: #407bff"/>
              <path d="M340.6241,328.8455V225.1626a13.61777,13.61777,0,0,1,4.6477-10.246l7.3899-6.4695a13.61808,13.61808,0,0,1,8.97-3.3716h20.8068a13.61767,13.61767,0,0,1,9.923,4.2916l5.3169,5.6572a13.61768,13.61768,0,0,1,3.6947,9.3261v94.1137a10.38139,10.38139,0,0,1-10.3814,10.3814Z" transform="translate(-39.605 -58.7304)" style="fill: #fff;opacity: 0.5"/>
            </g>
          </g>
          <g>
            <path d="M319.90307,295.6055a57.64981,57.64981,0,0,0-38,0,5.4,5.4,0,0,1-6.69-2.55h0c-1.14-2.41.39-5.53,3.49-6.62a67.26992,67.26992,0,0,1,44.38,0c3.1,1.08,4.63,4.21,3.48993,6.62h0A5.40991,5.40991,0,0,1,319.90307,295.6055Z" transform="translate(-39.605 -58.7304)" style="fill: #407bff"/>
            <path d="M319.90307,295.6055a57.64981,57.64981,0,0,0-38,0,5.4,5.4,0,0,1-6.69-2.55h0c-1.14-2.41.39-5.53,3.49-6.62a67.26992,67.26992,0,0,1,44.38,0c3.1,1.08,4.63,4.21,3.48993,6.62h0A5.40991,5.40991,0,0,1,319.90307,295.6055Z" transform="translate(-39.605 -58.7304)" style="fill: #fff;opacity: 0.7000000000000001"/>
          </g>
        </g>
      </g>
    </g>
  </g>
  <g id="Character_1" data-name="Character 1">
    <g id="_Group_" data-name="&lt;Group&gt;">
      <g>
        <g>
          <path d="M164.49178,196.3947c-.21.59-.06,1.18.33,1.31s.87-.23,1.0701-.82.06-1.19-.3201-1.32S164.70188,195.7947,164.49178,196.3947Z" transform="translate(-39.605 -58.7304)" style="fill: #263238"/>
          <path d="M164.38178,197.0051a22.53827,22.53827,0,0,0,1.0701,6.06,3.6297,3.6297,0,0,1-3-.46Z" transform="translate(-39.605 -58.7304)" style="fill: #a02724"/>
          <path d="M163.53178,192.3747a.36067.36067,0,0,0,.23,0,2.9199,2.9199,0,0,1,2.63.4.37.37,0,0,0,.48-.56,3.66986,3.66986,0,0,0-3.32-.55.37.37,0,0,0,0,.7Z" transform="translate(-39.605 -58.7304)" style="fill: #263238"/>
          <path d="M142.56188,198.5747c1.1199,5.69,2.2299,16.12-1.75,19.92,0,0,1.56,5.77,12.14,5.77,11.63,0,5.5599-5.77,5.5599-5.77-6.35-1.52-5.3282-6.23-4.2182-10.65Z" transform="translate(-39.605 -58.7304)" style="fill: #b55b52"/>
          <path d="M145.15178,188.2547c-2.08,7.44-3.6799,11.69-1.3,16.7,3.5701,7.55,16.0451,8.5288,19.4499-.1132,2.5902-7.9568,5.1502-16.3668-.9699-21.7368a10.54014,10.54014,0,0,0-17.18,5.15Z" transform="translate(-39.605 -58.7304)" style="fill: #b55b52"/>
        </g>
        <path d="M137.08828,190.7279c-.5414-2.7411-.6805-5.7394.6875-8.1757s4.6838-3.9288,7.0899-2.5084a11.69976,11.69976,0,1,1,16.5907,15.0452q.83265-3.067,1.6652-6.1341a11.9271,11.9271,0,0,1-4.2611,7.2478q.482-3.066.9638-6.1322a9.39983,9.39983,0,0,1-4.54128,7.0521q.58317-2.1477,1.16638-4.2953a37.65162,37.65162,0,0,1-2.2557,5.7474c-.98168,1.1441-1.6392,8.6629-5.0859,8.9005C137.327,209.834,138.35258,197.1298,137.08828,190.7279Z" transform="translate(-39.605 -58.7304)" style="fill: #263238"/>
        <path d="M152.99928,194.2931a8.80031,8.80031,0,0,0,1.22,5.47c1.33,2.14,3.28,1.32,4-.87.64-2,.7101-5.45-1.14-6.84S153.27928,191.9931,152.99928,194.2931Z" transform="translate(-39.605 -58.7304)" style="fill: #b55b52"/>
      </g>
      <g>
        <path d="M124.81288,266.3705c-1.274-.4224-7.2223-3.4811-8.1687-2.9347,2.7465-7.0077,4.4589-8.0829,5.70782-12.5436a6.86523,6.86523,0,0,0-1.32962-6.5069c-1.7575-2.3546-2.3735-3.5475-5.2972-3.2568-4.0203,6.7218-9.0818,15.016-11.0633,22.5935-.6672,2.5515-1.1497,4.4871.3679,6.644,1.3375,1.9009,3.8117,2.6666,6.1267,2.8743,5.5743.5,13.8416-.5249,13.737-3.8344C124.82748,267.3194,124.81288,266.3705,124.81288,266.3705Z" transform="translate(-39.605 -58.7304)" style="fill: #b55b52"/>
        <g>
          <path d="M123.86738,266.1213l4.725-1.5346-.4202,8.5324s-3.7829.1352-5.7981-2.3952Z" transform="translate(-39.605 -58.7304)" style="fill: #b55b52"/>
          <polygon points="94.887 205.724 94.211 212.759 88.567 214.389 88.987 205.856 94.887 205.724" style="fill: #b55b52"/>
        </g>
      </g>
      <g>
        <path d="M188.61328,272.1771s-6.5836-5.1601-15.2284-22.2151q-1.92255-3.5772-3.6802-7.212c-1.1766-2.4469-2.3072-4.8402-3.3842-7.4099l10.216-4.403c2.1062,4.5842,5.3819,9.3117,7.7013,13.8621s7.7957,15.3262,8.481,16.3314c.3415.5176.7097.947,1.0643,1.4254l.52792.7023-6.59092,7.6191Z" transform="translate(-39.605 -58.7304)" style="fill: #b55b52"/>
        <g>
          <g>
            <path d="M197.25878,239.024l-2.0469-2.4398-.9462-3.6532,6.17132-5.733a26.72468,26.72468,0,0,1,2.53668,3.8177,1.95211,1.95211,0,0,1,.21432.9866l-.251,6.424Z" transform="translate(-39.605 -58.7304)" style="fill: #b55b52"/>
            <polygon points="154.751 170.244 159.369 166.047 160.829 168.497 154.661 174.201 154.751 170.244" style="fill: #b55b52"/>
          </g>
          <path d="M197.35008,237.2384c.1615-.6869.3042.6596.7566.1182,1.3649-1.6334,3.3462-1.8111,4.5249-.0386s.1709,19.6176-1.7139,25.2075c-1.2521,3.7134-1.9185,6.6773-5.1204,8.9365a7.77983,7.77983,0,0,1-4.4981,1.6144,4.26667,4.26667,0,0,1-3.9033-2.4125c-.951-2.3316,2.5792-10.73,3.8417-13.4404C195.19328,248.7314,195.45508,245.2978,197.35008,237.2384Z" transform="translate(-39.605 -58.7304)" style="fill: #b55b52"/>
        </g>
        <g>
          <g>
            <path d="M184.11538,236.4699q4.08735-.03975,8.1748-.0794a7.9269,7.9269,0,0,0,3.42-.5419,6.20788,6.20788,0,0,0,2.7929-3.4891c1.1557-2.9645,1.25292-6.2156,1.7118-9.3641s1.40612-6.4338,3.7879-8.5435c-4.3413.5763-12.0161-.7845-15.3494,2.7724C186.88618,219.1101,183.78088,236.4731,184.11538,236.4699Z" transform="translate(-39.605 -58.7304)" style="fill: #407bff"/>
            <path d="M184.11538,236.4699q4.08735-.03975,8.1748-.0794a7.9269,7.9269,0,0,0,3.42-.5419,6.20788,6.20788,0,0,0,2.7929-3.4891c1.1557-2.9645,1.25292-6.2156,1.7118-9.3641s1.40612-6.4338,3.7879-8.5435c-4.3413.5763-12.0161-.7845-15.3494,2.7724C186.88618,219.1101,183.78088,236.4731,184.11538,236.4699Z" transform="translate(-39.605 -58.7304)" style="fill: #fff;opacity: 0.5"/>
          </g>
          <path d="M198.09618,224.3326h0c-.4696.1236-.7794,1.8016-.6769,2.2763l.4582.8188.9339,4.0532,3.119-1.7256-2.81238-4.9905A.90778.90778,0,0,0,198.09618,224.3326Z" transform="translate(-39.605 -58.7304)" style="fill: #b55b52"/>
        </g>
      </g>
      <path d="M127.62648,219.9235c-7.3,1.67-18.0946,24.4135-18.0946,24.4135l14.6499,10A164.16823,164.16823,0,0,0,135.58,235.4878C139.91,226.4278,135.08648,218.2135,127.62648,219.9235Z" transform="translate(-39.605 -58.7304)" style="fill: #407bff"/>
      <g>
        <path d="M138.29178,220.4747c-.8399-1.83-1.75-3.92.14-4.57,2.09-.72,13.53-1.46,17.47-.11a4.06,4.06,0,0,1,2.8517,4.9835l-.0216.0765Z" transform="translate(-39.605 -58.7304)" style="fill: #263238"/>
        <path d="M132.14,233.0578l-10.41372,19.603,2.4555,1.6762S128.9,247.7678,132.14,242.0878Z" transform="translate(-39.605 -58.7304)" style="opacity: 0.2;isolation: isolate"/>
        <path d="M172.01178,229.9307c1.5777,7.9833-2.108,26.9656-2.0699,57.974h-41.63c-.2747-6.2669,4.2836-21.106-1.3788-50.6663-.1835-.9581-.2674-17.1461.6934-17.3149a108.8525,108.8525,0,0,1,12.1854-1.4388,151.38788,151.38788,0,0,1,17.6999,0c2.4054.2422,6.2025,1.7369,8.5941,2.5978C169.84108,222.4271,171.24218,226.0362,172.01178,229.9307Z" transform="translate(-39.605 -58.7304)" style="fill: #407bff"/>
        <path d="M160.99518,237.8798c1.086,6.5716,5.3945,15.2535,9.6885,20.3453.17-3.73.5427-7.625.5327-10.615Z" transform="translate(-39.605 -58.7304)" style="opacity: 0.2;isolation: isolate"/>
      </g>
      <path d="M158.03388,228.005c-1,7.37,13.5,26.19,13.5,26.19l14.59-10s-4.05-10.37-10.86-17.17C167.50388,219.225,159.17388,219.985,158.03388,228.005Z" transform="translate(-39.605 -58.7304)" style="fill: #407bff"/>
      <g>
        <polygon points="166.117 332.394 173.897 332.394 175.667 314.364 167.887 314.364 166.117 332.394" style="fill: #b55b52"/>
        <polygon points="175.548 315.463 174.648 324.753 166.858 324.753 167.768 315.463 175.548 315.463" style="opacity: 0.2;isolation: isolate"/>
      </g>
      <g>
        <polygon points="135.427 332.394 143.207 332.394 147.117 314.364 139.337 314.364 135.427 332.394" style="fill: #b55b52"/>
        <g style="opacity: 0.2">
          <polygon points="139.168 315.326 146.948 315.326 144.929 324.616 137.148 324.616 139.168 315.326"/>
        </g>
      </g>
      <path d="M213.94188,387.6291h-8.49a.75854.75854,0,0,0-.67.6989l-1.5401,8.9047a1.52211,1.52211,0,0,0,.8395,1.76.88362.88362,0,0,0,.2805.0391c3.06-.0648,7.49-.2977,11.34-.2977,4.51,0,8.4.3106,13.68.3106,3.2,0,4.09-4.1805,2.75-4.5559-6.09-1.7214-11.06-1.9026-16.32-6.109A3.067,3.067,0,0,0,213.94188,387.6291Z" transform="translate(-39.605 -58.7304)" style="fill: #263238"/>
      <g>
        <path d="M220.12188,390.5247c1,0,2-.14,2.29-.59a.71.71,0,0,0,0-.81,1.00008,1.00008,0,0,0-.58-.43c-1.3-.35-4,1.2-4.13,1.27a.16992.16992,0,0,0-.09.19.18981.18981,0,0,0,.14.15A13.59271,13.59271,0,0,0,220.12188,390.5247Zm1.2399-1.51a1.25107,1.25107,0,0,1,.35,0,.52.52,0,0,1,.36.26c.13.23.09.34,0,.4-.36.51-2.33.52-3.78.31A8.35056,8.35056,0,0,1,221.36178,389.0147Z" transform="translate(-39.605 -58.7304)" style="fill: #407bff"/>
        <path d="M217.77178,390.3047h.08c.94-.42,2.8-2.1,2.65-3,0-.21-.18-.46-.68-.52a1.36016,1.36016,0,0,0-1,.32c-1,.81-1.2,2.91-1.21,3a.19008.19008,0,0,0,.07.17A.2289.2289,0,0,0,217.77178,390.3047Zm1.9-3.15h.11c.33,0,.35.17.36.21.09.53-1.18,1.85-2.14,2.42a4.3001,4.3001,0,0,1,1-2.39A.99972.99972,0,0,1,219.67178,387.1547Z" transform="translate(-39.605 -58.7304)" style="fill: #407bff"/>
      </g>
      <path d="M183.36178,387.6291h-8.74a.75136.75136,0,0,0-.66.6989l-1.54,8.9047a1.531,1.531,0,0,0,.8846,1.7664.89794.89794,0,0,0,.2554.0327c3.05-.0648,4.54-.2977,8.38-.2977,2.37,0,5.4.3106,8.67.3106s3.69-4.1805,2.35-4.5559c-6-1.6955-6.41-4.0382-8.33-6.2773A1.65876,1.65876,0,0,0,183.36178,387.6291Z" transform="translate(-39.605 -58.7304)" style="fill: #263238"/>
      <g>
        <path d="M187.93178,391.5147a2.51015,2.51015,0,0,0,1.87-.51.73992.73992,0,0,0,0-.87.84969.84969,0,0,0-.58-.43c-1.14-.27-3.29,1.2-3.38,1.26a.2101.2101,0,0,0-.08.19.18.18,0,0,0,.14.14A9.57643,9.57643,0,0,0,187.93178,391.5147Zm1-1.48a.77954.77954,0,0,1,.22,0,.45981.45981,0,0,1,.34.24c.17.31.0701.43,0,.48-.33.43-1.92.44-3.09.25a6,6,0,0,1,2.51-.97Z" transform="translate(-39.605 -58.7304)" style="fill: #407bff"/>
        <path d="M185.95188,391.3047h.08c.81-.44,2.3699-2.14,2.2-3a.6.6,0,0,0-.59-.49,1.00009,1.00009,0,0,0-.78.24c-.9.74-1.09,3-1.1001,3.08a.20024.20024,0,0,0,.09.17A.17075.17075,0,0,0,185.95188,391.3047Zm1.57-3.15h.08c.24,0,.26.14.27.19.1.51-.9,1.8-1.7,2.41a4.40941,4.40941,0,0,1,.92-2.44.66.66,0,0,1,.4299-.16Z" transform="translate(-39.605 -58.7304)" style="fill: #407bff"/>
      </g>
      <g>
        <g>
          <path d="M157.46178,287.9147s36.84922,15.2126,44.4686,26.91c-4.5307,29.7392-12.6605,63.62-12.6605,63.62h-13.8581A273.62868,273.62868,0,0,1,179,334.6839c2-36.3501-63.41822,1.2608-50.70822-46.7692Z" transform="translate(-39.605 -58.7304)" style="fill: #263238"/>
          <path d="M182.93838,312.9846a67.99077,67.99077,0,0,0-7.6952.886q-4.03827.62115-8.0765,1.2424a121.67234,121.67234,0,0,0,13.1576,9.6191c2.7876,1.7641,5.8216,3.4651,9.1204,3.4804,3.695.0172,13.7358-4.746,12.0707-9.6695C199.82728,313.5516,187.13868,312.8223,182.93838,312.9846Z" transform="translate(-39.605 -58.7304)" style="opacity: 0.30000000000000004"/>
        </g>
        <path d="M169.94178,287.9147S204.00278,292.3069,222.78,303c5.78068,3.292,4.97158,13.8642,4.82178,20.8247a164.51988,164.51988,0,0,1-10.62,54.62h-11.56s.59-18.87.2001-49.32c-.12-9.13-18.5501-12.14-36.56-13.2a41.00022,41.00022,0,0,1-35.2401-25.07l-1.2299-2.94Z" transform="translate(-39.605 -58.7304)" style="fill: #263238"/>
        <path d="M219.81188,375.3447c.06,0-.75,5.47-.75,5.47h-16l-.44-4.88Z" transform="translate(-39.605 -58.7304)" style="fill: #407bff"/>
        <path d="M190.61178,375.3447c.06,0-1.47,5.47-1.47,5.47h-16l.29-4.88Z" transform="translate(-39.605 -58.7304)" style="fill: #407bff"/>
      </g>
      <g>
        <g>
          <polygon points="108.01 256.779 96.546 341.285 94.475 341.003 103.324 256.139 108.01 256.779" style="fill: #407bff"/>
          <polygon points="107.6 259.804 96.546 341.285 94.475 341.003 102.943 259.794 107.6 259.804" style="opacity: 0.4;isolation: isolate"/>
        </g>
        <g>
          <path d="M187.94178,318.5347h-65a7.42,7.42,0,0,1,7.42-7.42h50.16a7.41994,7.41994,0,0,1,7.42,7.42Z" transform="translate(-39.605 -58.7304)" style="fill: #407bff"/>
          <path d="M187.94178,318.5347h-65a7.42,7.42,0,0,1,7.42-7.42h50.16a7.41994,7.41994,0,0,1,7.42,7.42Z" transform="translate(-39.605 -58.7304)" style="fill: #fff;opacity: 0.7000000000000001"/>
        </g>
        <polygon points="86.347 259.794 76.547 341.954 78.647 341.954 91.077 259.794 86.347 259.794" style="fill: #407bff"/>
        <g>
          <polygon points="145.327 259.794 155.127 341.954 153.027 341.954 140.607 259.794 145.327 259.794" style="fill: #407bff"/>
          <polygon points="145.327 259.794 155.127 341.954 153.027 341.954 140.607 259.794 145.327 259.794" style="opacity: 0.4;isolation: isolate"/>
        </g>
        <polygon points="132.217 259.794 132.407 341.954 130.317 341.954 127.487 259.794 132.217 259.794" style="fill: #407bff"/>
      </g>
    </g>
  </g>
</svg>
