<?xml version="1.0" encoding="utf-8"?>
<!-- Generator: Adobe Illustrator 22.1.0, SVG Export Plug-In . SVG Version: 6.00 Build 0)  -->
<svg version="1.1" id="Layer_1" xmlns="http://www.w3.org/2000/svg" xmlns:xlink="http://www.w3.org/1999/xlink" x="0px" y="0px"
	 viewBox="0 0 318.2 319.6" style="enable-background:new 0 0 318.2 319.6;" xml:space="preserve">
<style type="text/css">
	.st0{fill:#0092DF;}
	.st1{fill:#AAAAAA;}
	.st2{fill:#FFFFFF;}
	.st3{fill:#999999;}
	.st4{fill:#94CDFF;}
</style>
<title>cinema4d</title>
<g id="Layer_2_1_">
	<g id="Layer_1-2">
		<circle class="st0" cx="159.8" cy="159.8" r="157.8"/>
		<path class="st1" d="M232.4,215c-34.9,34.9-91.6,34.9-126.5,0s-34.9-91.6,0-126.5c5.5-5.5,11.6-10.2,18.3-14.1l-99.5,3.7
			C-20.4,152.7,3.4,249.7,78,294.8c64.1,38.8,146.7,27.2,197.6-27.8L232.4,215z"/>
		<path class="st2" d="M318.2,178.2c0-21.2-17.1-38.4-38.3-38.4c-7.5,0-14.8,2.2-21.1,6.3l0,0l-0.1,0.1c-0.2,0.1-0.4,0.3-0.6,0.5
			c-25.2,16.8-44,75.6-68.8,97.7l0,0c-35.1,31.9-89.4,29.4-121.3-5.7s-29.4-89.4,5.7-121.3C89.4,103,110,95,131.4,95
			c9.5,0,36.8,7.3,59.7,2.7c5-0.9,9.8-2.6,14.2-5h0.1c0.2-0.1,0.3-0.2,0.5-0.3c23.2-12.9,31.5-42.2,18.6-65.4
			C218,15.4,207.1,7,194.3,3.8c-33.3-7.4-68.1-3.9-99.2,9.9l-16.6,8.5C2.5,67.1-22.7,165.1,22.2,241.1s142.9,101.2,218.9,56.3
			c42.2-24.9,70.6-67.8,77.1-116.4l-0.1-0.1C318.1,180,318.2,179.1,318.2,178.2z"/>
		<path class="st3" d="M59.2,239.1c-16.9,0.9-24.7,21.3-12.8,33.3c50.3,50.7,130.4,62.9,194.7,24.9c42.2-24.9,70.6-67.8,77.1-116.4
			l-0.1-0.1c0.1-0.9,0.1-1.8,0.1-2.8c0-21.2-17.1-38.4-38.3-38.4c-7.5,0-14.8,2.2-21.1,6.3l0,0l-0.1,0.1c-0.2,0.1-0.4,0.3-0.6,0.5
			c-25.2,16.8-44,75.6-68.8,97.7l0,0c-33.2,30.2-83.5,29.6-115.9-0.3C69.4,240.6,64.3,238.9,59.2,239.1L59.2,239.1z"/>
		<circle class="st4" cx="142.1" cy="152.8" r="31.4"/>
	</g>
</g>
</svg>
