<svg xmlns="http://www.w3.org/2000/svg" width="444.39189" height="405.10773" viewBox="0 0 444.39189 405.10773">
  <title>moneysavings</title>
  <g id="Background_Complete" data-name="Background Complete">
    <g>
      <g>
        <path d="M180.32889,183.4041a60.88138,60.88138,0,1,1-68.98429-51.3523A60.81493,60.81493,0,0,1,180.32889,183.4041Z" transform="translate(-27.804 -45.59607)" style="fill: #f5f5f5"/>
        <path d="M165.99319,185.4884a46.39556,46.39556,0,1,1-52.57029-39.1348A46.34264,46.34264,0,0,1,165.99319,185.4884Z" transform="translate(-27.804 -45.59607)" style="fill: #ebebeb"/>
        <path d="M165.77329,184.0509c-.2772.0507-.7656-1.9362-2.0161-5.345a49.233,49.233,0,0,0-7.3413-13.3025,47.50711,47.50711,0,0,0-7.29089-7.4599,46.4803,46.4803,0,0,0-10.1376-6.2665,45.48514,45.48514,0,0,0-12.6131-3.6309,45.0325,45.0325,0,0,0-6.9392-.405,45.336,45.336,0,0,0-14.0573,2.4937,45.25376,45.25376,0,0,0-6.3779,2.7687,45.47559,45.47559,0,0,0-10.593,7.7517,46.43554,46.43554,0,0,0-7.3589,9.3747,47.56916,47.56916,0,0,0-4.2772,9.5138,49.25215,49.25215,0,0,0-2.3084,15.0135c.0011,3.6301.227,5.6641-.0516,5.7103-.2042.0408-.8964-1.9171-1.3304-5.6365a42.91064,42.91064,0,0,1,1.2776-15.792,46.48148,46.48148,0,0,1,11.7276-20.4892,44.88033,44.88033,0,0,1,5.1905-4.5843,45.43008,45.43008,0,0,1,6.0784-3.9245,47.24561,47.24561,0,0,1,6.8607-3.0391,47.54,47.54,0,0,1,15.1627-2.6908,47.40093,47.40093,0,0,1,7.4867.4925,47.30287,47.30287,0,0,1,13.509,4.1095,46.4852,46.4852,0,0,1,18.06659,15.199,42.96175,42.96175,0,0,1,6.6411,14.3871C165.95519,181.9409,165.97849,184.017,165.77329,184.0509Z" transform="translate(-27.804 -45.59607)" style="fill: #e0e0e0"/>
      </g>
      <path d="M129.2537,218.7908l1.2786,7.9807-7.1248,1.1387-1.2432-7.7648c-7.1222.7008-14.2441-.4222-18.6526-2.8592l2.525-9.3204a29.16,29.16,0,0,0,14.6336,2.8456l-1.9066-11.8997c-8.2163-.6548-17.4727-1.8771-19.1037-12.067-1.2087-7.5527,3.2388-14.9138,14.29-17.9976l-1.2663-7.9103,7.1256-1.141,1.2434,7.7679a32.63323,32.63323,0,0,1,15.1579,2.029l-2.1577,9.3353a29.582,29.582,0,0,0-11.4955-1.9613l1.9403,12.1139c8.2041.5846,17.3195,1.8314,18.9276,11.8757C144.6117,208.3674,140.2231,215.6464,129.2537,218.7908Zm-12.1656-30.352-1.6218-10.1162c-3.6383,1.459-4.803,3.7656-4.4276,6.1173C111.4388,186.932,113.7929,187.9454,117.0881,188.4388Zm15.0047,15.2103c-.4002-2.4953-2.6823-3.5164-5.9182-4.0971l1.5742,9.833C131.1867,208.0319,132.4574,205.9289,132.0928,203.6491Z" transform="translate(-27.804 -45.59607)" style="fill: #e0e0e0"/>
    </g>
    <g>
      <g>
        <path d="M401.39419,128.6658a44.24289,44.24289,0,1,1-60.7159-14.8108A44.19438,44.19438,0,0,1,401.39419,128.6658Z" transform="translate(-27.804 -45.59607)" style="fill: #f5f5f5"/>
        <path d="M392.39219,134.1238a33.716,33.716,0,1,1-46.2697-11.2875A33.67728,33.67728,0,0,1,392.39219,134.1238Z" transform="translate(-27.804 -45.59607)" style="fill: #ebebeb"/>
        <path d="M391.83749,133.2241c-.171.1125-1.061-1.0786-2.8639-3.0054a35.78668,35.78668,0,0,0-8.6828-6.8206,34.51983,34.51983,0,0,0-6.9932-2.9253,33.7713,33.7713,0,0,0-8.55959-1.32,33.06258,33.06258,0,0,0-9.46921,1.1452,32.70623,32.70623,0,0,0-4.7583,1.6958,32.94254,32.94254,0,0,0-8.6998,5.653,32.89542,32.89542,0,0,0-3.483,3.6602,33.0541,33.0541,0,0,0-4.8913,8.1895,33.74109,33.74109,0,0,0-2.2673,8.359,34.55808,34.55808,0,0,0-.1655,7.5785,35.7917,35.7917,0,0,0,2.71041,10.7006c1.02969,2.4287,1.75729,3.7258,1.584,3.8356-.12511.0852-1.14321-1.0287-2.48771-3.3945a31.18365,31.18365,0,0,1-3.6211-10.9296,33.77994,33.77994,0,0,1,2.0403-17.0343,32.60835,32.60835,0,0,1,2.174-4.5387,33.04121,33.04121,0,0,1,2.9551-4.3489,34.332,34.332,0,0,1,3.7295-3.9782,34.55989,34.55989,0,0,1,9.3837-6.0982,34.47276,34.47276,0,0,1,5.1493-1.7924,34.3786,34.3786,0,0,1,10.2044-1.0788,33.77752,33.77752,0,0,1,16.3972,5.0498,31.22415,31.22415,0,0,1,8.5216,7.7451C391.36119,131.7607,391.96529,133.1433,391.83749,133.2241Z" transform="translate(-27.804 -45.59607)" style="fill: #e0e0e0"/>
      </g>
      <path d="M377.24649,166.8213l3.1176,4.9779-4.445,2.7813-3.0326-4.8435c-4.5671,2.4875-9.6512,3.7546-13.2918,3.3734l-.9521-6.9525a21.19034,21.19034,0,0,0,10.5987-2.2433l-4.6485-7.4224c-5.6836,1.8904-12.224,3.6961-16.2036-2.6602-2.9493-4.7113-2.0595-10.8976,4.4612-16.0934l-3.0892-4.9343,4.4447-2.7832,3.0336,4.8455a23.71482,23.71482,0,0,1,10.7181-2.9383l1.2021,6.8582a21.49789,21.49789,0,0,0-8.2482,1.9457l4.7319,7.5563c5.6554-1.934,12.10861-3.6835,16.0314,2.582C384.56909,155.4935,383.69539,161.6082,377.24649,166.8213Zm-16.7432-16.8623-3.9526-6.3096c-2.0209,2.0074-2.1466,3.8812-1.2289,5.3482C356.29589,150.5519,358.15839,150.5629,360.50329,149.959Zm14.3514,5.9254c-.975-1.5564-2.7915-1.5928-5.1214-1.0643l3.8405,6.1338C375.49049,159.0739,375.74489,157.3066,374.85469,155.8844Z" transform="translate(-27.804 -45.59607)" style="fill: #e0e0e0"/>
    </g>
    <g>
      <g>
        <path d="M341.81809,87.7139a22.78148,22.78148,0,1,1,7.0743-31.3933A22.75654,22.75654,0,0,1,341.81809,87.7139Z" transform="translate(-27.804 -45.59607)" style="fill: #f5f5f5"/>
        <path d="M338.92649,83.1287A17.3609,17.3609,0,1,1,344.318,59.2049,17.341,17.341,0,0,1,338.92649,83.1287Z" transform="translate(-27.804 -45.59607)" style="fill: #ebebeb"/>
        <path d="M339.38459,82.8351c-.0594-.0871.5457-.5562,1.5213-1.5019a18.4211,18.4211,0,0,0,3.4329-4.532,17.78536,17.78536,0,0,0,1.4425-3.6269,17.38959,17.38959,0,0,0,.602-4.4188,17.02177,17.02177,0,0,0-.6755-4.8647,16.84688,16.84688,0,0,0-.9162-2.4343,16.96646,16.96646,0,0,0-2.9892-4.4278,16.94637,16.94637,0,0,0-1.9162-1.76,17.01779,17.01779,0,0,0-4.2606-2.444,17.37784,17.37784,0,0,0-4.324-1.0913,17.80579,17.80579,0,0,0-3.9032-.0166,18.42888,18.42888,0,0,0-5.4845,1.4926,10.1761,10.1761,0,0,1-1.9604.8502c-.0449-.0636.5193-.5979,1.7252-1.3115a16.05371,16.05371,0,0,1,5.594-1.9635,17.39342,17.39342,0,0,1,8.7884.896,16.79938,16.79938,0,0,1,2.3564,1.0781,17.00714,17.00714,0,0,1,2.2658,1.4819,17.6814,17.6814,0,0,1,2.082,1.884,17.79647,17.79647,0,0,1,3.2246,4.7757,17.73074,17.73074,0,0,1,.9695,2.6349,17.70193,17.70193,0,0,1,.6481,5.2438,17.39287,17.39287,0,0,1-2.4512,8.4877,16.07519,16.07519,0,0,1-3.9101,4.4575A5.1019,5.1019,0,0,1,339.38459,82.8351Z" transform="translate(-27.804 -45.59607)" style="fill: #e0e0e0"/>
      </g>
      <path d="M321.95519,75.6277l-2.5345,1.6502-1.4723-2.2632,2.4662-1.6051a12.79781,12.79781,0,0,1-1.8574-6.8127l3.57081-.5532a10.911,10.911,0,0,0,1.25109,5.4363l3.7792-2.4605c-1.0249-2.909-2.0138-6.26,1.2225-8.3664,2.3989-1.5611,5.5919-1.1592,8.326,2.1509l2.5123-1.6353,1.4731,2.263-2.467,1.6059a12.209,12.209,0,0,1,1.6099,5.4913l-3.52.6811a11.06833,11.06833,0,0,0-1.0764-4.2288l-3.8473,2.5047c1.0471,2.8941,2.0062,6.2006-1.1839,8.277C327.85369,79.2949,324.69769,78.9006,321.95519,75.6277Zm8.5295-8.773,3.2126-2.092c-1.0519-1.0223-2.0177-1.0701-2.7647-.5842C330.14129,64.6939,330.15249,65.653,330.48469,66.8547Zm-2.9204,7.4425c.7923-.5162.7946-1.4517.5014-2.6463l-3.123,2.0327C325.92789,74.6534,326.84019,74.7683,327.56429,74.2972Z" transform="translate(-27.804 -45.59607)" style="fill: #e0e0e0"/>
    </g>
  </g>
  <g id="Desk">
    <path d="M472.19589,450.4434c0,.1438-99.4884.2604-222.1852.2604-122.73949,0-222.20669-.1166-222.20669-.2604s99.4672-.2603,222.20669-.2603C372.70749,450.1831,472.19589,450.2996,472.19589,450.4434Z" transform="translate(-27.804 -45.59607)" style="fill: #263238"/>
  </g>
  <g id="Plants">
    <g>
      <path d="M87.2568,419.7391c1.129-4.374-1.7392-8.7653-4.9542-11.9387-3.2148-3.1735-7.0586-6.0165-8.7313-10.2126-2.71-6.7981.9331-15.6004-3.6912-21.2724-2.7203-3.3369-7.5984-4.4531-10.0125-8.0177-1.2661-1.8697-1.6758-4.1675-2.1735-6.3702a64.70413,64.70413,0,0,0-16.0914-30.1111,56.14289,56.14289,0,0,0,6.3133,29.02c1.8726,3.5662,4.1723,7.0427,4.7929,11.0225,1.0076,6.4629-2.5996,13.1205-1.0119,19.4659,1.8155,7.2569,9.9674,12.1142,10.3539,19.5852.327,6.3156-5.1779,11.8593-4.7676,18.1703a17.04262,17.04262,0,0,0,2.8099,7.4894c4.8837,8.1184,12.0569,13.7101,22.9309,13.5283l13.3181.4662Z" transform="translate(-27.804 -45.59607)" style="fill: #e8505b"/>
      <g style="opacity: 0.30000000000000004">
        <path d="M87.2568,419.7391c1.129-4.374-1.7392-8.7653-4.9542-11.9387-3.2148-3.1735-7.0586-6.0165-8.7313-10.2126-2.71-6.7981.9331-15.6004-3.6912-21.2724-2.7203-3.3369-7.5984-4.4531-10.0125-8.0177-1.2661-1.8697-1.6758-4.1675-2.1735-6.3702a64.70413,64.70413,0,0,0-16.0914-30.1111,56.14289,56.14289,0,0,0,6.3133,29.02c1.8726,3.5662,4.1723,7.0427,4.7929,11.0225,1.0076,6.4629-2.5996,13.1205-1.0119,19.4659,1.8155,7.2569,9.9674,12.1142,10.3539,19.5852.327,6.3156-5.1779,11.8593-4.7676,18.1703a17.04262,17.04262,0,0,0,2.8099,7.4894c4.8837,8.1184,12.0569,13.7101,22.9309,13.5283l13.3181.4662Z" transform="translate(-27.804 -45.59607)"/>
      </g>
      <g>
        <g>
          <path d="M99.0391,450.4743a10.63306,10.63306,0,0,0,3.6671-.0793,22.28582,22.28582,0,0,0,4.3277-1.0893,18.338,18.338,0,0,0,5.3452-2.9276,7.4536,7.4536,0,0,0,2.1986-2.9299,13.78632,13.78632,0,0,0,.6269-3.9791,38.59181,38.59181,0,0,1,.3109-4.308,11.88005,11.88005,0,0,1,1.6271-4.2832c1.5708-2.7585,4.1777-5.3697,5.0203-9.1152.9114-3.6841.2576-7.6704-.3621-11.6742-.6185-3.9942-1.2173-8.3499.3109-12.5117,1.4285-4.1652,4.3493-7.9254,5.8095-12.621,1.454-4.7428.7764-9.8435,1.0834-14.8744a19.74052,19.74052,0,0,1,1.7356-7.3949c1.0775-2.3574,2.5723-4.5808,3.7391-7.0626,2.3638-5.0174,2.7812-10.7038,3.4279-16.2766q.4728-4.21155.9552-8.51a41.68113,41.68113,0,0,1,1.48-8.5173,75.13668,75.13668,0,0,1,3.1859-8.2424,27.35219,27.35219,0,0,0,1.5456-4.3049,43.24638,43.24638,0,0,0,.4297-4.5805,53.97076,53.97076,0,0,0-.3546-9.219c-.362-3.0738-.9163-6.1206-1.2467-9.2008-.0204-.1818-.0409-.3637-.0596-.5311l-.0689-.6134-.5454.273a20.57686,20.57686,0,0,0-7.1695,6.0505,32.63973,32.63973,0,0,0-4.4051,8.1178c-2.2247,5.7221-3.0258,11.7188-4.1472,17.4408-1.0948,5.7221-2.5382,11.3511-5.4723,16.1074-1.4592,2.3717-3.2253,4.5371-4.7703,6.851a18.827,18.827,0,0,0-3.3049,7.5905c-.7877,5.6339,2.3157,10.5823,1.6696,15.5709a17.27511,17.27511,0,0,1-2.4295,6.9118c-1.2094,2.128-2.6308,4.1011-3.9793,6.0847a39.08455,39.08455,0,0,0-3.5752,6.1447,19.47055,19.47055,0,0,0-1.6361,6.6766c-.325,4.4913.3124,8.752-.016,12.7744a29.399,29.399,0,0,1-3.2867,10.9457c-1.6111,3.2768-3.403,6.2396-4.9044,9.1129a46.73729,46.73729,0,0,0-2.019,4.2442,20.87119,20.87119,0,0,0-1.1691,4.2103,26.57779,26.57779,0,0,0-.0983,7.6019,19.15031,19.15031,0,0,0,3.8104,9.6939,9.21083,9.21083,0,0,0,1.0776,1.1672,5.3195,5.3195,0,0,0,.8742.7425c.4966.3659.7618.5337.7618.5337a16.85047,16.85047,0,0,1-2.5789-2.5502,19.27988,19.27988,0,0,1-3.6152-9.6288,26.43618,26.43618,0,0,1,.1698-7.4918,20.54043,20.54043,0,0,1,1.1778-4.1113c.5665-1.3742,1.2707-2.7685,2.0311-4.1881,1.513-2.8476,3.324-5.7986,4.9696-9.096a29.89991,29.89991,0,0,0,3.4017-11.1387c.3499-4.1079-.2685-8.3835.0707-12.7693a18.80529,18.80529,0,0,1,1.6054-6.4524,38.476,38.476,0,0,1,3.5344-6.0218c1.3476-1.97,2.7855-3.9508,4.0292-6.1231a17.99381,17.99381,0,0,0,2.5414-7.1949c.642-5.3142-2.4387-10.295-1.6382-15.5318a18.07515,18.07515,0,0,1,3.193-7.2607c1.5206-2.2707,3.2959-4.4382,4.7988-6.8699,3.0265-4.8928,4.493-10.63,5.5993-16.3755,1.1321-5.7576,1.9342-11.6908,4.1193-17.2954a31.81208,31.81208,0,0,1,4.2895-7.9042,19.72745,19.72745,0,0,1,6.8676-5.8013l-.6139-.34c.0189.1691.0396.353.0602.537.3349,3.1164.891,6.1699,1.2487,9.2075a53.16881,53.16881,0,0,1,.353,9.0783,43.50961,43.50961,0,0,1-.4094,4.4431,26.81407,26.81407,0,0,1-1.4944,4.1521,75.71776,75.71776,0,0,0-3.2103,8.3333,42.38171,42.38171,0,0,0-1.4996,8.6583q-.47685,4.30065-.9446,8.5166c-.6363,5.5967-1.0538,11.1914-3.33,16.035-1.1248,2.4112-2.6173,4.6414-3.7263,7.0755a20.50024,20.50024,0,0,0-1.7849,7.6683c-.2902,5.1396.3783,10.1638-1.0119,14.7167-1.3807,4.5315-4.2861,8.3115-5.754,12.6092-1.5714,4.3423-.9203,8.8396-.2851,12.8215.6434,4.0096,1.2894,7.9126.4309,11.4535-.7697,3.5775-3.3017,6.1651-4.9046,9.0021a12.32605,12.32605,0,0,0-1.6519,4.4539,38.50793,38.50793,0,0,0-.28,4.3599,13.505,13.505,0,0,1-.5683,3.871,7.13393,7.13393,0,0,1-2.066,2.8029,18.27663,18.27663,0,0,1-5.2169,2.9422,22.95126,22.95126,0,0,1-4.2666,1.1576,17.08521,17.08521,0,0,1-2.7092.2617C99.3575,450.4638,99.0391,450.4743,99.0391,450.4743Z" transform="translate(-27.804 -45.59607)" style="fill: #263238"/>
          <path d="M141.1206,293.5749a1.55664,1.55664,0,0,0-.1289.4024c-.0781.319-.1747.7131-.294,1.1992-.2616,1.0486-.5745,2.6326-1.0768,4.6111-.5232,1.9723-1.7312,4.2047-2.7646,6.9562-1.0741,2.7292-2.1633,5.8926-3.1655,9.4468-1.0157,3.5509-1.9166,7.4959-2.8574,11.7209-.971,4.2173-1.9395,8.7409-4.2634,13.0068-1.0917,2.1635-2.3208,4.3531-3.2967,6.7483a31.42035,31.42035,0,0,0-1.9178,7.6424,154.54383,154.54383,0,0,1-2.8712,16.1125c-2.6704,10.9145-5.2141,21.3093-7.5301,30.7748-2.3721,9.4329-4.5095,17.9332-6.3114,25.0989-1.7534,7.1007-3.1781,12.8701-4.1831,16.9391q-.69465,2.9289-1.0952,4.6162c-.1069.4888-.1938.8851-.2638,1.2057a1.567,1.567,0,0,0-.0616.4181,1.55178,1.55178,0,0,0,.1462-.3964c.0921-.3152.2059-.7046.3464-1.1848.3038-1.1118.7218-2.6407,1.2508-4.5763,1.0682-4.053,2.5827-9.7995,4.4465-16.872,1.8527-7.1527,4.0504-15.6376,6.4892-25.0535,2.3378-9.468,4.9054-19.8654,7.6011-30.7825a152.37858,152.37858,0,0,0,2.8658-16.1787,30.73291,30.73291,0,0,1,1.8459-7.4577c.9413-2.3342,2.1512-4.513,3.2434-6.6995,2.343-4.3467,3.3186-9.0071,4.2518-13.2076.9116-4.2361,1.7741-8.169,2.7473-11.713.9602-3.5465,2.0031-6.7052,3.0294-9.4373.9798-2.7421,2.1489-5.0011,2.6395-7.0403.4613-2.0269.7151-3.5944.9241-4.6629.0853-.4931.1548-.893.2107-1.2166A1.57408,1.57408,0,0,0,141.1206,293.5749Z" transform="translate(-27.804 -45.59607)" style="fill: #263238"/>
        </g>
        <g>
          <path d="M101.3921,450.5642c8.699-5.171,11.1934-20.4752,7.5649-29.9221-3.6287-9.447-9.9805-18.0785-10.9599-28.1508-.7528-7.7428,1.7825-15.6894-.0206-23.257-2.4335-10.2129-12.4046-18.1235-12.2897-28.6219.0644-5.8905,3.4159-11.4329,3.1488-17.3175-.3272-7.2181-5.8675-12.9446-9.2989-19.3031-5.2523-9.7328-5.5978-21.24-7.3938-32.1525-1.7957-10.9128-5.9546-22.5998-15.6263-27.9634-1.4283,9.2648-3.8667,15.6101-3.1008,28.1617.2751,4.5076,5.5114,13.1367,6.2238,23.0154.4257,5.9046.7209,11.8178,1.0816,17.7267.351,5.7502.7237,11.6049,2.7847,16.9846,1.5793,4.1224,4.1172,7.8673,5.2899,12.1234,2.2063,8.007-.6927,16.6794,1.0891,24.7917,1.5093,6.8728,6.266,12.7879,7.2378,19.7571,1.3655,9.7921-4.9716,19.9661-1.728,29.306,1.6098,4.6347,5.4222,8.3561,6.504,13.142.8395,3.7133-.0757,7.6439.6846,11.3742,1.2246,6.0096,12.6871,10.6768,18.8088,10.3055" transform="translate(-27.804 -45.59607)" style="fill: #e8505b"/>
          <path d="M58.9143,253.073a2.37461,2.37461,0,0,0,.0378.5231c.0502.3893.1149.8911.1961,1.5225.1995,1.3379.4239,3.3032.876,5.8435.4863,2.5553,1.8023,5.4309,2.8545,8.899,1.1101,3.4574,2.214,7.4465,3.1903,11.9123.993,4.4633,1.8232,9.4032,2.6952,14.7202.9012,5.2774,1.8223,11.1095,4.4593,16.6443,1.2203,2.7811,2.5894,5.5639,3.6165,8.5292a38.29132,38.29132,0,0,1,1.835,9.4003,189.71069,189.71069,0,0,0,2.5513,20.2645c2.6644,13.7277,5.2022,26.8028,7.5118,38.7043,2.4348,11.8544,4.6283,22.5341,6.475,31.5252,1.8646,8.9253,3.3778,16.1666,4.4375,21.2384.5329,2.4601.9514,4.3915,1.2491,5.7659.1435.6198.2576,1.113.346,1.495a2.39882,2.39882,0,0,0,.1464.5035,2.37014,2.37014,0,0,0-.0606-.5208c-.0672-.3865-.154-.8851-.2628-1.512-.2601-1.3817-.6259-3.324-1.0916-5.7976-.9961-5.0847-2.4183-12.3444-4.1711-21.2926-1.7956-9.0012-3.9279-19.6933-6.295-31.5616-2.2882-11.8978-4.8021-24.9692-7.4415-38.6928a191.99894,191.99894,0,0,1-2.56-20.1985A38.98248,38.98248,0,0,0,77.6123,321.4c-1.0588-3.0284-2.4468-5.8229-3.6675-8.5807-2.6222-5.4534-3.5428-11.1485-4.4813-16.4446-.9012-5.3073-1.7695-10.2613-2.8041-14.7337-1.0181-4.4756-2.1682-8.4717-3.326-11.9285-1.1052-3.4799-2.4618-6.3312-2.9838-8.8211-.4954-2.4942-.778-4.4788-1.0312-5.7996-.1159-.6258-.2083-1.1234-.28-1.5091A2.38708,2.38708,0,0,0,58.9143,253.073Z" transform="translate(-27.804 -45.59607)" style="fill: #263238"/>
        </g>
      </g>
    </g>
    <g>
      <path d="M437.99319,390.9658a11.131,11.131,0,0,1,5.7685,6.5344,19.65077,19.65077,0,0,1,.7664,8.8516c-.651,5.7441-3.91509,11.5427-7.4295,16.1326-4.8369-4.2214-5.9498-11.5857-6.2797-15.3569-.5214-5.9608,2.1558-17.0501,7.1743-16.1617" transform="translate(-27.804 -45.59607)" style="fill: #e8505b"/>
      <path d="M442.72129,431.965a9.49628,9.49628,0,0,1,3.0688-9.0284,12.61154,12.61154,0,0,1,9.3017-2.9054,5.31055,5.31055,0,0,1,4.0828,1.8334,4.06158,4.06158,0,0,1,.0629,4.116,8.23621,8.23621,0,0,1-3.0472,3.0013c-4.1912,2.63-8.7299,4.4055-13.469,2.9831" transform="translate(-27.804 -45.59607)" style="fill: #e8505b"/>
      <path d="M436.51809,449.5779a6.72186,6.72186,0,0,1,.1724-1.179c.1521-.8298.3488-1.9018.5849-3.1898a33.33471,33.33471,0,0,1,3.2924-10.1908,20.40244,20.40244,0,0,1,7.3131-7.7716,13.84806,13.84806,0,0,1,2.98211-1.3191,8.40463,8.40463,0,0,1,.85869-.2181.87159.87159,0,0,1,.3069-.0427,21.68357,21.68357,0,0,0-3.9949,1.8337,21.06408,21.06408,0,0,0-7.1,7.7216,35.89357,35.89357,0,0,0-3.3681,10.0466c-.2928,1.3365-.5307,2.4199-.71559,3.1639A6.29608,6.29608,0,0,1,436.51809,449.5779Z" transform="translate(-27.804 -45.59607)" style="fill: #263238"/>
      <path d="M436.70029,399.5907a2.415,2.415,0,0,1,.0591.5152c.0227.3825.0518.8732.0878,1.4806.0689,1.2861.1445,3.148.2185,5.4493.149,4.6026.2658,10.9645.2365,17.9913-.0316,7.0292-.2036,13.3904-.3925,17.9916-.0939,2.3007-.1855,4.1616-.2655,5.4469-.0414.6069-.0747,1.0974-.1006,1.4796a2.40027,2.40027,0,0,1-.0637.5145,2.42069,2.42069,0,0,1-.0207-.5181c.0057-.383.013-.8744.0221-1.4826.0325-1.3393.0775-3.188.1324-5.4498.1131-4.6017.238-10.9594.2696-17.984.0291-7.022-.0405-13.38-.1137-17.9825-.0354-2.2622-.0643-4.1113-.0853-5.451-.0038-.6083-.0069-1.0999-.0092-1.483A2.42822,2.42822,0,0,1,436.70029,399.5907Z" transform="translate(-27.804 -45.59607)" style="fill: #263238"/>
      <path d="M434.35239,435.4619a22.21659,22.21659,0,0,0-12.1308-16.2736c-1.6161-.774-3.727-1.28-5.05559-.0778-1.33091,1.2044-1.03271,3.3657-.38171,5.0384A18.97992,18.97992,0,0,0,434.238,435.9341" transform="translate(-27.804 -45.59607)" style="fill: #e8505b"/>
      <path d="M423.00539,424.6367a5.70521,5.70521,0,0,1,1.0265.4476,10.78281,10.78281,0,0,1,1.1598.6182c.4345.2714.9597.5364,1.4764.926a19.48872,19.48872,0,0,1,1.6893,1.2714,21.87938,21.87938,0,0,1,1.7979,1.6336,24.69126,24.69126,0,0,1,3.416,4.389,24.19344,24.19344,0,0,1,2.2505,5.0883,21.08218,21.08218,0,0,1,.5684,2.363,17.96687,17.96687,0,0,1,.2902,2.0953,16.44508,16.44508,0,0,1,.0805,1.7415,9.99982,9.99982,0,0,1-.039,1.3138,5.69664,5.69664,0,0,1-.1243,1.1128c-.09459-.0036.0699-1.5977-.2119-4.1378a19.20578,19.20578,0,0,0-.3362-2.0584,22.16441,22.16441,0,0,0-.5963-2.316,25.166,25.166,0,0,0-2.2411-4.9871,25.705,25.705,0,0,0-3.3332-4.335,23.00977,23.00977,0,0,0-1.745-1.637c-.5547-.5069-1.1258-.9112-1.6363-1.2952C424.41949,425.3812,422.96309,424.718,423.00539,424.6367Z" transform="translate(-27.804 -45.59607)" style="fill: #263238"/>
    </g>
  </g>
  <g id="Character">
    <g>
      <g>
        <g>
          <path d="M367.16229,231.2094s-46.6914-33.0883-52.6041-36.342c-5.6327-3.0995-23.4956-5.3519-25.1023-5.7415l-31.9884-6.9554-48.8774,1.4612-14.0203,8.4304-35.4736,16.3394a42.05154,42.05154,0,0,0-21.32209,22.2581l-22.4052,54.7103,55.58789,16.4425,1.7298,57.71L159.576,450.4434H322.29849l-8.1876-174.2571,16.9392,3.7289Z" transform="translate(-27.804 -45.59607)" style="fill: #263238"/>
          <path d="M171.98949,278.5678s-.58449.4309-1.71949,1.089a14.19656,14.19656,0,0,1-5.19531,1.9027,19.38643,19.38643,0,0,1-8.1123-1.176,58.51683,58.51683,0,0,1-9.24119-4.0185c-3.1724-1.6511-6.1382-3.3245-8.924-4.6693a49.50487,49.50487,0,0,0-7.6174-3.0437,29.57223,29.57223,0,0,0-5.416-1.1016c-.6504-.0681-1.1569-.1027-1.5013-.114-.344-.0189-.5248-.0395-.5248-.0395a15.36978,15.36978,0,0,1,2.0338.0728,28.16336,28.16336,0,0,1,5.4495,1.0409,48.34751,48.34751,0,0,1,7.6597,3.0123c2.7976,1.3388,5.7687,3.0086,8.9365,4.6573a59.48655,59.48655,0,0,0,9.20369,4.0204,19.43138,19.43138,0,0,0,8.0355,1.2128,14.45845,14.45845,0,0,0,5.1739-1.8273c.57071-.3192,1.00971-.575,1.3024-.757C171.82839,278.652,171.98949,278.5678,171.98949,278.5678Z" transform="translate(-27.804 -45.59607)" style="fill: #fff"/>
          <path d="M169.61879,251.6118s-.12779.0058-.3701-.0035c-.30469-.0146-.6532-.0312-1.0596-.0506-.9202-.0433-2.2499-.1449-3.8893-.3073a102.32122,102.32122,0,0,1-25.03349-5.7597c-1.5454-.5704-2.7857-1.0601-3.6322-1.4233-.3739-.1601-.6946-.2974-.975-.4174-.222-.0976-.3344-.1586-.3344-.1586s.1234.0348.3505.1198c.2844.1095.6098.2349.9892.381.8552.3399,2.1023.8081,3.652,1.36a110.45851,110.45851,0,0,0,24.999,5.7518c1.6351.1808,2.9615.3047,3.8793.3728.4052.0343.7527.0638,1.0564.0896C169.49259,251.5892,169.61879,251.6118,169.61879,251.6118Z" transform="translate(-27.804 -45.59607)" style="fill: #fff"/>
          <path d="M204.58649,194.8674a21.12187,21.12187,0,0,1-1.29649,1.8224,25.5214,25.5214,0,0,1-4.33571,4.283,38.39692,38.39692,0,0,1-7.7567,4.6416,78.80929,78.80929,0,0,1-10.4044,3.7966c-3.7683,1.1147-7.3768,2.1048-10.6066,3.1695a61.99445,61.99445,0,0,0-8.3783,3.3445,36.95819,36.95819,0,0,0-5.2207,3.114c-.5968.4017-1.0147.7746-1.3219.9962-.3003.2308-.465.344-.465.344s.5885-.5386,1.7391-1.4057a35.11,35.11,0,0,1,5.2024-3.1801,60.44645,60.44645,0,0,1,8.3842-3.3951c3.23261-1.0767,6.8425-2.0732,10.6074-3.1869a80.37809,80.37809,0,0,0,10.3837-3.7714,38.90742,38.90742,0,0,0,7.7461-4.5833,26.42732,26.42732,0,0,0,4.3633-4.2178c.4776-.5382.768-1.0188,1.00611-1.3134C204.45889,195.0215,204.58649,194.8674,204.58649,194.8674Z" transform="translate(-27.804 -45.59607)" style="fill: #fff"/>
          <path d="M304.63609,202.3241s-.1495-.0737-.423-.231c-.2764-.1521-.6665-.4063-1.2024-.6741a30.60879,30.60879,0,0,0-4.6445-2.0122,51.532,51.532,0,0,0-7.2743-1.8665c-2.7805-.5311-5.8686-.9423-9.1072-1.3958-6.4401-.9117-12.2662-1.7365-16.5865-2.3481-2.05919-.3014-3.7555-.5497-5.023-.7352-.5423-.0836-.9923-.153-1.36419-.2103-.31161-.0504-.47371-.0874-.47371-.0874s.1661.0088.4795.0458c.3733.0468.8251.1034,1.3696.1716,1.2698.169,2.9692.3951,5.0322.6696,4.3225.5959,10.1515,1.3995,16.5949,2.2877,3.2378.4534,6.3287.8707,9.11451,1.4136a50.02277,50.02277,0,0,1,7.287,1.916,28.79416,28.79416,0,0,1,4.63449,2.0801A18.509,18.509,0,0,1,304.63609,202.3241Z" transform="translate(-27.804 -45.59607)" style="fill: #fff"/>
          <path d="M281.97419,213.3619s-.37019.1736-1.0836.4859c-.7103.3197-1.7683.7663-3.142,1.3151-2.7488,1.0899-6.7632,2.5942-11.8419,4.0798a129.28119,129.28119,0,0,1-18.1348,4.0033c-6.9295,1.0634-14.6593,1.0646-22.7162.7968-8.0642-.2628-15.754-.6144-22.7318-.1749a70.1667,70.1667,0,0,0-18.1978,3.3207,45.01585,45.01585,0,0,0-11.1929,5.4892c-1.1971.8647-2.12019,1.5465-2.70419,2.0616-.59941.496-.92161.7487-.92161.7487s.3032-.2739.8945-.7808c.576-.5262,1.4924-1.2193,2.685-2.0961a44.42077,44.42077,0,0,1,11.1919-5.5621,69.80952,69.80952,0,0,1,18.2335-3.3728c6.9906-.4508,14.6888-.1043,22.7499.1582,8.0561.2677,15.7664.2721,22.683-.7785a130.96457,130.96457,0,0,0,18.1201-3.9546c5.0789-1.466,9.0974-2.9479,11.8535-4.0139,1.3774-.5369,2.4399-.9712,3.15521-1.2783C281.59249,213.5095,281.97419,213.3619,281.97419,213.3619Z" transform="translate(-27.804 -45.59607)" style="fill: #fff"/>
          <path d="M297.31539,223.1438a.7.7,0,0,1-.1787.0815c-.16869.0625-.3423.127-.5263.1952-.4568.1705-1.1291.3858-1.9668.6289a26.1743,26.1743,0,0,1-6.7287,1.03,23.33709,23.33709,0,0,1-6.7368-.9676c-.8352-.253-1.504-.4802-1.9557-.6642-.1821-.073-.354-.1419-.521-.2089a.09889.09889,0,1,1,.0148-.0393l.5335.1719c.4591.1601,1.1325.3652,1.9684.5987a24.88742,24.88742,0,0,0,6.6947.901,28.20226,28.20226,0,0,0,6.69221-.9637c.83919-.224,1.51619-.4172,1.98009-.5638l.53791-.1579A.70537.70537,0,0,1,297.31539,223.1438Z" transform="translate(-27.804 -45.59607)" style="fill: #fff"/>
          <path d="M265.76889,251.4361s-4.7958,1.0131-12.6307,2.1812c-3.9163.59-8.5971,1.1748-13.8079,1.694-5.2132.4931-10.95729.9092-16.9965,1.1387-6.0421.2089-11.8026.2103-17.0386.0963-5.2355-.1402-9.9467-.3842-13.8954-.6888-7.8989-.5973-12.7546-1.26-12.7546-1.26s.306.0183.8863.0733q.9375.0927,2.5371.2507c2.2013.2334,5.3936.5102,9.3418.789,3.948.2857,8.657.5143,13.8893.6439,5.2327.1034,10.9888.0962,17.0265-.1125,6.03481-.2294,11.775-.6394,16.9857-1.1217,5.2084-.5084,9.8882-1.0776,13.80511-1.6486,3.91759-.5643,7.08169-1.0717,9.26059-1.4641q1.5837-.2736,2.5126-.434C265.465,251.4766,265.76889,251.4361,265.76889,251.4361Z" transform="translate(-27.804 -45.59607)" style="fill: #fff"/>
          <path d="M304.93419,248.5981s-.125.0156-.3633.0249c-.3008.0088-.6438.0189-1.0427.0306-.9056.025-2.2165.0384-3.8365.0351-3.2393-.0087-7.7182-.126-12.6459-.5484-4.929-.4271-9.3617-1.0898-12.54979-1.6657-1.59421-.2887-2.88081-.5408-3.76581-.7342-.3898-.0855-.7249-.1589-1.0189-.2234-.2324-.0533-.3522-.0917-.3522-.0917s.1256.0106.3607.0506c.296.0533.6335.1142,1.02621.1849.98949.1753,2.25689.3998,3.77509.6687,3.1917.5382,7.6207,1.1767,12.5427,1.6032,4.9205.4218,9.3926.5623,12.6293.6087,1.542.0125,2.8293.023,3.8343.0311.399.0033.7421.0061,1.0429.0085C304.80879,248.5852,304.93419,248.5981,304.93419,248.5981Z" transform="translate(-27.804 -45.59607)" style="fill: #fff"/>
          <path d="M254.97579,289.8241s-.2812.0512-.8199.1285q-.87915.1224-2.3584.3282c-1.0237.1481-2.2774.3213-3.7442.4152-1.4652.0996-3.1288.3068-4.9787.3367-1.8479.0634-3.872.1659-6.0467.1288-1.0871-.0077-2.21189.0073-3.3697-.0199q-1.737-.05685-3.5704-.1168c-4.88479-.1978-10.2483-.5673-15.8665-1.0588-5.6219-.4729-10.9732-.9633-15.8488-1.2861-4.8754-.3037-9.27349-.5077-12.96749-.4546q-1.383.0087-2.635.0166-1.24337.06135-2.34711.1159c-1.4663.0624-2.7285.1279-3.7541.2573q-1.48605.147-2.3677.2343c-.5417.0513-.8278.0677-.8278.0677s.2822-.0445.8225-.1093q.88155-.102,2.36521-.2734c1.02559-.1419,2.28819-.2193,3.75559-.2929q1.10355-.0621,2.3495-.132,1.25175-.01485,2.6377-.0314c3.6986-.0721,8.1017.1169,12.9813.4103,4.8796.3125,10.2327.7973,15.8537,1.27,5.6175.4915,10.9765.8665,15.8567,1.0747q1.82985.06435,3.5668.1254c1.1565.0304,2.2799.0188,3.3658.0302,2.1725.0447,4.194-.0492,6.0402-.1031,1.8484-.0205,3.5103-.2172,4.975-.3056,1.4662-.0828,2.71971-.2441,3.7442-.3796q1.4826-.18165,2.3621-.2894C254.69009,289.8472,254.97579,289.8241,254.97579,289.8241Z" transform="translate(-27.804 -45.59607)" style="fill: #fff"/>
          <path d="M313.84969,278.0842s-.15169.028-.4428.0612c-.3525.0375-.7724.0821-1.274.1353-1.1064.1176-2.7111.2528-4.6962.3868-3.9695.271-9.4695.4668-15.5411.3104-6.0734-.1628-11.5561-.6474-15.5059-1.1265-1.9753-.2381-3.5705-.4573-4.6691-.6329-.4981-.0795-.915-.146-1.265-.202-.2888-.0484-.4389-.0844-.4389-.0844s.15431.0079.4451.0429c.3514.0452.77.099,1.2701.1633,1.1017.1507,2.6988.3476,4.6746.5668,3.951.4413,9.4284.902,15.4946,1.0645,6.0643.1562,11.5578-.016,15.5265-.2491,1.9846-.1152,3.59-.2278,4.6981-.3206.5029-.0379.9238-.0696,1.2772-.0963C313.69509,278.0839,313.84969,278.0842,313.84969,278.0842Z" transform="translate(-27.804 -45.59607)" style="fill: #fff"/>
          <path d="M314.55819,314.4244s-.5037-.0228-1.4606-.0864c-.9579-.046-2.3655-.2001-4.1865-.2486-3.6373-.1858-8.9136-.2283-15.4175.0943-6.5054.3108-14.2264,1.0882-22.76359,2.2128-8.53931,1.1132-17.89621,2.576-27.75631,3.8462a241.8971,241.8971,0,0,1-27.9429,2.1272,128.33171,128.33171,0,0,1-22.8099-1.6539,91.129,91.129,0,0,1-14.9505-3.7725c-.8701-.2723-1.6253-.5628-2.2751-.8279q-.96705-.382-1.6504-.6522c-.8915-.3537-1.3554-.5493-1.3554-.5493s.4749.1693,1.371.5104q.6858.262,1.65651.6332c.65159.2587,1.40839.543,2.27969.8091a93.01827,93.01827,0,0,0,14.9486,3.7039,129.338,129.338,0,0,0,22.7836,1.6072,244.24578,244.24578,0,0,0,27.9184-2.1418c9.8559-1.2696,19.214-2.7267,27.7579-3.8299,8.5416-1.1146,16.26981-1.8774,22.7811-2.1696a152.75351,152.75351,0,0,1,15.4286-.0282C312.55349,314.2093,314.55819,314.4244,314.55819,314.4244Z" transform="translate(-27.804 -45.59607)" style="fill: #fff"/>
          <path d="M259.57019,351.7581s-4.80819.8197-12.6457,1.6575c-3.9176.4272-8.596.8085-13.798,1.106-5.20349.2683-10.9317.4359-16.9451.4036-6.0155-.0537-11.7419-.3031-16.9419-.6459-5.1981-.3718-9.8707-.8201-13.7818-1.3032-7.82469-.9498-12.61969-1.838-12.61969-1.838s.30329.0324.87749.114q.92805.13575,2.51.367c1.0888.1667,2.422.3627,3.9748.5553,1.552.1975,3.3155.4522,5.2746.6554,3.9112.4642,8.5824.897,13.7776,1.258,5.1971.332,10.9194.5754,16.9303.6291,6.009.0322,11.733-.1294,16.9335-.387,5.199-.2867,9.8756-.6526,13.793-1.0608,1.9618-.1752,3.7289-.4047,5.28371-.5799,1.55549-.1705,2.89149-.3473,3.98259-.4985q1.585-.20865,2.51541-.3311C259.26639,351.7861,259.57019,351.7581,259.57019,351.7581Z" transform="translate(-27.804 -45.59607)" style="fill: #fff"/>
          <path d="M313.95579,344.5994s-.1811.0671-.53179.1755c-.40691.1231-.91511.2767-1.53681.4647-1.3345.404-3.2763.9528-5.6847,1.597-4.8158,1.2915-11.5216,2.8917-19.0061,4.2674-7.4883,1.3695-14.32639,2.2521-19.2871,2.7531-2.48029.2521-4.4904.4278-5.8812.5235-.6479.0448-1.1774.0814-1.6014.1107-.3663.0231-.5594.0245-.5594.0245s.191-.0298.5561-.0663c.4231-.0396.9515-.0891,1.598-.1497,1.3883-.1205,3.3955-.3185,5.8724-.5891,4.954-.5382,11.7829-1.4432,19.265-2.8116,7.4784-1.3746,14.1835-2.9507,19.0063-4.2049,2.4118-.6257,4.3588-1.1527,5.6998-1.5326.626-.1727,1.1376-.3139,1.5473-.4269C313.76659,344.6392,313.95579,344.5994,313.95579,344.5994Z" transform="translate(-27.804 -45.59607)" style="fill: #fff"/>
          <path d="M221.42349,393.4538a72.6623,72.6623,0,0,1-7.78249.7641c-2.41391.1364-5.29591.1466-8.48991.0098a87.896,87.896,0,0,1-20.4736-3.4269c-3.065-.9107-5.7867-1.859-8.02449-2.774a72.68041,72.68041,0,0,1-7.109-3.2564s.17469.0681.49819.2159c.3755.1746.8415.3912,1.4101.6555.6086.2923,1.3574.6406,2.2442,1.0062.8842.3708,1.8772.8261,3.0107,1.2418,2.2411.896,4.9624,1.8279,8.0236,2.7267a90.08789,90.08789,0,0,0,20.4299,3.4195c3.1866.147,6.0629.1521,8.4736.0347,1.2071-.024,2.2943-.1311,3.2511-.1938.95761-.0569,1.779-.1423,2.4497-.2205.6237-.0648,1.135-.1178,1.547-.1606C221.23609,393.4614,221.42349,393.4538,221.42349,393.4538Z" transform="translate(-27.804 -45.59607)" style="fill: #fff"/>
          <path d="M317.62329,390.9033s-.3414.0668-.9946.174c-.6944.1114-1.6495.2647-2.8588.4588-2.4827.3988-6.08089.9402-10.5318,1.5754-8.9013,1.2734-21.2258,2.8499-34.87909,4.207-13.65881,1.351-26.05411,2.2253-35.03211,2.7246-4.4891.2512-8.1232.4269-10.6355.5234-1.2238.0471-2.1903.0843-2.8929.1114-.66149.0232-1.0092.0247-1.0092.0247s.3465-.0299,1.0074-.0666c.7021-.0366,1.6679-.0869,2.8909-.1505,2.5535-.1416,6.1742-.3424,10.6307-.5894,8.9743-.5369,21.36471-1.4342,35.0201-2.7849,13.65-1.3567,25.9742-2.9097,34.8792-4.1456,4.4182-.6328,8.0082-1.147,10.54-1.5096,1.2119-.1777,2.1689-.3182,2.8647-.4202C317.27749,390.942,317.62329,390.9033,317.62329,390.9033Z" transform="translate(-27.804 -45.59607)" style="fill: #fff"/>
          <path d="M322.86429,427.7324s-2.1866.4558-6.172,1.1075c-3.9851.6471-9.7771,1.4589-16.97429,2.0559a221.37536,221.37536,0,0,1-25.34711.62c-9.5468-.3064-20.0003-1.3713-30.931-2.7131-10.936-1.3383-21.346-2.6936-30.8614-3.437a198.84177,198.84177,0,0,0-25.3257-.5628,126.62281,126.62281,0,0,0-16.96579,1.9393c-1.98161.3807-3.51551.6995-4.54771.9526-1.0359.2364-1.5826.3502-1.5826.3502s.5398-.1414,1.5729-.3911c1.0295-.2664,2.5615-.5981,4.5423-.9914a123.73688,123.73688,0,0,1,16.9734-2.0067,196.74881,196.74881,0,0,1,25.3483.5185c9.5227.7335,19.9371,2.0835,30.87141,3.4217,10.92919,1.3416,21.37469,2.4113,30.91239,2.7279a224.06077,224.06077,0,0,0,25.3288-.5749c7.1939-.5779,12.9859-1.3669,16.9734-1.9893,1.993-.3187,3.5399-.571,4.5856-.7607C322.31229,427.8174,322.86429,427.7324,322.86429,427.7324Z" transform="translate(-27.804 -45.59607)" style="fill: #fff"/>
          <path d="M352.19559,222.2571s-.2894.794-.9385,2.1754a40.03655,40.03655,0,0,1-3.2659,5.5734,72.20711,72.20711,0,0,1-6.0204,7.4541c-2.4173,2.6784-5.1991,5.5041-8.0221,8.556a73.28764,73.28764,0,0,0-7.29669,9.1479,38.28266,38.28266,0,0,0-4.297,8.5083,26.33054,26.33054,0,0,0-1.38521,6.2755c-.1031.7553-.0694,1.3497-.1039,1.7494-.0173.4008-.037.6117-.037.6117a21.74084,21.74084,0,0,1,.06011-2.368,25.5451,25.5451,0,0,1,1.32659-6.3163,37.87056,37.87056,0,0,1,4.2759-8.5658,72.16855,72.16855,0,0,1,7.304-9.1838c2.8266-3.0558,5.6116-5.8764,8.0331-8.5439a74.19827,74.19827,0,0,0,6.0417-7.4092,42.18806,42.18806,0,0,0,3.3139-5.5248c.3584-.6727.5682-1.2276.7461-1.5874C352.09769,222.4449,352.19559,222.2571,352.19559,222.2571Z" transform="translate(-27.804 -45.59607)" style="fill: #fff"/>
          <path d="M306.13829,239.487s.1133-.0913.33971-.248c.27889-.1896.60669-.4125.99539-.6766.8723-.5744,2.1025-1.456,3.5834-2.5923,1.4869-1.1299,3.1885-2.564,5.0031-4.2367a69.40732,69.40732,0,0,0,10.3953-12.1961c1.3643-2.057,2.51081-3.9645,3.3909-5.6115.8873-1.6423,1.5628-2.9964,1.9917-3.9487.19921-.4255.3673-.7844.5103-1.0899.1188-.2482.191-.3745.191-.3745a53.93433,53.93433,0,0,1-2.5633,5.4828c-.8653,1.6595-2.0016,3.5798-3.361,5.6484a67.2577,67.2577,0,0,1-10.4243,12.2302c-1.8269,1.6697-3.5428,3.0958-5.0443,4.2131A53.96954,53.96954,0,0,1,306.13829,239.487Z" transform="translate(-27.804 -45.59607)" style="fill: #fff"/>
          <g>
            <g>
              <path d="M234.67,286.2508a1.06327,1.06327,0,0,1,.24109-.1114c.1895-.0731.4268-.1649.7215-.2787.6437-.2179,1.5598-.6237,2.7279-1.1642a35.95286,35.95286,0,0,0,8.8491-6.2926,70.11193,70.11193,0,0,0,10.13241-12.57,177.92112,177.92112,0,0,0,9.87369-17.2039,298.74093,298.74093,0,0,0,14.0194-33.2212c1.577-4.3411,2.7991-7.8742,3.655-10.3118.419-1.1908.7493-2.1292.9876-2.8065.1098-.2965.19831-.5353.2689-.726a1.04281,1.04281,0,0,1,.1079-.2419,1.05568,1.05568,0,0,1-.0593.2581c-.05819.1947-.1311.4387-.2217.7417-.2168.6845-.5173,1.6332-.89849,2.8369-.79931,2.4573-1.97081,6.009-3.50611,10.3686a277.91943,277.91943,0,0,1-13.9061,33.3286,172.08532,172.08532,0,0,1-9.9351,17.2313A68.87273,68.87273,0,0,1,247.452,278.6625a34.8264,34.8264,0,0,1-9.00771,6.2101,25.53,25.53,0,0,1-2.7781,1.0834c-.3021.0949-.5453.1713-.7394.2322A1.02865,1.02865,0,0,1,234.67,286.2508Z" transform="translate(-27.804 -45.59607)" style="fill: #455a64"/>
              <path d="M232.99529,307.4097a3.53005,3.53005,0,0,1,.5464-.416c.4102-.2834.9465-.654,1.6147-1.1156,1.3973-.9752,3.407-2.4033,5.8227-4.2575,4.8514-3.6857,11.21691-9.197,18.06491-15.4911,3.43439-3.14,6.72429-6.1086,9.56889-8.9543a74.074,74.074,0,0,0,7.0549-8.0066,44.24414,44.24414,0,0,0,3.8614-6.0657c.4177-.7421.67881-1.3496.8853-1.7481a3.54807,3.54807,0,0,1,.3288-.6029,3.49576,3.49576,0,0,1-.2365.644c-.1772.4127-.4109,1.036-.80379,1.7953a39.93588,39.93588,0,0,1-3.74971,6.1873,70.38543,70.38543,0,0,1-7.0129,8.1223c-2.8392,2.876-6.1251,5.8594-9.5586,8.9988a236.81118,236.81118,0,0,1-18.189,15.4036c-2.4491,1.8227-4.49479,3.2099-5.92779,4.1368-.71561.465-1.28511.8047-1.66861,1.0386A3.53246,3.53246,0,0,1,232.99529,307.4097Z" transform="translate(-27.804 -45.59607)" style="fill: #455a64"/>
              <path d="M206.01389,414.3183a.97018.97018,0,0,1,.1196-.2253c.104-.1678.2333-.3765.3934-.6346.35211-.5538.8919-1.3575,1.61311-2.3746,1.44879-2.0292,3.67959-4.8717,6.62359-8.218,5.9252-6.6556,14.229-15.7273,23.3779-25.7739,9.1714-10.0076,17.4721-19.0651,23.5124-25.6559,3.0058-3.2442,5.4474-5.8795,7.1675-7.736q1.2501-1.3254,1.9674-2.0861c.212-.2172.3833-.3928.5211-.534a.95914.95914,0,0,1,.1902-.1703.97628.97628,0,0,1-.1524.2049c-.128.15-.2872.3367-.4842.5675q-.68955.78075-1.898,2.1495c-1.6918,1.8822-4.0934,4.5541-7.0499,7.8434-6.0123,6.6163-14.2748,15.7086-23.4039,25.7548-9.1583,10.0117-17.4492,19.0751-23.4828,25.671-2.9727,3.3105-5.238,6.1095-6.7316,8.0986-.7436.9966-1.308,1.7808-1.6867,2.3156-.1767.2466-.3195.4459-.4343.6062A.96819.96819,0,0,1,206.01389,414.3183Z" transform="translate(-27.804 -45.59607)" style="fill: #455a64"/>
            </g>
            <path d="M299.36369,234.5908a9.31828,9.31828,0,0,1-.3762-1.5211,17.55977,17.55977,0,0,1-.3183-1.8111c-.0929-.7109-.235-1.5179-.2816-2.4208-.0753-.9008-.1479-1.8885-.1411-2.9523-.0418-1.0638.0299-2.1984.0823-3.3933a43.73346,43.73346,0,0,1,3.7404-15.0291c.5139-1.0803.9825-2.1162,1.5181-3.0363.4926-.9429,1.01971-1.7815,1.5086-2.5418.4642-.7758.9682-1.4219,1.3834-2.0064a17.57848,17.57848,0,0,1,1.13-1.4505,9.32042,9.32042,0,0,1,1.0451-1.1671,9.39408,9.39408,0,0,1-.8911,1.2868c-.3048.399-.6699.8924-1.0554,1.4929-.3908.596-.8706,1.2509-1.3118,2.0325-.4656.7661-.9706,1.6073-1.4426,2.5499-.5149.9197-.9646,1.9524-1.4618,3.0264a45.87209,45.87209,0,0,0-3.7023,14.8761c-.0642,1.1816-.1511,2.3043-.1273,3.358-.025,1.054.0267,2.0337.079,2.9286.0234.8973.1402,1.7007.206,2.4105.0591.711.1503,1.318.2326,1.8135A9.41528,9.41528,0,0,1,299.36369,234.5908Z" transform="translate(-27.804 -45.59607)" style="fill: #455a64"/>
            <path d="M313.914,270.4672a94.9423,94.9423,0,0,1-4.02031-8.8783,94.90633,94.90633,0,0,1-3.5589-9.0739,94.9618,94.9618,0,0,1,4.0206,8.879A94.942,94.942,0,0,1,313.914,270.4672Z" transform="translate(-27.804 -45.59607)" style="fill: #455a64"/>
            <path d="M170.95679,238.7647c-.0772.0419-.8551-1.3892-2.3269-3.5571a49.9629,49.9629,0,0,0-14.575-14.1452c-2.211-1.4062-3.6644-2.1407-3.62489-2.2191a5.02269,5.02269,0,0,1,1.05869.4401c.6712.3061,1.615.8074,2.752,1.4774a44.28291,44.28291,0,0,1,14.6852,14.252c.7037,1.1165,1.23311,2.0449,1.5592,2.7067A5.02977,5.02977,0,0,1,170.95679,238.7647Z" transform="translate(-27.804 -45.59607)" style="fill: #455a64"/>
          </g>
        </g>
        <g>
          <path d="M210.247,215.12a3.30748,3.30748,0,0,1-.00991-1.0303,8.10265,8.10265,0,0,1,.6088-2.4132,7.86648,7.86648,0,0,1,1.68411-2.5381l.05579-.0542.0279.0668a1.538,1.538,0,0,1,.1536.4393,1.54416,1.54416,0,0,1-.2458-.3952l.0836.0126a10.03337,10.03337,0,0,0-1.5672,2.5495A12.62945,12.62945,0,0,0,210.247,215.12Z" transform="translate(-27.804 -45.59607)" style="fill: #455a64"/>
          <path d="M223.48649,221.9811a3.45637,3.45637,0,0,1-.20549-.9974,9.41505,9.41505,0,0,1,.74959-4.82,3.45716,3.45716,0,0,1,.4987-.8878,12.49808,12.49808,0,0,0-1.0428,6.7052Z" transform="translate(-27.804 -45.59607)" style="fill: #455a64"/>
          <path d="M237.92049,220.8413a10.8575,10.8575,0,0,0-1.467-5.3611,2.47267,2.47267,0,0,1,.4977.6711,7.62614,7.62614,0,0,1,1.056,3.859A2.47367,2.47367,0,0,1,237.92049,220.8413Z" transform="translate(-27.804 -45.59607)" style="fill: #455a64"/>
          <path d="M250.53759,215.3116a11.37139,11.37139,0,0,0-3.6019-4.611,2.70484,2.70484,0,0,1,.7524.4541,8.11253,8.11253,0,0,1,2.5911,3.3169A2.70426,2.70426,0,0,1,250.53759,215.3116Z" transform="translate(-27.804 -45.59607)" style="fill: #455a64"/>
          <path d="M259.22859,206.742a5.56391,5.56391,0,0,0-4.674-4.035c.0005-.0144.0937-.0201.2637-.0181a3.3708,3.3708,0,0,1,.7135.0927,4.98731,4.98731,0,0,1,3.4803,3.0044,3.36864,3.36864,0,0,1,.1958.6924C259.23479,206.6463,259.24269,206.7393,259.22859,206.742Z" transform="translate(-27.804 -45.59607)" style="fill: #455a64"/>
          <path d="M263.877,190.9084a5.60449,5.60449,0,0,0-5.53781-1.0218,4.58279,4.58279,0,0,1,5.53781,1.0218Z" transform="translate(-27.804 -45.59607)" style="fill: #455a64"/>
          <path d="M201.56909,204.451a2.37973,2.37973,0,0,1,.2103-.8561,5.741,5.741,0,0,1,2.834-3.0818,2.37705,2.37705,0,0,1,.8354-.2811,7.0203,7.0203,0,0,0-3.8797,4.219Z" transform="translate(-27.804 -45.59607)" style="fill: #455a64"/>
          <path d="M198.40909,193.9128a2.87275,2.87275,0,0,1,.497-.8076,7.33377,7.33377,0,0,1,3.7493-2.5353,2.87547,2.87547,0,0,1,.9345-.1605,9.32271,9.32271,0,0,0-5.1808,3.5034Z" transform="translate(-27.804 -45.59607)" style="fill: #455a64"/>
        </g>
        <path d="M173.55349,255.3662c-.00749.0135-.0459-.0532-.067.0094a1.36178,1.36178,0,0,0-.0823.3285c-.0516.3032-.1068.757-.1647,1.3433-.1157,1.1729-.249,2.8752-.3918,4.9808-.2864,4.2111-.6165,10.0347-.9295,16.4689-.3133,6.4365-.5449,12.2652-.6877,16.4847-.0673,2.047-.1227,3.7342-.1642,4.9975-.02229.5393-.0408.9875-.0562,1.3591a1.65684,1.65684,0,0,1-.0533.474,1.656,1.656,0,0,1-.0516-.4742c-.0114-.3719-.0251-.8207-.0416-1.3606-.0217-1.1816-.0267-2.8916-.0013-5.0042.04871-4.2254.2223-10.0608.53571-16.5016.31319-6.4385.70179-12.263,1.08259-16.4727.1901-2.1048.3796-3.8059.5578-4.9771a11.81526,11.81526,0,0,1,.26361-1.3417.98444.98444,0,0,1,.14289-.3379C173.54339,255.2535,173.56569,255.3887,173.55349,255.3662Z" transform="translate(-27.804 -45.59607)" style="fill: #263238"/>
      </g>
      <g>
        <g>
          <path d="M283.72679,53.3848c-8.3415-2.5503-17.0349,4.9151-25.5945,3.2382-5.1982-1.0183-9.1231-5.1711-13.74729-7.7544-6.91471-3.8628-16.69371-4.4861-23.75641-.9007-7.0624,3.5851-11.6143,7.4154-12.577,15.2773-6.4279-3.6893-17.1525,4.403-20.8055,12.2101s-2.7355,15.8794-.6624,24.2459a113.753,113.753,0,0,0,18.8117,40.0387c.7804,1.0577,2.02561,2.2278,3.2153,1.6693a2.87035,2.87035,0,0,0,1.23631-2.3063c1.22879-7.6519.25879-15.4597-.40321-23.1811-.662-7.7216-.9869-15.6817,1.4508-23.0382,2.4378-7.3562,8.1931-14.0662,15.7961-15.568,5.6156-1.1092,11.4492.7185,16.4409,3.5203,4.9918,2.802,9.3786,6.5514,14.1322,9.7411,4.7535,3.1895,10.0901,5.8784,15.8091,6.1271,5.719.2489,11.8534-2.448,14.2902-7.6278,2.43691-5.1801-.2966-12.5393-5.8964-13.7268a11.25182,11.25182,0,0,0,2.2601-21.9647Z" transform="translate(-27.804 -45.59607)" style="fill: #263238"/>
          <g>
            <g>
              <path d="M257.99989,187.5331l-.808-16.5592s21.823-4.1816,21.3246-26.1295c-.2409-10.5986-2.51249-32.38-4.7973-52.0722a40.90776,40.90776,0,0,0-42.0686-36.172l-2.1167.0742c-22.7784,2.1338-33.6915,22.6713-30.9282,45.382l5.2527,88.406a27.1107,27.1107,0,0,0,28.4969,25.4647h.0001A27.11064,27.11064,0,0,0,257.99989,187.5331Z" transform="translate(-27.804 -45.59607)" style="fill: #ffbe9d"/>
              <path d="M257.21739,170.9589s-13.8257,1.614-28.8865-7.1254c0,0,7.3143,15.5515,29.1366,12.808Z" transform="translate(-27.804 -45.59607)" style="fill: #eb996e"/>
            </g>
            <g>
              <g>
                <g>
                  <path d="M266.32579,107.6472a3.13474,3.13474,0,0,1-2.91,3.267,2.99871,2.99871,0,0,1-3.3285-2.7118,3.13585,3.13585,0,0,1,2.9066-3.2687A3.00094,3.00094,0,0,1,266.32579,107.6472Z" transform="translate(-27.804 -45.59607)" style="fill: #263238"/>
                  <path d="M269.37849,103.6614c-.374.4219-2.8087-1.2515-6.1804-1.1242-3.36909.0785-5.7824,1.8999-6.1624,1.4998-.1863-.1765.1835-.928,1.2332-1.7501a8.60161,8.60161,0,0,1,4.9159-1.706,8.25833,8.25833,0,0,1,4.9371,1.4048C269.18649,102.7447,269.56359,103.4714,269.37849,103.6614Z" transform="translate(-27.804 -45.59607)" style="fill: #263238"/>
                </g>
                <g>
                  <path d="M233.20789,109.9519a3.1347,3.1347,0,0,1-2.9103,3.2667,2.99784,2.99784,0,0,1-3.3285-2.7115,3.137,3.137,0,0,1,2.9074-3.2686A3.00046,3.00046,0,0,1,233.20789,109.9519Z" transform="translate(-27.804 -45.59607)" style="fill: #263238"/>
                  <path d="M236.26159,105.4522c-.3748.4221-2.813-1.2505-6.1817-1.1235-3.3684.0789-5.7824,1.8997-6.1627,1.4996-.1855-.1766.1804-.9273,1.2344-1.7495a8.60007,8.60007,0,0,1,4.9151-1.7069,8.27138,8.27138,0,0,1,4.9379,1.4048C236.06609,104.5362,236.44529,105.2628,236.26159,105.4522Z" transform="translate(-27.804 -45.59607)" style="fill: #263238"/>
                </g>
                <path d="M249.37389,130.0259c-.0227-.1912,2.0605-.627,5.4407-1.1802.8579-.1188,1.6667-.3186,1.7913-.9113a4.38727,4.38727,0,0,0-.6643-2.5317q-1.32388-3.0819-2.7757-6.4661c-3.8632-9.2095-6.6913-16.794-6.3195-16.9466.3728-.1521,3.8059,7.1888,7.6684,16.3983q1.39755,3.40755,2.6701,6.5091a4.98624,4.98624,0,0,1,.56511,3.3631,2.161,2.161,0,0,1-1.37121,1.3084,5.84658,5.84658,0,0,1-1.4551.2546C251.51259,130.127,249.39359,130.2169,249.37389,130.0259Z" transform="translate(-27.804 -45.59607)" style="fill: #263238"/>
                <path d="M239.53369,132.7058c.5472-.0512.6824,3.6082,3.9057,6.0955,3.2182,2.4962,7.10461,1.9486,7.1515,2.4592.0587.2276-.8442.7411-2.4891.8438a9.11947,9.11947,0,0,1-5.9622-1.8457,7.94275,7.94275,0,0,1-3.0403-5.1193C238.90609,133.6141,239.28229,132.6932,239.53369,132.7058Z" transform="translate(-27.804 -45.59607)" style="fill: #263238"/>
              </g>
              <path d="M235.99079,88.1659c-.3005.9282-3.68179.6119-7.6201,1.2274-3.9515.5363-7.1004,1.8061-7.654,1.0026-.2478-.3856.2781-1.2672,1.5367-2.1999a13.41573,13.41573,0,0,1,11.6363-1.6987C235.36239,87.0312,236.11879,87.7258,235.99079,88.1659Z" transform="translate(-27.804 -45.59607)" style="fill: #263238"/>
              <path d="M267.797,93.9473c-.56621.7866-2.91651.073-5.71081.1337-2.7957-.0373-5.1393.6955-5.7117-.0866-.2521-.3801.0928-1.1604,1.1009-1.9215a8.27156,8.27156,0,0,1,9.2041-.0379C267.69369,92.7873,268.04549,93.5647,267.797,93.9473Z" transform="translate(-27.804 -45.59607)" style="fill: #263238"/>
            </g>
          </g>
          <g>
            <path d="M200.967,118.2381c-.37971-.1486-15.23041-3.9298-14.22531,11.0522,1.0052,14.9817,15.8392,10.8823,15.83631,10.4508C202.575,139.3098,200.967,118.2381,200.967,118.2381Z" transform="translate(-27.804 -45.59607)" style="fill: #ffbe9d"/>
            <path d="M197.62089,134.3723c-.0693-.0434-.249.2002-.6767.4321a2.61533,2.61533,0,0,1-1.9479.1708c-1.6217-.4747-3.1231-2.898-3.3768-5.5934a8.64023,8.64023,0,0,1,.4797-3.7857,3.02267,3.02267,0,0,1,1.82881-2.1351,1.33126,1.33126,0,0,1,1.58819.6123c.2289.4052.1539.7105.2351.7311.0444.0347.30471-.2727.1424-.8834a1.66975,1.66975,0,0,0-.6524-.8991,1.97435,1.97435,0,0,0-1.4688-.2845,3.67569,3.67569,0,0,0-2.57049,2.5057,8.87688,8.87688,0,0,0-.62471,4.2365c.2986,3.0126,2.0334,5.7339,4.2412,6.2143a2.80128,2.80128,0,0,0,2.3606-.5564C197.61809,134.7361,197.67459,134.3959,197.62089,134.3723Z" transform="translate(-27.804 -45.59607)" style="fill: #eb996e"/>
          </g>
          <path d="M278.19919,88.0104a31.704,31.704,0,0,1-28.3704-5.3535c-5.4952-4.3383-9.841-10.6983-16.601-12.5222-4.5506-1.228-9.5179-.0803-13.56179,2.3418a34.454,34.454,0,0,0-9.99741,9.8573c4.6298,11.0008,2.2189,23.546-.2619,35.2207a5.96733,5.96733,0,0,1-1.6245,3.5217c-1.7266,1.4266-4.42019.4535-6.0237-1.1102-2.5666-2.5041-3.6559-6.1318-4.4121-9.637a61.746,61.746,0,0,1-.7085-24.334,42.0343,42.0343,0,0,1,10.8-21.6068,39.82154,39.82154,0,0,1,27.5426-11.5277,48.90247,48.90247,0,0,1,28.6984,9.1405c3.8772,2.7195,7.4782,6.0447,9.5828,10.2876" transform="translate(-27.804 -45.59607)" style="fill: #263238"/>
        </g>
        <path d="M290.21119,58.4497a3.21618,3.21618,0,0,1-.0895,1.3053,6.088,6.088,0,0,1-1.9873,3.1657,9.55085,9.55085,0,0,1-5.5395,2.0662,15.992,15.992,0,0,1-3.7294-.0993,7.972,7.972,0,0,1-3.8846-1.6371,5.29548,5.29548,0,0,1-2.0225-4.1689,4.66257,4.66257,0,0,1,3.05061-3.9402,5.77489,5.77489,0,0,1,2.68629-.4387,4.89681,4.89681,0,0,1,2.6161,1.0663,6.82377,6.82377,0,0,1,2.4178,5.1656,7.9078,7.9078,0,0,1-2.1717,5.5859,12.03668,12.03668,0,0,1-5.32649,3.2741c-4.11921,1.2902-8.72241.6612-12.865-.9442a56.4608,56.4608,0,0,1-11.32611-6.2907,71.64123,71.64123,0,0,0-10.2855-6.07,22.25132,22.25132,0,0,0-10.3938-2.1461,21.2664,21.2664,0,0,0-8.8928,2.619,26.563,26.563,0,0,0-9.6341,9.3932,34.70708,34.70708,0,0,0-1.7935,3.2537,10.33247,10.33247,0,0,1-.5887,1.1606,1.12181,1.12181,0,0,1,.095-.3188c.0768-.2049.1851-.513.3571-.9042a27.98425,27.98425,0,0,1,1.68241-3.3409,26.23506,26.23506,0,0,1,9.62679-9.7037,21.65807,21.65807,0,0,1,9.1093-2.7745A22.77,22.77,0,0,1,242.032,55.8629a71.20121,71.20121,0,0,1,10.41109,6.0898,56.365,56.365,0,0,0,11.1873,6.2025c4.0511,1.5686,8.4674,2.1603,12.3854.9431a11.34752,11.34752,0,0,0,5.0166-3.0564,7.21152,7.21152,0,0,0,2.01161-5.0892,6.16975,6.16975,0,0,0-2.13941-4.6717,4.51787,4.51787,0,0,0-4.6599-.5695,4.07593,4.07593,0,0,0-2.713,3.3972,4.76305,4.76305,0,0,0,1.7888,3.74,7.51772,7.51772,0,0,0,3.6227,1.5721,15.78106,15.78106,0,0,0,3.6195.1515,9.34981,9.34981,0,0,0,5.3848-1.8726,6.13273,6.13273,0,0,0,2.0293-2.9826A10.428,10.428,0,0,0,290.21119,58.4497Z" transform="translate(-27.804 -45.59607)" style="fill: #455a64"/>
        <path d="M185.02689,88.4672a24.82051,24.82051,0,0,0,4.6226,1.0291,12.89978,12.89978,0,0,0,5.0074-.6985,21.66975,21.66975,0,0,0,5.5292-2.9039,17.53692,17.53692,0,0,0,6.3692-9.1696,36.02457,36.02457,0,0,0,.8341-4.6813,3.867,3.867,0,0,1,.1235,1.2955,14.89813,14.89813,0,0,1-.4498,3.523,17.11342,17.11342,0,0,1-6.4395,9.6339,21.01467,21.01467,0,0,1-5.7553,2.9545,12.72158,12.72158,0,0,1-5.2647.5705,11.86979,11.86979,0,0,1-3.44-.9187A3.80276,3.80276,0,0,1,185.02689,88.4672Z" transform="translate(-27.804 -45.59607)" style="fill: #455a64"/>
        <path d="M186.06309,99.2992c.01591-.1371,1.7798.191,4.6037-.0674a20.58634,20.58634,0,0,0,17.0966-12.1842c1.1661-2.5848,1.4315-4.3587,1.5665-4.3289a3.6626,3.6626,0,0,1-.1162,1.2507,17.13719,17.13719,0,0,1-.9666,3.2848,19.87109,19.87109,0,0,1-17.543,12.502,17.15448,17.15448,0,0,1-3.4207-.1586A3.652,3.652,0,0,1,186.06309,99.2992Z" transform="translate(-27.804 -45.59607)" style="fill: #455a64"/>
        <path d="M225.56229,120.1787a.40862.40862,0,1,1,.268-.4814A.39078.39078,0,0,1,225.56229,120.1787Z" transform="translate(-27.804 -45.59607)" style="fill: #eb996e"/>
        <path d="M231.95209,118.4915a.47861.47861,0,1,1,.2546-.5396A.42732.42732,0,0,1,231.95209,118.4915Z" transform="translate(-27.804 -45.59607)" style="fill: #eb996e"/>
        <path d="M236.28569,118.2324c-.2028.0328-.4105-.2095-.4641-.5412s.0672-.6271.2702-.6598c.2026-.0328.4105.2096.4639.5412C236.60929,117.9042,236.48849,118.1996,236.28569,118.2324Z" transform="translate(-27.804 -45.59607)" style="fill: #eb996e"/>
        <path d="M228.87059,124.1106c-.2054.0073-.37559-.0934-.3801-.2248s.1581-.2436.3634-.2505c.2053-.0072.3755.0933.3799.2246C229.23849,123.9911,229.07559,124.1035,228.87059,124.1106Z" transform="translate(-27.804 -45.59607)" style="fill: #eb996e"/>
        <path d="M234.73009,122.5328a.42588.42588,0,1,1,.3177-.4644A.3994.3994,0,0,1,234.73009,122.5328Z" transform="translate(-27.804 -45.59607)" style="fill: #eb996e"/>
        <path d="M265.34519,117.7844a.42305.42305,0,1,1,.2654-.4943A.3982.3982,0,0,1,265.34519,117.7844Z" transform="translate(-27.804 -45.59607)" style="fill: #eb996e"/>
        <path d="M269.72059,117.2287a.48149.48149,0,1,1,.3065-.5138A.42867.42867,0,0,1,269.72059,117.2287Z" transform="translate(-27.804 -45.59607)" style="fill: #eb996e"/>
        <path d="M261.47189,118.0294a.32944.32944,0,1,1,.2867-.4036A.35187.35187,0,0,1,261.47189,118.0294Z" transform="translate(-27.804 -45.59607)" style="fill: #eb996e"/>
        <path d="M264.88029,122.3051a.43471.43471,0,1,1,.1473-.5493A.40412.40412,0,0,1,264.88029,122.3051Z" transform="translate(-27.804 -45.59607)" style="fill: #eb996e"/>
        <path d="M268.60339,121.4245a.31769.31769,0,1,1,.4337-.2195A.34663.34663,0,0,1,268.60339,121.4245Z" transform="translate(-27.804 -45.59607)" style="fill: #eb996e"/>
      </g>
      <g>
        <g>
          <path d="M261.17839,370.6366l-.2361-22.2272s-14.8349-20.5495-8.98129-42.8414c0,0,9.67229-6.802,35.59849-2.8141,0,0,32.5509-31.7108,76.1823-23.6476s47.6893,46.0845,48.1037,56.4336.3234,30.4482-14.6938,50.0967l-1.011,19.4997s-3.5762,7.3464-13.935,6.8473-9.7661-2.0279-9.7661-2.0279-12.9827,10.4914-13.56259,13.2382-2.60131,13.1218-2.60131,13.1218-4.5026,6.1382-14.2395,6.8506a21.00361,21.00361,0,0,1-11.1234-2.2805,10.97807,10.97807,0,0,1-5.5085-6.4627,22.82013,22.82013,0,0,0-12.2351-14.0935l-6.718-1.7558s-2.7145,2.465-12.1437,3.4787-9.4648-2.3357-9.4648-2.3357-14.66869,3.3924-25.696-10.9942C250.43719,397.3601,245.71449,376.8911,261.17839,370.6366Z" transform="translate(-27.804 -45.59607)" style="fill: #e8505b"/>
          <path d="M351.62469,371.9207a5.03666,5.03666,0,0,1,.4808-.6849c.3302-.4365.8232-1.075,1.4326-1.9163,1.2281-1.6744,2.9561-4.1369,4.8522-7.3268a84.391,84.391,0,0,0,5.7369-11.682c.90881-2.2759,1.7581-4.7075,2.5139-7.2638.7337-2.5298,1.3761-5.3076.7157-8.0148a11.38924,11.38924,0,0,0-4.8002-6.3062,34.04718,34.04718,0,0,0-6.7784-3.5211,45.15148,45.15148,0,0,0-12.5961-3.03,46.036,46.036,0,0,0-8.76409.0018c-1.033.0983-1.833.1965-2.37381.2783a5.03509,5.03509,0,0,1-.8325.0826,5.00436,5.00436,0,0,1,.8154-.1861c.5366-.1155,1.3345-.2465,2.36891-.3763a42.77307,42.77307,0,0,1,8.81839-.1672,44.48788,44.48788,0,0,1,12.7407,2.9509,34.09562,34.09562,0,0,1,6.8961,3.5505,11.857,11.857,0,0,1,5.011,6.597c.6966,2.8768.0113,5.7344-.7315,8.2843-.76769,2.5722-1.63169,5.0142-2.5582,7.2988a81.0904,81.0904,0,0,1-5.8664,11.6927,77.82285,77.82285,0,0,1-5.0063,7.2596c-.6359.8246-1.1554,1.4441-1.5125,1.8599A5.02042,5.02042,0,0,1,351.62469,371.9207Z" transform="translate(-27.804 -45.59607)" style="fill: #263238"/>
          <path d="M290.61729,303.7166a1.72911,1.72911,0,0,1,.1535.517,5.37812,5.37812,0,0,1,.0671,1.5482,8.73559,8.73559,0,0,1-2.4935,5.0494c-1.63739,1.8011-4.1168,3.2691-6.5332,5.2487a55.423,55.423,0,0,0-7.31019,7.0869,58.08133,58.08133,0,0,0-9.62311,15.7448c-.8935,2.1992-1.4908,4.0283-1.8842,5.2979-.17669.5907-.3218,1.0757-.439,1.4676a2.10486,2.10486,0,0,1-.18769.5041,2.07787,2.07787,0,0,1,.08589-.5296c.0923-.3998.2065-.8945.3457-1.4971a50.55,50.55,0,0,1,1.7371-5.3789,55.3309,55.3309,0,0,1,9.5705-15.9483,53.51427,53.51427,0,0,1,7.4055-7.1222c2.4691-1.9849,4.9462-3.4098,6.5661-5.1279a7.66347,7.66347,0,0,0,2.5395-6.8606Z" transform="translate(-27.804 -45.59607)" style="fill: #263238"/>
          <g style="opacity: 0.5">
            <path d="M308.05639,306.4412l13.2727,3.3889s19.4341-21.8415,40.77491-27.3628l-7.99361-1.8855A92.32073,92.32073,0,0,0,308.05639,306.4412Z" transform="translate(-27.804 -45.59607)"/>
          </g>
          <path d="M357.77209,281.4249a89.7103,89.7103,0,0,0-45.5962,26.0321l-4.1195-1.0158s18.8241-20.6555,46.054-25.8594Z" transform="translate(-27.804 -45.59607)" style="fill: #e8505b"/>
          <g style="opacity: 0.7000000000000001">
            <path d="M357.77209,281.4249a89.7103,89.7103,0,0,0-45.5962,26.0321l-4.1195-1.0158s18.8241-20.6555,46.054-25.8594Z" transform="translate(-27.804 -45.59607)"/>
          </g>
          <path d="M254.76669,375.1741c7.358-10.5242,25.7886-7.3089,34.20031,2.1579,8.28859,9.3283,12.14619,22.4819,6.67219,33.6958-2.3374,4.7883-6.8193,9.0154-12.1464,8.8988a25.00665,25.00665,0,0,0,5.6966-22.2459c-1.7128-7.8549-6.6565-14.7764-12.9162-19.8211-3.1749-2.5587-6.7411-5.3705-10.7988-5.7735s-7.3178-.5177-10.7077,3.088" transform="translate(-27.804 -45.59607)" style="fill: #e8505b"/>
          <g style="opacity: 0.30000000000000004">
            <path d="M254.76669,375.1741c7.358-10.5242,25.7886-7.3089,34.20031,2.1579,8.28859,9.3283,12.14619,22.4819,6.67219,33.6958-2.3374,4.7883-6.8193,9.0154-12.1464,8.8988a25.00665,25.00665,0,0,0,5.6966-22.2459c-1.7128-7.8549-6.6565-14.7764-12.9162-19.8211-3.1749-2.5587-6.7411-5.3705-10.7988-5.7735s-7.3178-.5177-10.7077,3.088" transform="translate(-27.804 -45.59607)"/>
          </g>
          <g style="opacity: 0.30000000000000004">
            <path d="M352.35759,371.3015a4.57872,4.57872,0,0,0,4.1122,4.4579,7.05932,7.05932,0,0,0,5.8895-2.5818,16.239,16.239,0,0,0,3.0022-5.9215c2.296-7.2049,3.4853-17.9616,2.2822-25.4272-3.1812,9.6728-8.8638,21.7305-15.4535,29.4931" transform="translate(-27.804 -45.59607)"/>
          </g>
          <g style="opacity: 0.30000000000000004">
            <path d="M359.329,338.0461c-1.43061-4.231-5.80911-6.6912-10.02691-8.1604a48.36054,48.36054,0,0,0-13.3347-2.6195,10.60309,10.60309,0,0,0-4.2455.4155,4.20591,4.20591,0,0,0-2.7946,3.0044,2.80841,2.80841,0,0,0,1.4219,2.8997,79.20079,79.20079,0,0,1,15.8696,28.8174,2.70287,2.70287,0,0,0,4.6395.992c3.4022-3.8765,5.36171-9.1058,7.1203-14.0697C359.26849,345.6849,360.56609,341.705,359.329,338.0461Z" transform="translate(-27.804 -45.59607)"/>
          </g>
          <g style="opacity: 0.30000000000000004">
            <path d="M263.71719,340.0004a42.34982,42.34982,0,0,1-6.7323-23.7415c.0379-1.7651.2545-3.6846,1.4869-4.9488,1.4921-1.5307,3.9064-1.5593,6.0398-1.4248a115.04779,115.04779,0,0,1,17.4922,2.4623c.4498.0991.9631.2522,1.14.6775a1.72625,1.72625,0,0,1-.3916,2.0119c-8.9541,5.4906-15.3008,15.5908-18.685,25.4736" transform="translate(-27.804 -45.59607)"/>
          </g>
          <path d="M252.56879,306.3615a8.434,8.434,0,0,1-.067,1.5103c-.0865.9662-.1723,2.3682-.2347,4.0989a66.809,66.809,0,0,0,.8791,13.4705,64.551,64.551,0,0,0,1.7254,7.2336,60.35247,60.35247,0,0,0,2.0711,5.7128c.675,1.5936,1.2629,2.8691,1.7017,3.7335a8.44089,8.44089,0,0,1,.61961,1.3787,8.37146,8.37146,0,0,1-.799-1.2843c-.49561-.8384-1.13711-2.0956-1.85991-3.6809a52.78349,52.78349,0,0,1-2.1917-5.7172,56.93693,56.93693,0,0,1-2.5142-20.8638c.1099-1.7382.2524-3.1413.4011-4.1035A8.38662,8.38662,0,0,1,252.56879,306.3615Z" transform="translate(-27.804 -45.59607)" style="fill: #fafafa"/>
          <path d="M353.32559,279.8605a2.18714,2.18714,0,0,1-.516.1875c-.3997.1166-.8964.2615-1.5027.4384-.6551.1793-1.4545.405-2.3723.7025-.919.2923-1.9754.5919-3.1172,1.0044-2.303.7641-5.0037,1.7948-7.9521,3.0542-2.9358,1.2886-6.112,2.8229-9.3451,4.6225-3.2228,1.8205-6.18919,3.7306-8.8203,5.5635-2.6127,1.859-4.9008,3.6259-6.754,5.1923-.9474.759-1.754,1.5041-2.4827,2.1357-.7325.6278-1.3419,1.1921-1.8365,1.6575-.4671.4249-.8498.7731-1.15769,1.0532a2.19446,2.19446,0,0,1-.429.3425,2.16661,2.16661,0,0,1,.35509-.417c.2902-.2992.65091-.6711,1.0912-1.125.4741-.4888,1.0648-1.0761,1.7808-1.7264.7122-.6541,1.5045-1.421,2.4402-2.2009,1.8296-1.6083,4.1045-3.4135,6.7149-5.3031a94.28915,94.28915,0,0,1,18.2541-10.2359c2.9733-1.2414,5.6998-2.2407,8.0263-2.963,1.1535-.3915,2.2212-.6676,3.1507-.9341.9284-.2717,1.7376-.4694,2.4021-.619.617-.1389,1.1224-.2527,1.5292-.3443A2.17,2.17,0,0,1,353.32559,279.8605Z" transform="translate(-27.804 -45.59607)" style="fill: #fafafa"/>
          <path d="M364.98709,332.7019c-.0767.0863-1.5894-1.4479-4.4882-3.298a35.88288,35.88288,0,0,0-5.3362-2.7905,41.46991,41.46991,0,0,0-7.0296-2.2178,43.14337,43.14337,0,0,0-13.342-.8022c-3.4228.3483-5.4916.9196-5.5169.8111a8.26065,8.26065,0,0,1,1.4416-.4291,31.044,31.044,0,0,1,4.0349-.748,40.30524,40.30524,0,0,1,13.4944.6597,39.45675,39.45675,0,0,1,7.1064,2.2852,33.2838,33.2838,0,0,1,5.3489,2.9234q.534.3642,1.0231.698.45526.36045.8664.686a13.84506,13.84506,0,0,1,1.3434,1.1475A8.26359,8.26359,0,0,1,364.98709,332.7019Z" transform="translate(-27.804 -45.59607)" style="fill: #fafafa"/>
          <path d="M275.54679,418.3117a1.76906,1.76906,0,0,1-.478-.1283c-.30479-.1078-.7656-.2413-1.3323-.4807a31.47927,31.47927,0,0,1-4.6656-2.323,34.28728,34.28728,0,0,1-16.6842-28.5679,31.47754,31.47754,0,0,1,.269-5.2046c.0699-.6112.18-1.0781.2359-1.3964a1.77172,1.77172,0,0,1,.1231-.4793,17.25043,17.25043,0,0,1-.1576,1.8982,37.31434,37.31434,0,0,0-.1025,5.1679,35.03933,35.03933,0,0,0,16.5095,28.2686,37.30631,37.30631,0,0,0,4.5517,2.45A17.26933,17.26933,0,0,1,275.54679,418.3117Z" transform="translate(-27.804 -45.59607)" style="fill: #fafafa"/>
          <g>
            <g style="opacity: 0.2">
              <path d="M278.16889,395.2052a4.24575,4.24575,0,0,0-4.482,1.1569,5.4922,5.4922,0,0,0-1.2698,4.5716,7.08326,7.08326,0,0,0,1.9111,4.1638,5.88022,5.88022,0,0,0,3.3042,1.6097,4.22481,4.22481,0,0,0,3.7094-2.3664,6.5693,6.5693,0,0,0-3.1729-9.1356" transform="translate(-27.804 -45.59607)"/>
            </g>
            <path d="M276.62409,395.0186a6.65187,6.65187,0,0,0,3.5498,10.7212,3.86249,3.86249,0,0,1-3.3668.893,6.90221,6.90221,0,0,1-4.6972-7.1249,5.27059,5.27059,0,0,1,1.447-3.375,4.55534,4.55534,0,0,1,3.0672-1.1143" transform="translate(-27.804 -45.59607)" style="fill: #e8505b"/>
            <g style="opacity: 0.4">
              <path d="M276.62409,395.0186a6.65187,6.65187,0,0,0,3.5498,10.7212,3.86249,3.86249,0,0,1-3.3668.893,6.90221,6.90221,0,0,1-4.6972-7.1249,5.27059,5.27059,0,0,1,1.447-3.375,4.55534,4.55534,0,0,1,3.0672-1.1143" transform="translate(-27.804 -45.59607)"/>
            </g>
          </g>
          <g>
            <g style="opacity: 0.2">
              <path d="M263.43329,389.5229a4.09553,4.09553,0,0,0-4.3235,1.116,5.29774,5.29774,0,0,0-1.22479,4.4099,6.83182,6.83182,0,0,0,1.84349,4.0165,5.67162,5.67162,0,0,0,3.1872,1.5528,4.07535,4.07535,0,0,0,3.57831-2.2827,6.337,6.337,0,0,0-3.06071-8.8125" transform="translate(-27.804 -45.59607)"/>
            </g>
            <path d="M261.94319,389.3429a6.41652,6.41652,0,0,0,3.4241,10.342,3.72582,3.72582,0,0,1-3.2476.8614,6.658,6.658,0,0,1-4.5311-6.8729,5.08317,5.08317,0,0,1,1.3959-3.2556,4.394,4.394,0,0,1,2.9587-1.0749" transform="translate(-27.804 -45.59607)" style="fill: #e8505b"/>
            <g style="opacity: 0.4">
              <path d="M261.94319,389.3429a6.41652,6.41652,0,0,0,3.4241,10.342,3.72582,3.72582,0,0,1-3.2476.8614,6.658,6.658,0,0,1-4.5311-6.8729,5.08317,5.08317,0,0,1,1.3959-3.2556,4.394,4.394,0,0,1,2.9587-1.0749" transform="translate(-27.804 -45.59607)"/>
            </g>
          </g>
          <g>
            <path d="M303.19189,361.3779c.07911-.0133-.07989.0101,0,0Z" transform="translate(-27.804 -45.59607)" style="fill: #263238"/>
            <g>
              <path d="M301.37079,361.9505c.0436-.0289.0985-.0392.144-.0658.0229-.011.0436-.0264.0666-.0371Z" transform="translate(-27.804 -45.59607)" style="fill: #263238"/>
              <path d="M308.92839,365.1248a5.66654,5.66654,0,0,0-2.5916-3.0455,6.66136,6.66136,0,0,0-3.0559-.7105l-.089.0091a3.90167,3.90167,0,0,0-1.6771.5068,7.24647,7.24647,0,0,0-4.005,5.8498,8.00789,8.00789,0,0,0,4.6044,7.5917,4.19073,4.19073,0,0,0,5.638-1.3431A9.02189,9.02189,0,0,0,308.92839,365.1248Z" transform="translate(-27.804 -45.59607)" style="fill: #263238"/>
            </g>
          </g>
          <g>
            <path d="M272.04029,351.7718c.0686-.0115-.0691.0088,0,0Z" transform="translate(-27.804 -45.59607)" style="fill: #263238"/>
            <g>
              <path d="M270.463,352.2678c.03779-.0251.08529-.034.12469-.057.0198-.0095.0378-.0228.0577-.0321Z" transform="translate(-27.804 -45.59607)" style="fill: #263238"/>
              <path d="M277.00909,355.0172a4.90828,4.90828,0,0,0-2.2448-2.6379,5.77063,5.77063,0,0,0-2.6469-.6154l-.0771.0079a3.379,3.379,0,0,0-1.4526.439,6.27675,6.27675,0,0,0-3.469,5.0669,6.93635,6.93635,0,0,0,3.9881,6.5756,3.63,3.63,0,0,0,4.8835-1.1634A7.81455,7.81455,0,0,0,277.00909,355.0172Z" transform="translate(-27.804 -45.59607)" style="fill: #263238"/>
            </g>
          </g>
          <path d="M279.02549,371.7062a2.90638,2.90638,0,0,1,.6221.128c.4078.089.9925.2759,1.7427.5312a23.42329,23.42329,0,0,1,5.8829,3.1948,26.38967,26.38967,0,0,1,6.7233,7.2978,30.80144,30.80144,0,0,1,4.1816,11.4017,36.1011,36.1011,0,0,1-.13909,12.1562,18.2809,18.2809,0,0,1-4.14691,8.9817,12.25664,12.25664,0,0,1-5.61809,3.5958,6.86622,6.86622,0,0,1-2.43311.3314,16.92193,16.92193,0,0,0,2.3739-.5252,12.44239,12.44239,0,0,0,5.40321-3.6479,18.16643,18.16643,0,0,0,3.94949-8.8251,36.3564,36.3564,0,0,0,.0964-11.9842,30.8415,30.8415,0,0,0-4.0752-11.2315,26.62655,26.62655,0,0,0-6.5368-7.2564,24.97506,24.97506,0,0,0-5.7344-3.3C279.85849,371.9738,279.01079,371.7587,279.02549,371.7062Z" transform="translate(-27.804 -45.59607)" style="fill: #263238"/>
          <path d="M269.45179,359.8763c-.0512.0387-.3101-.1798-.5772-.6501a4.34021,4.34021,0,0,1-.0122-4.0634c.2643-.472.5219-.6919.5732-.6535a6.71734,6.71734,0,0,0,.0162,5.367Z" transform="translate(-27.804 -45.59607)" style="fill: #fafafa"/>
          <path d="M299.59569,370.9255c-.053.0333-.3038-.2259-.5222-.7582a4.26932,4.26932,0,0,1,.7076-4.2313c.3798-.4322.7012-.5957.7405-.547a5.99745,5.99745,0,0,0-.9259,5.5365Z" transform="translate(-27.804 -45.59607)" style="fill: #fafafa"/>
          <path d="M318.57069,423.7725c-.0531.0764-1.2633-.7632-3.38-1.8203a63.43913,63.43913,0,0,0-8.5953-3.4019c-3.4423-1.1238-6.5903-2.0756-8.834-2.8768-1.12239-.398-2.0249-.7379-2.6367-1.0033a3.97826,3.97826,0,0,1-.9331-.4539c.0289-.0739,1.4168.4083,3.68541,1.1076,2.26579.7093,5.42449,1.6033,8.88169,2.7319a50.90346,50.90346,0,0,1,8.6029,3.5702c.5297.2767.9892.5627,1.3909.816a11.334,11.334,0,0,1,1.0119.676A3.96725,3.96725,0,0,1,318.57069,423.7725Z" transform="translate(-27.804 -45.59607)" style="fill: #263238"/>
          <path d="M389.51809,391.5621a10.29021,10.29021,0,0,1-.9149,1.4058c-.6063.894-1.5541,2.1373-2.76619,3.641a102.80062,102.80062,0,0,1-10.46111,10.8583c-4.36289,3.9584-8.4334,7.3896-11.3114,9.9497-1.3868,1.2371-2.5341,2.2605-3.4043,3.0367a10.32929,10.32929,0,0,1-1.2827,1.0797,10.31034,10.31034,0,0,1,1.1433-1.2268c.7558-.7702,1.8848-1.8484,3.2967-3.1626,2.8192-2.6339,6.856-6.1133,11.2072-10.0612a121.46273,121.46273,0,0,0,10.5298-10.71c1.2427-1.4669,2.23151-2.6713,2.8862-3.526A10.3488,10.3488,0,0,1,389.51809,391.5621Z" transform="translate(-27.804 -45.59607)" style="fill: #263238"/>
          <g style="opacity: 0.2">
            <path d="M372.51719,410.0841c5.3866.4377,11.4883-1.213,15.3134-5.0309a13.82305,13.82305,0,0,0,2.8467-15.1035c-3.1371,4.4785-6.6781,9.2417-10.996,12.8981-2.7252,2.3077-4.5285,5.1166-7.1641,7.2363" transform="translate(-27.804 -45.59607)"/>
          </g>
          <g style="opacity: 0.5">
            <path d="M353.35869,284.3071c6.9585,10.3066,21.351,13.5611,28.2917,23.8795,2.687,3.9945,4.0147,8.724,5.30161,13.3629q8.00788,28.86615,16.01579,57.7324c.664-12.5107-2.3517-24.8916-5.3455-37.057q-4.4343-18.0192-8.8687-36.0385a22.37057,22.37057,0,0,0-2.8837-7.5858c-1.5774-2.2682-3.926-3.8611-6.2198-5.401-8.2164-5.5159-16.6759-11.1393-26.3245-13.3391" transform="translate(-27.804 -45.59607)"/>
          </g>
        </g>
        <g style="opacity: 0.30000000000000004">
          <path d="M304.27659,315.4927c.4409,1.4021-1.47459,3.306-4.469,5.6775-1.5078,1.1772-3.2719,2.526-5.211,3.9775-1.9223,1.4824-4.0107,3.0839-6.164,4.8187-2.13759,1.7555-4.1314,3.4744-5.9744,5.0549-1.8161,1.6032-3.4959,3.0558-4.9554,4.2923-2.9315,2.4489-5.1853,3.9362-6.4683,3.2189-1.2257-.6787-1.2004-3.5596.50951-7.547a31.26288,31.26288,0,0,1,3.86709-6.4787,40.04964,40.04964,0,0,1,14.2424-11.5851,31.25877,31.25877,0,0,1,7.1299-2.4667C301.03539,313.5928,303.86159,314.1544,304.27659,315.4927Z" transform="translate(-27.804 -45.59607)" style="fill: #fff"/>
        </g>
        <path d="M277.52739,394.4144a607.20376,607.20376,0,0,1-4.5371,1.0733,5.521,5.521,0,0,1,4.5371-1.0733Z" transform="translate(-27.804 -45.59607)" style="fill: #fafafa"/>
        <path d="M262.34909,388.9045a18.36426,18.36426,0,0,1-2.1105.3623,18.39711,18.39711,0,0,1-2.0564.5979c-.0887-.1036.69481-.8235,1.9395-1.1054A2.84363,2.84363,0,0,1,262.34909,388.9045Z" transform="translate(-27.804 -45.59607)" style="fill: #fafafa"/>
        <path d="M329.66669,435.3991c-.1331.0728-1.464-2.1734-3.3139-4.7969-1.8421-2.6305-3.504-4.6433-3.3904-4.7439a30.24142,30.24142,0,0,1,6.7043,9.5408Z" transform="translate(-27.804 -45.59607)" style="fill: #fafafa"/>
        <path d="M270.10479,330.4533c.1346.0899-1.835,2.9744-3.5472,6.8956-1.73559,3.9125-2.5318,7.3126-2.6891,7.2741a8.27736,8.27736,0,0,1,.3986-2.2575,34.37442,34.37442,0,0,1,4.4422-10.0933A8.28131,8.28131,0,0,1,270.10479,330.4533Z" transform="translate(-27.804 -45.59607)" style="fill: #fafafa"/>
        <path d="M318.58359,311.0918a30.202,30.202,0,0,1-10.8588-3.7967c.0651-.1366,2.42721.8878,5.4191,1.9286C316.13149,310.2735,318.61769,310.9444,318.58359,311.0918Z" transform="translate(-27.804 -45.59607)" style="fill: #fafafa"/>
      </g>
      <g>
        <g>
          <path d="M396.57839,294.8755a15.96083,15.96083,0,0,1-9.652,6.2106,53.698,53.698,0,0,0,5.1327-2.6293A53.64309,53.64309,0,0,0,396.57839,294.8755Z" transform="translate(-27.804 -45.59607)" style="fill: #eb996e"/>
          <g>
            <path d="M425.86579,288.1898c-5.3727-12.3983-59.1204-56.4182-59.1204-56.4182l-30.2946,39.3402c.4344-.5915,49.4268,29.2528,49.4268,29.2528l14.4551,65.8734h0l2.483,11.7276s-6.497,5.6717-6.2305,11.6581c.1779,3.9948-9.0447,12.6063-9.0447,12.6063-2.1804-1.8137-3.5844-2.3205-4.6783-2.111l-9.7499,9.1273,2.3222,2.1197a13.46485,13.46485,0,0,0,9.4896,3.5143l16.6698-.5096a9.14863,9.14863,0,0,0,6.2883-2.7686c5.1273-5.2771,15.9442-17.0585,16.1622-22.7455.1219-3.1765.1474-6.2074.137-8.647C424.18179,380.2056,431.23829,300.5878,425.86579,288.1898Z" transform="translate(-27.804 -45.59607)" style="fill: #ffbe9d"/>
            <path d="M409.90879,393.5414a3.53253,3.53253,0,0,1-.92379.5936c-.61741.3431-1.56.7436-2.64721,1.3406a11.69884,11.69884,0,0,0-3.2707,2.818,18.60041,18.60041,0,0,1-3.9804,3.7151,15.57645,15.57645,0,0,1-9.4376,2.5996,5.13532,5.13532,0,0,1-1.7147-.2946,1.1926,1.1926,0,0,1-.8037-1.0611.88091.88091,0,0,1,.3466-.7712c.1755-.1052.2876-.0819.2865-.0717.0056.0224-.0973.039-.2249.1518a.804.804,0,0,0-.2136.6793.97647.97647,0,0,0,.7164.8141,5.14785,5.14785,0,0,0,1.6216.1992,15.97623,15.97623,0,0,0,9.146-2.6628,19.10911,19.10911,0,0,0,3.914-3.606,11.50208,11.50208,0,0,1,3.44671-2.8218c1.13749-.5717,2.09159-.9171,2.73009-1.2041A6.6429,6.6429,0,0,1,409.90879,393.5414Z" transform="translate(-27.804 -45.59607)" style="fill: #eb996e"/>
            <path d="M402.28759,402.2206c.0686.1303-1.306.9391-2.7891,2.2011-1.4924,1.2524-2.5188,2.4726-2.6359,2.3831a10.47965,10.47965,0,0,1,5.425-4.5842Z" transform="translate(-27.804 -45.59607)" style="fill: #eb996e"/>
            <path d="M409.02939,374.9312c.0085.1506-1.4732.2433-3.079,1.0139-1.6172.7479-2.6318,1.8314-2.7425,1.7288a6.22436,6.22436,0,0,1,5.8215-2.7427Z" transform="translate(-27.804 -45.59607)" style="fill: #eb996e"/>
          </g>
        </g>
        <path d="M398.60009,407.3623c-.0376.083-1.07509-.4311-2.8655-.8567a16.83823,16.83823,0,0,0-7.0975-.1414,16.13631,16.13631,0,0,0-1.9635.5284,7.64239,7.64239,0,0,1-.9799.2948,1.409,1.409,0,0,1-1.07069-.2277c-.96241-.7002-1.85131-1.347-2.64931-1.9276a17.20341,17.20341,0,0,1-2.3529-1.8787,17.30016,17.30016,0,0,1,2.5678,1.5797c.8113.549,1.7151,1.1606,2.6936,1.8228.4304.3324.9703.0861,1.6254-.1457a15.40592,15.40592,0,0,1,2.0277-.5567,15.58882,15.58882,0,0,1,7.2926.2959,13.2829,13.2829,0,0,1,2.0759.7877C398.36919,407.1796,398.61569,407.3305,398.60009,407.3623Z" transform="translate(-27.804 -45.59607)" style="fill: #eb996e"/>
      </g>
      <g>
        <path d="M285.52989,254.5632c-6.4096-1.8313-9.2535-2.6278-9.2535-2.6278l.0177-2.9082,2.5506-.0291c2.5505-.0292,6.2387-3.1835,6.2387-3.1835l5.4651-8.3782.7039-5.3649c-.5859-6.6256-8.566-4.0344-8.566-4.0344-.37539-2.3111-10.5942-4.6318-18.272-6.0568a17.67694,17.67694,0,0,0-14.6355,3.8572l-7.3715,6.221L220.31809,251.4l-57.0058,48.1512L125.8445,288.4868s-11.9139,36.4569-13.8615,49.5498c-3.7326,25.0924,30.7528,41.8116,45.955,28.9,11.81929-10.0385,80.76109-84.2745,92.17979-96.5888.0303-.003.0655.0005.09521-.0032,7.03009-.8967,18.87559-7.9932,18.87559-7.9932l6.0907.7183s16.1842,3.0911,18.0984-.0837C294.77919,260.4954,291.93939,256.3944,285.52989,254.5632Z" transform="translate(-27.804 -45.59607)" style="fill: #ffbe9d"/>
        <g>
          <g>
            <g>
              <path d="M252.33759,247.2775c.03341-.0133.1585.2367.35741.7038a12.80307,12.80307,0,0,1,.65619,2.0461,18.3143,18.3143,0,0,1-2.1806,13.7151,12.78159,12.78159,0,0,1-1.2584,1.7415c-.3339.3824-.5303.5812-.558.5582-.0734-.0589.6342-.9249,1.4982-2.4851a20.08451,20.08451,0,0,0,2.1388-13.4522C252.65369,248.3537,252.24949,247.3107,252.33759,247.2775Z" transform="translate(-27.804 -45.59607)" style="fill: #eb996e"/>
              <path d="M256.46649,226.8638a2.92207,2.92207,0,0,1,.6258-.1184c.41271-.0572,1.0221-.1368,1.8106-.2103a28.08033,28.08033,0,0,1,6.7134.0786,16.10575,16.10575,0,0,1,4.4698,1.3327,12.08887,12.08887,0,0,1,4.2577,3.2601,8.72871,8.72871,0,0,1,2.047,5.5486,6.8348,6.8348,0,0,1-.7882,3.0908,10.87826,10.87826,0,0,1-1.95959,2.6039,30.36142,30.36142,0,0,1-4.89571,3.8506,15.42743,15.42743,0,0,1-2.6255,1.4365,3.65491,3.65491,0,0,1-1.4984.2522,1.909,1.909,0,0,1-1.3833-.6978,2.22814,2.22814,0,0,1-.4337-1.4302,4.46106,4.46106,0,0,1,.2543-1.3711,9.65875,9.65875,0,0,1,1.1727-2.3126,9.7864,9.7864,0,0,1,3.4385-3.0885l.0564.3479c-2.8318-.5387-5.1459-.9788-6.8214-1.2975-.7591-.1557-1.3725-.2814-1.8498-.3793a3.08613,3.08613,0,0,1-.6386-.1678,3.09384,3.09384,0,0,1,.6573.0626c.4818.0727,1.1009.166,1.86721.2815,1.68269.2782,4.00659.6626,6.85059,1.1328l.5261.087-.46969.2611a9.48543,9.48543,0,0,0-3.25691,3.0047,9.28372,9.28372,0,0,0-1.0959,2.2138,2.60188,2.60188,0,0,0,.1189,2.3552,2.00352,2.00352,0,0,0,2.3353.2779,15.21768,15.21768,0,0,0,2.5199-1.398,30.38009,30.38009,0,0,0,4.8011-3.7869,7.77546,7.77546,0,0,0,2.6083-5.3372,8.28,8.28,0,0,0-1.91069-5.2394,11.74466,11.74466,0,0,0-4.07111-3.1717,15.99809,15.99809,0,0,0-4.3407-1.3582,30.47651,30.47651,0,0,0-6.64019-.2401c-.74371.0461-1.34531.0834-1.81511.1125A2.92563,2.92563,0,0,1,256.46649,226.8638Z" transform="translate(-27.804 -45.59607)" style="fill: #eb996e"/>
              <path d="M282.75649,228.3789a4.01047,4.01047,0,0,1,.1771,1.0782,25.85017,25.85017,0,0,1,.1177,2.9746,19.12479,19.12479,0,0,1-2.4912,9.4618c-1.9915,3.3458-5.1343,5.5082-7.7187,5.8439a3.2447,3.2447,0,0,1-2.8195-.9708,2.08131,2.08131,0,0,1-.4236-.7129c-.06-.1799-.06229-.281-.0485-.2845a4.27864,4.27864,0,0,0,.6181.8568,3.10687,3.10687,0,0,0,2.63.7457c2.3847-.3967,5.4052-2.518,7.3159-5.7464a20.04754,20.04754,0,0,0,2.5696-9.2075C282.80619,229.933,282.66739,228.3846,282.75649,228.3789Z" transform="translate(-27.804 -45.59607)" style="fill: #eb996e"/>
              <path d="M268.60719,256.936c-.0561-.0643.4641-.5183,1.079-1.4118a8.12409,8.12409,0,0,0,.7762-7.995c-.43139-.9951-.8545-1.5406-.7872-1.5929a3.5577,3.5577,0,0,1,1.119,1.4331,7.613,7.613,0,0,1-.81319,8.3754C269.25709,256.6241,268.64059,256.983,268.60719,256.936Z" transform="translate(-27.804 -45.59607)" style="fill: #eb996e"/>
              <path d="M258.88909,237.9821a3.28235,3.28235,0,0,1,.3212,2.1884,5.86519,5.86519,0,0,1-.698,2.3348,11.00825,11.00825,0,0,1-1.7026,2.4222,12.49834,12.49834,0,0,1-4.4918,2.8744,8.38525,8.38525,0,0,1-2.0856.6933,10.21476,10.21476,0,0,1,1.9342-1.029,14.25491,14.25491,0,0,0,4.264-2.8956,11.81144,11.81144,0,0,0,1.6613-2.2963,6.0137,6.0137,0,0,0,.75321-2.1499A10.11582,10.11582,0,0,0,258.88909,237.9821Z" transform="translate(-27.804 -45.59607)" style="fill: #eb996e"/>
            </g>
            <g>
              <path d="M301.40919,240.9391l-28.1263,15.3351s15.0482,3.7594,28.6665,18.1748a82.85425,82.85425,0,0,1,17.1218,27.2324l28.0264-18.6459S332.04869,248.8994,301.40919,240.9391Z" transform="translate(-27.804 -45.59607)" style="fill: #455a64"/>
              <path d="M278.23979,255.6982c1.2394-.7083,8.9125-5.0933,22.7145-12.9809l.0648-.0371.0737.0193a48.98474,48.98474,0,0,1,11.49021,4.7353,64.31518,64.31518,0,0,1,11.45969,8.4178,88.46712,88.46712,0,0,1,10.5802,11.5851,97.85406,97.85406,0,0,1,9.1273,14.1559l.1055.2021-.1942.1299c-.4652.3112-.9686.648-1.4733.9855-7.58419,5.0681-14.89519,9.9536-21.622,14.4487l-.253.169-.1151-.2812a79.49128,79.49128,0,0,0-12.4627-20.8932A71.03208,71.03208,0,0,0,293.531,263.4257a64.40121,64.40121,0,0,0-11.04091-6.1205c-1.357-.575-2.42209-.9703-3.14609-1.2263-.34791-.1181-.62121-.2109-.82751-.2809-.1993-.068-.2826-.1003-.2767-.0998l.2931.0598c.2089.0597.4855.1388.8377.2396.7345.2302,1.812.6011,3.18341,1.1538a61.83826,61.83826,0,0,1,11.15189,6.0172,70.46005,70.46005,0,0,1,14.354,12.913,79.35257,79.35257,0,0,1,12.5979,20.9775l-.36779-.1122c6.72259-4.5013,14.02909-9.3936,21.60869-14.4686.5047-.3376,1.0081-.6743,1.47331-.9855l-.08851.3316a98.06757,98.06757,0,0,0-9.0641-14.0767,88.59731,88.59731,0,0,0-10.4993-11.5413,64.279,64.279,0,0,0-11.3512-8.3958,48.93637,48.93637,0,0,0-11.3707-4.7517l.1382-.0177C287.22349,250.7321,279.48829,255.008,278.23979,255.6982Z" transform="translate(-27.804 -45.59607)" style="fill: #fff"/>
              <path d="M324.287,264.937c-.73291,4.3295-6.21811,6.9499-12.25151,5.8527s-10.33049-5.4965-9.5977-9.826,6.218-6.9499,12.2515-5.8527S325.01979,260.6074,324.287,264.937Z" transform="translate(-27.804 -45.59607)" style="fill: #fafafa"/>
              <path d="M311.18419,266.3333l-.9726,1.0752-1.1211-1.0898.93751-1.0362a7.19566,7.19566,0,0,1-1.69831-3.0351l1.8877-.8223a5.89829,5.89829,0,0,0,1.5537,2.7656c.7657.7452,1.2657.8135,1.5635.4844.9727-1.0752-3.456-3.9062-1.1767-6.4238.9638-1.0654,2.5175-1.249,4.206.0293l.9639-1.0654,1.1211,1.0898-.9463,1.0459a6.49391,6.49391,0,0,1,1.3789,2.415l-1.8574.8692a5.51943,5.51943,0,0,0-1.3389-2.2842c-.7754-.7539-1.3008-.7549-1.6084-.416-.9375,1.0361,3.4727,3.8672,1.2119,6.3652C314.36,267.3275,312.84339,267.5277,311.18419,266.3333Z" transform="translate(-27.804 -45.59607)" style="fill: #455a64"/>
              <path d="M284.65959,252.0896s4.7675,2.4201.1873,5.9567l-7.0073-2.7181Z" transform="translate(-27.804 -45.59607)" style="fill: #fafafa"/>
              <path d="M297.47369,244.8869s4.5988,4.8583,8.9919-.1963l-5.4202-1.8114Z" transform="translate(-27.804 -45.59607)" style="fill: #fafafa"/>
              <path d="M317.53569,290.7736s6.1907-5.0246,9.80831,1.7537l-6.916,4.6261Z" transform="translate(-27.804 -45.59607)" style="fill: #fafafa"/>
              <path d="M340.37829,276.2046s-4.467,2.7947-1.4375,8.5655l4.5761-3.061Z" transform="translate(-27.804 -45.59607)" style="fill: #fafafa"/>
              <path d="M323.80659,292.4243a1.8734,1.8734,0,1,1-1.8709-1.9419A1.90708,1.90708,0,0,1,323.80659,292.4243Z" transform="translate(-27.804 -45.59607)" style="fill: #455a64"/>
              <path d="M342.57479,280.4895a1.87341,1.87341,0,1,1-1.8709-1.942A1.90721,1.90721,0,0,1,342.57479,280.4895Z" transform="translate(-27.804 -45.59607)" style="fill: #455a64"/>
              <path d="M303.92659,244.6997c-.0004.6904-.9598,1.2494-2.1427,1.2485s-2.1415-.5612-2.141-1.2516.9598-1.2494,2.1427-1.2486S303.92709,244.0093,303.92659,244.6997Z" transform="translate(-27.804 -45.59607)" style="fill: #455a64"/>
              <path d="M285.64589,255.0695a2.13,2.13,0,1,1-2.077-1.6643A1.9055,1.9055,0,0,1,285.64589,255.0695Z" transform="translate(-27.804 -45.59607)" style="fill: #455a64"/>
              <path d="M302.89279,254.0274c-.00079,1.0628-1.3229,1.9235-2.9532,1.9223s-2.9512-.8638-2.9505-1.9266,1.32291-1.9235,2.9531-1.9223S302.89349,252.9646,302.89279,254.0274Z" transform="translate(-27.804 -45.59607)" style="fill: #fafafa"/>
              <path d="M326.58309,279.7229c-1.3303.6048-2.9719-.2358-3.6667-1.8775a3.07635,3.07635,0,0,1,1.1508-4.0678c1.3303-.6049,2.972.2357,3.6667,1.8775A3.07629,3.07629,0,0,1,326.58309,279.7229Z" transform="translate(-27.804 -45.59607)" style="fill: #fafafa"/>
            </g>
            <g>
              <path d="M285.08339,245.8147l11.5444,12.1499s4.6179,5.2837,7.7307,2.7872-1.2582-7.1665-2.1818-8.5241-12.2352-15.0924-12.2352-15.0924Z" transform="translate(-27.804 -45.59607)" style="fill: #ffbe9d"/>
              <path d="M291.03769,234.8526a7.19728,7.19728,0,0,1-.4431,2.1099,22.47648,22.47648,0,0,1-2.0489,4.7896,16.11985,16.11985,0,0,1-3.2819,4.0579,5.84543,5.84543,0,0,1-1.7867,1.2156,18.50913,18.50913,0,0,1,1.5352-1.4846,19.77477,19.77477,0,0,0,3.0833-4.0508C290.08909,238.0175,290.86079,234.7947,291.03769,234.8526Z" transform="translate(-27.804 -45.59607)" style="fill: #eb996e"/>
            </g>
          </g>
          <path d="M183.58359,282.4286a4.08378,4.08378,0,0,1-.5392.5295q-.60958.5439-1.6137,1.4398l-6.0074,5.2108c-5.0935,4.3755-12.1624,10.3822-20.0387,16.9345-7.88009,6.5532-15.082,12.4039-20.37359,16.5409-2.6389,2.0769-4.8122,3.7105-6.3271,4.821q-1.0977.7836-1.7607,1.2567a4.09422,4.09422,0,0,1-.6345.4094,4.11654,4.11654,0,0,1,.5723-.4939q.64245-.50385,1.7007-1.3339c1.4758-1.1591,3.6124-2.8352,6.2204-4.9478,5.2294-4.2079,12.3912-10.1011,20.26949-16.6528,7.8431-6.5504,14.9426-12.4797,20.1336-16.815,2.5489-2.1196,4.6267-3.8474,6.114-5.0842q1.04565-.85125,1.6771-1.3653A4.12716,4.12716,0,0,1,183.58359,282.4286Z" transform="translate(-27.804 -45.59607)" style="fill: #eb996e"/>
        </g>
      </g>
    </g>
  </g>
</svg>
