<svg xmlns="http://www.w3.org/2000/svg" width="500" height="372.60882" viewBox="0 0 500 372.60882">
  <title>timemanagement</title>
  <g id="Background_Complete" data-name="Background Complete">
    <g>
      <rect y="327.44582" width="500" height="0.25" style="fill: #ebebeb"/>
      <rect x="416.7791" y="343.54182" width="33.1221" height="0.25" style="fill: #ebebeb"/>
      <rect x="322.5269" y="346.2554" width="8.6933" height="0.25" style="fill: #ebebeb"/>
      <rect x="396.5858" y="334.25572" width="19.1924" height="0.25" style="fill: #ebebeb"/>
      <rect x="52.459" y="335.93592" width="43.1934" height="0.25" style="fill: #ebebeb"/>
      <rect x="104.5557" y="335.93592" width="6.333" height="0.25" style="fill: #ebebeb"/>
      <rect x="131.4713" y="340.15812" width="93.6758" height="0.25" style="fill: #ebebeb"/>
      <path d="M237.0137,337.79982H43.915a5.7144,5.7144,0,0,1-5.708-5.708V60.6602a5.71438,5.71438,0,0,1,5.708-5.7076H237.0137a5.71411,5.71411,0,0,1,5.707,5.7076V332.09182A5.71413,5.71413,0,0,1,237.0137,337.79982ZM43.915,55.2026a5.46391,5.46391,0,0,0-5.458,5.4576V332.09182a5.46393,5.46393,0,0,0,5.458,5.458H237.0137a5.46365,5.46365,0,0,0,5.457-5.458V60.6602a5.46363,5.46363,0,0,0-5.457-5.4576Z" transform="translate(0 -54.9526)" style="fill: #ebebeb"/>
      <path d="M453.3105,337.79982H260.2119a5.71413,5.71413,0,0,1-5.707-5.708V60.6602a5.71411,5.71411,0,0,1,5.707-5.7076H453.3105a5.7144,5.7144,0,0,1,5.7081,5.7076V332.09182A5.71442,5.71442,0,0,1,453.3105,337.79982ZM260.2119,55.2026a5.46363,5.46363,0,0,0-5.457,5.4576V332.09182a5.46365,5.46365,0,0,0,5.457,5.458H453.3105a5.464,5.464,0,0,0,5.4581-5.458V60.6602a5.46393,5.46393,0,0,0-5.4581-5.4576Z" transform="translate(0 -54.9526)" style="fill: #ebebeb"/>
    </g>
    <g>
      <g>
        <rect x="66.7968" y="95.6106" width="135.699" height="286.78782" transform="translate(269.2926 423.05642) rotate(180)" style="fill: #e6e6e6"/>
        <rect x="63.7812" y="95.6106" width="135.699" height="286.78782" transform="translate(263.2614 423.05642) rotate(180)" style="fill: #f5f5f5"/>
        <rect x="-5.68296" y="176.56796" width="274.62732" height="124.8732" transform="translate(370.63526 52.42126) rotate(90)" style="fill: #fafafa"/>
        <polygon points="165.308 321.366 133.674 46.738 97.954 46.738 129.587 321.366 165.308 321.366" style="fill: #fff"/>
        <rect x="-66.97966" y="237.86466" width="274.62732" height="2.2798" transform="translate(309.33856 113.71796) rotate(90)" style="fill: #e6e6e6"/>
        <rect x="66.0201" y="125.478" width="131.2212" height="8.1626" transform="translate(263.2614 204.166) rotate(180)" style="fill: #f5f5f5"/>
      </g>
      <g>
        <rect x="163.6316" y="271.8034" width="166.4001" height="54.7891" transform="translate(546.0296 -2.5863) rotate(90)" style="fill: #f0f0f0"/>
        <rect x="222.44444" y="220.86206" width="48.77442" height="48.7743" transform="translate(492.08086 -56.53504) rotate(90)" style="fill: #f5f5f5"/>
        <rect x="222.4445" y="274.01432" width="48.7743" height="48.7743" transform="translate(545.23312 -3.38278) rotate(90)" style="fill: #f5f5f5"/>
        <rect x="222.4445" y="327.16652" width="48.7743" height="48.7743" transform="translate(598.38532 49.76942) rotate(90)" style="fill: #f5f5f5"/>
        <path d="M257.6271,220.2163H236.0363a5.05726,5.05726,0,0,0,5.0573,5.0573h11.4762A5.05726,5.05726,0,0,0,257.6271,220.2163Z" transform="translate(0 -54.9526)" style="fill: #e6e6e6"/>
        <path d="M257.6271,273.36862H236.0363a5.05724,5.05724,0,0,0,5.0573,5.0572h11.4762A5.05724,5.05724,0,0,0,257.6271,273.36862Z" transform="translate(0 -54.9526)" style="fill: #e6e6e6"/>
        <path d="M257.6271,326.52082H236.0363a5.05722,5.05722,0,0,0,5.0573,5.05718h11.4762A5.05722,5.05722,0,0,0,257.6271,326.52082Z" transform="translate(0 -54.9526)" style="fill: #e6e6e6"/>
        <rect x="204.7088" y="285.5153" width="166.4001" height="27.3653" transform="translate(587.1068 -43.6635) rotate(90)" style="fill: #f5f5f5"/>
      </g>
      <g>
        <g>
          <rect x="420.4884" y="253.03462" width="15.1907" height="125.2752" transform="translate(856.1675 576.39185) rotate(180)" style="fill: #f0f0f0"/>
          <rect x="287.7149" y="378.30982" width="145.8595" height="4.0886" transform="translate(721.2893 705.75564) rotate(180)" style="fill: #f0f0f0"/>
          <rect x="285.6103" y="198.08202" width="134.8781" height="125.2752" style="fill: #fafafa"/>
          <path d="M312.0172,326.23882h82.0645a14.60991,14.60991,0,0,0,0-29.21982H312.0172a14.60991,14.60991,0,0,0,0,29.21982Zm82.0645-28.2383a13.6284,13.6284,0,1,1,0,27.2568H312.0172a13.6284,13.6284,0,1,1,0-27.2568Z" transform="translate(0 -54.9526)" style="fill: #f0f0f0"/>
          <path d="M312.0172,362.585h82.0645a14.60989,14.60989,0,0,0,0-29.21978H312.0172a14.60989,14.60989,0,0,0,0,29.21978Zm82.0645-28.23828a13.6284,13.6284,0,1,1,0,27.2568H312.0172a13.6284,13.6284,0,1,1,0-27.2568Z" transform="translate(0 -54.9526)" style="fill: #f0f0f0"/>
          <path d="M340.6664,308.478h24.7658a3.05712,3.05712,0,0,0,3.0481-3.04808h0a3.05707,3.05707,0,0,0-3.0481-3.0481H340.6664a3.05707,3.05707,0,0,0-3.0481,3.0481h0A3.05712,3.05712,0,0,0,340.6664,308.478Z" transform="translate(0 -54.9526)" style="fill: #ebebeb"/>
          <path d="M312.0172,289.89262h82.0645a14.60985,14.60985,0,0,0,0-29.2197H312.0172a14.60985,14.60985,0,0,0,0,29.2197Zm82.0645-28.2383a13.6284,13.6284,0,1,1,0,27.2568H312.0172a13.6284,13.6284,0,1,1,0-27.2568Z" transform="translate(0 -54.9526)" style="fill: #f0f0f0"/>
          <path d="M340.6664,272.13182h24.7658a3.05713,3.05713,0,0,0,3.0481-3.0481h0a3.05707,3.05707,0,0,0-3.0481-3.0481H340.6664a3.05707,3.05707,0,0,0-3.0481,3.0481h0A3.05713,3.05713,0,0,0,340.6664,272.13182Z" transform="translate(0 -54.9526)" style="fill: #ebebeb"/>
          <path d="M340.6664,344.82422h24.7658a3.05707,3.05707,0,0,0,3.0481-3.0481h0a3.05715,3.05715,0,0,0-3.0481-3.04812H340.6664a3.05715,3.05715,0,0,0-3.0481,3.04812h0A3.05707,3.05707,0,0,0,340.6664,344.82422Z" transform="translate(0 -54.9526)" style="fill: #ebebeb"/>
        </g>
        <rect x="282.8365" y="246.66672" width="137.6519" height="6.3679" transform="translate(703.3249 444.74875) rotate(180)" style="fill: #f0f0f0"/>
        <rect x="420.4884" y="191.71412" width="18.1675" height="6.3679" style="fill: #e6e6e6"/>
      </g>
      <g>
        <path d="M322.0248,146.3876c3.0675,1.5391,11.3874-.1136,8.614,5.5162a47.39389,47.39389,0,0,1-5.6863,8.2602c-3.0977,3.8211-2.5131,7.9656,1.1454,9.4711a4.49988,4.49988,0,0,1,2.0227,1.4065c1.6852,2.4152-2.2951,5.6551-4.2488,8.0738-1.888,2.3375-2.7425,4.8001-1.2976,6.601,1.5942,1.9871,4.917,1.2569,7.5542,1.8567,6.3465,1.4433-.1798,10.1944.4944,14.6911.4614,3.0777,2.957,3.9357,6.3485,4.3706,2.7664.3547,6.4587.6032,6.6126,3.439.1331,2.4537-3.0628,5.2363-3.9013,7.816a8.05648,8.05648,0,0,0,.615,6.7983,7.428,7.428,0,0,0,4.9794,3.2582c3.1428.6683,7.8967-.0251,8.1226,3.52063.1008,1.5835-1.0017,2.9852-.235,4.4432a5.07277,5.07277,0,0,0,3.6885,2.1678,26.76188,26.76188,0,0,0,9.0586-.1607c3.6893-.6756,9.1356-3.9273,7.1346-7.0617a4.293,4.293,0,0,0-2.8535-1.63813c-.8851-.1807-3.4622.0994-3.7939-.4991-.3323-.5996.5574-2.9037.5953-3.7429a17.53488,17.53488,0,0,0-1.075-6.7653,20.64839,20.64839,0,0,0-4.7622-7.5437c-.8722-.8837-2.2705-1.5338-2.4486-2.823-.17-1.2305.6334-2.7138,1.5295-3.9734,1.4126-1.9857,3.5989-3.8843,4.3908-6.0111,1.2442-3.3411-1.7697-4.4012-4.5593-5.1601-2.5227-.6863-5.8421-1.5691-4.9855-4.6313.6188-2.2121,3.4064-4.022,4.241-6.178,1.1203-2.894-1.6106-3.0073-3.5697-4.0411-2.5415-1.3412-3.1836-3.7346-2.2609-6.7703,1.5209-5.0037,10.6925-12.0648,5.9974-15.318-1.1919-.8259-2.2975-1.1037-3.0152-2.3454-.7671-1.3273-.8787-2.9803-1.8754-4.1853-1.5811-1.9115-4.848-2.2322-6.5559-4.0068-3.502-3.6389,4.0644-10.0945-2.8425-11.6305a8.223,8.223,0,0,1-4.0342-1.6687c-.6324-.5894-1.1439-3.4428-1.858-3.642-3.1668-.8834-8.883,5.2657-10.6776,7.1636C326.4495,137.754,318.3617,144.5497,322.0248,146.3876Z" transform="translate(0 -54.9526)" style="fill: #e0e0e0"/>
        <path d="M376.3878,231.20623c-1.8827-3.48173-10.1084-6.95773-4.6479-10.99993a45.94091,45.94091,0,0,1,9.4385-4.9263c4.7785-1.9886,6.4811-6.5958,4.0589-10.4102a5.853,5.853,0,0,1-1.032-2.6968c-.1941-3.5202,5.0521-4.3652,8.0705-5.6285,2.9171-1.2208,4.9891-3.2117,4.6782-5.9535-.343-3.0251-3.6657-4.3416-5.6715-6.594-4.8273-5.4206,5.6152-10.3277,7.4272-15.3514,1.2403-3.4382-.5025-5.8672-3.2621-8.4193-2.2511-2.0818-5.3759-4.63-3.9938-7.6296,1.1958-2.5953,5.5052-3.4594,7.6258-5.5802a10.30438,10.30438,0,0,0,3.0962-7.3438,9.53242,9.53242,0,0,0-2.6497-6.4297c-2.4152-2.6367-6.9809-4.8798-5.2824-8.651.7586-1.6842,2.4817-2.4347,2.5856-4.4041a6.41069,6.41069,0,0,0-2.0942-4.5112,27.04584,27.04584,0,0,0-8.0788-5.4627c-3.6168-1.6002-10.1628-1.6536-10.0749,2.7991a5.41348,5.41348,0,0,0,1.6409,3.4501c.6842.735,3.1081,2.049,3.0804,2.868-.0278.8204-2.0461,2.6272-2.5286,3.4631a22.99976,22.99976,0,0,0-2.6727,7.5956,28.61273,28.61273,0,0,0,.164,10.6833c.2967,1.4468,1.1824,2.9812.6495,4.412-.5086,1.3657-2.0114,2.3855-3.4763,3.1187-2.3092,1.1559-5.2546,1.742-7.0917,3.4279-2.8861,2.6485-.7942,5.6064,1.2609,8.1164,1.8586,2.27,4.3149,5.236,1.92,7.8397-1.7301,1.8808-5.1584,2.0026-7.0488,3.6919-2.5376,2.2676-.1886,4.0801.9866,6.3558,1.5246,2.9522.8101,5.802-1.6289,8.3374-4.0203,4.1792-15.8922,5.7124-13.4908,11.9605.6096,1.5862,1.4364,2.5575,1.405,4.2748-.0336,1.8357-.8199,3.5978-.5854,5.4508.3719,2.9398,3.0828,5.2976,3.6398,8.1759,1.1423,5.9018-8.9893,7.8122-3.7172,13.6757a9.91286,9.91286,0,0,1,2.6664,4.21493c.2425.99637-.8335,4.2362-.3101,4.8837,2.3214,2.872,10.6564.1261,13.2557-.7026C367.8626,237.29863,378.6361,235.36393,376.3878,231.20623Z" transform="translate(0 -54.9526)" style="fill: #f5f5f5"/>
        <path d="M397.4689,223.3448s-.996,23.32192-39.1779,23.32192-39.1778-23.32192-39.1778-23.32192Z" transform="translate(0 -54.9526)" style="fill: #f0f0f0"/>
      </g>
    </g>
  </g>
  <g id="Shadow">
    <ellipse id="_Path_" data-name="&lt;Path&gt;" cx="250.00027" cy="361.28541" rx="193.88918" ry="11.32341" style="fill: #f5f5f5"/>
  </g>
  <g id="Hourglass">
    <g>
      <g style="opacity: 0.2">
        <polygon points="360.729 352.913 297.039 235.2 233.349 352.913 360.729 352.913" style="fill: #407bff"/>
        <polygon points="360.729 153.768 297.039 271.481 233.349 153.768 360.729 153.768" style="fill: #407bff"/>
      </g>
      <g>
        <path d="M308.7052,278.21572l-9.3195,17.2252a2.66857,2.66857,0,0,1-4.6941,0l-9.3197-17.2251a10.1989,10.1989,0,0,1,8.9701-15.0522h5.393A10.19887,10.19887,0,0,1,308.7052,278.21572Z" transform="translate(0 -54.9526)" style="fill: #407bff"/>
        <path d="M298.0541,378.14972l28.9109,11.8967a2.6686,2.6686,0,0,1-1.0155,5.1364l-57.8208.0004a2.66855,2.66855,0,0,1-1.0156-5.1363l28.91-11.8972A2.66835,2.66835,0,0,1,298.0541,378.14972Z" transform="translate(0 -54.9526)" style="fill: #407bff"/>
        <circle cx="297.0385" cy="296.84262" r="3.7075" style="fill: #407bff"/>
        <circle cx="297.0385" cy="258.09682" r="1.9112" style="fill: #407bff"/>
        <circle cx="297.0385" cy="276.57152" r="2.173" style="fill: #407bff"/>
      </g>
      <path d="M360.4061,402.06422H233.6721a5.81861,5.81861,0,0,0-5.8015,5.8016h0a5.81861,5.81861,0,0,0,5.8015,5.8016h126.734a5.81863,5.81863,0,0,0,5.8016-5.8016h0A5.81863,5.81863,0,0,0,360.4061,402.06422Z" transform="translate(0 -54.9526)" style="fill: #407bff"/>
      <path d="M360.4061,202.9186H233.6721a5.81861,5.81861,0,0,0-5.8015,5.8016h0a5.81859,5.81859,0,0,0,5.8015,5.8015h126.734a5.81861,5.81861,0,0,0,5.8016-5.8015h0A5.81863,5.81863,0,0,0,360.4061,202.9186Z" transform="translate(0 -54.9526)" style="fill: #407bff"/>
    </g>
  </g>
  <g id="Character">
    <g>
      <g>
        <polygon points="194.628 350.724 187.576 348.436 191.959 331.809 199.011 334.097 194.628 350.724" style="fill: #ff8b7b"/>
        <path d="M187.4713,402.45192l7.9222,2.5708a.53042.53042,0,0,1,.3666.65128l-1.6501,6.39262a1.31371,1.31371,0,0,1-1.6412.85338c-2.7426-.94258-4.0075-1.53228-7.4914-2.66288-2.1433-.6956-9.2077-2.5206-12.1675-3.48112-2.8948-.93938-1.9255-3.85978-.5851-3.71778,6.0101.63678,11.3929.3506,13.8914-.5669A2.08789,2.08789,0,0,1,187.4713,402.45192Z" transform="translate(0 -54.9526)" style="fill: #263238"/>
        <polygon points="199.011 334.102 191.957 331.813 189.701 340.384 196.756 342.674 199.011 334.102" style="opacity: 0.2"/>
        <path d="M218.2765,220.7219s-12.6511,58.54852-15.6182,79.59992c-3.2492,23.0529-15.4552,92.27218-15.4552,92.27218l13.0883,3.61572s18.137-67.133,23.4349-89.543c5.7499-24.3223,21.0446-85.94482,21.0446-85.94482Z" transform="translate(0 -54.9526)" style="fill: #407bff"/>
        <path d="M233.9215,239.92c-4.9902,11.34-7.4702,36.04-5.53,47.35,3.5398-14.55,7.8-31.85,11.0898-45.16C238.3715,238.25,236.5314,233.99,233.9215,239.92Z" transform="translate(0 -54.9526)" style="opacity: 0.30000000000000004"/>
        <polygon points="200.623 341.515 186.604 337.653 186.875 331.944 202.658 337.401 200.623 341.515" style="fill: #263238"/>
        <path d="M184.5732,402.86922a9.26134,9.26134,0,0,0,1.961.3576.17246.17246,0,0,0,.1522-.276c-.1745-.2297-1.7278-2.242-2.6986-2.1833a.64817.64817,0,0,0-.5337.3412.94882.94882,0,0,0-.0837.9585A2.00145,2.00145,0,0,0,184.5732,402.86922Zm1.5864-.0273c-1.343-.1581-2.2592-.4985-2.4822-.9328a.62078.62078,0,0,1,.0739-.6249.3056.3056,0,0,1,.2565-.1719C184.5303,401.08112,185.5107,402.05592,186.1596,402.84192Z" transform="translate(0 -54.9526)" style="fill: #263238"/>
        <path d="M186.4957,403.21892a.17437.17437,0,0,0,.0811.0063.17236.17236,0,0,0,.1312-.1037c.0348-.0836.8514-2.0604.3623-2.9769a.86336.86336,0,0,0-.6222-.4555.66218.66218,0,0,0-.7573.3041c-.4121.7163.1618,2.5294.7282,3.1757A.17148.17148,0,0,0,186.4957,403.21892Zm-.0362-3.1708a.51263.51263,0,0,1,.3061.25888,3.84277,3.84277,0,0,1-.2639,2.39032,3.49223,3.49223,0,0,1-.5115-2.532c.0512-.0897.1426-.18632.3911-.1375A.66562.66562,0,0,1,186.4595,400.04812Z" transform="translate(0 -54.9526)" style="fill: #263238"/>
      </g>
      <path d="M231.7393,165.1348c-.3838.8941-.6968,1.572-1.0533,2.336-.3501.7398-.7226,1.4618-1.0932,2.1836q-1.11765,2.16165-2.3299,4.2664a82.85894,82.85894,0,0,1-5.4023,8.1765,60.88725,60.88725,0,0,1-6.6541,7.5969,38.3068,38.3068,0,0,1-8.6762,6.4116l-.2512.1337a5.0724,5.0724,0,0,1-1.2747.4647,14.214,14.214,0,0,1-6.8711-.2756,19.86032,19.86032,0,0,1-5.2429-2.4341,34.33163,34.33163,0,0,1-7.2439-6.5633,59.74631,59.74631,0,0,1-5.2634-7.3155,64.38567,64.38567,0,0,1-4.1351-7.8413,3.23968,3.23968,0,0,1,5.469-3.3569l.0982.1207c1.6523,2.0098,3.4407,4.1334,5.2422,6.074a68.88832,68.88832,0,0,0,5.584,5.4812,27.66187,27.66187,0,0,0,5.7399,4.0001,8.37788,8.37788,0,0,0,2.4651.8149,2.69814,2.69814,0,0,0,1.4412-.1223l-1.5256.5983a30.27108,30.27108,0,0,0,5.6115-4.8999,61.39907,61.39907,0,0,0,5.0479-6.4247c1.5784-2.2999,3.0752-4.7142,4.491-7.1871q1.07-1.8507,2.06-3.7506l.9656-1.8968c.3103-.6055.6553-1.3021.8906-1.8l.0623-.1315a6.49936,6.49936,0,0,1,11.8484,5.341Z" transform="translate(0 -54.9526)" style="fill: #263238"/>
      <path d="M215.3921,178.7122c3.1401-8.3398,9.8101-8.48,12.7002-6.27-.21.3901-.4302.78-.6501,1.1699a84.91817,84.91817,0,0,1-5.1499,7.9102,65.37687,65.37687,0,0,1-6.2701,7.3799c-.7199.7099-1.4599,1.4101-2.2299,2.09A32.04535,32.04535,0,0,1,215.3921,178.7122Z" transform="translate(0 -54.9526)" style="opacity: 0.30000000000000004"/>
      <path d="M175.9772,172.7939l-6.4969.2312,1.6247-6.9402a33.64619,33.64619,0,0,1,6.6273.963,2.62521,2.62521,0,0,1,1.4044,3.9574l-.0036.0056A3.935,3.935,0,0,1,175.9772,172.7939Z" transform="translate(0 -54.9526)" style="fill: #ff8b7b"/>
      <path d="M179.639,166.9155a6.33725,6.33725,0,0,0-2.1444-1.1063c-.5482,2.8366-3.9648,7.6352-3.9648,7.6352h2.7069a2.39253,2.39253,0,0,0,1.8368-.8593l1.8961-2.2711A2.38923,2.38923,0,0,0,179.639,166.9155Z" transform="translate(0 -54.9526)" style="fill: #407bff"/>
      <polygon points="164.517 114.88 166.345 109.978 171.105 111.132 169.48 118.073 164.517 114.88" style="fill: #ff8b7b"/>
      <g>
        <polygon points="246.25 353.968 238.837 353.968 238.581 336.8 245.994 336.8 246.25 353.968" style="fill: #ff8b7b"/>
        <path d="M238.4479,408.06222h8.3288a.53032.53032,0,0,1,.5497.5063l.4038,6.5898a1.31372,1.31372,0,0,1-1.2977,1.3183c-2.8996-.05-4.2848-.2205-7.9476-.2205-2.2533,0-9.7859.2341-12.8977.2341-3.0434,0-3.0229-3.0769-1.7041-3.3556,5.9132-1.2495,11.1946-2.9727,13.2879-4.61662A2.08941,2.08941,0,0,1,238.4479,408.06222Z" transform="translate(0 -54.9526)" style="fill: #263238"/>
        <polygon points="245.996 336.804 238.579 336.804 238.715 345.654 246.131 345.654 245.996 336.804" style="opacity: 0.2"/>
        <path d="M232.7397,220.7219s-2.8311,64.41142-1.6287,85.63692c1.3168,23.2434,4.0818,92.1114,4.0818,92.1114h13.5785s3.4233-66.99122,4.2413-90.0044c.8878-24.977,4.914-87.74392,4.914-87.74392Z" transform="translate(0 -54.9526)" style="fill: #407bff"/>
        <polygon points="249.319 343.518 234.646 343.518 233.528 338.061 249.722 338.867 249.319 343.518" style="fill: #263238"/>
        <path d="M235.8201,409.35382a9.25641,9.25641,0,0,0,1.9756-.2652.17136.17136,0,0,0,.1303-.1352.17317.17317,0,0,0-.0708-.1743c-.2368-.1646-2.3354-1.5992-3.2407-1.2437a.6481.6481,0,0,0-.4023.4893.94872.94872,0,0,0,.2163.9375A2.00121,2.00121,0,0,0,235.8201,409.35382Zm1.5005-.5157c-1.3262.2642-2.3028.2232-2.6489-.12112a.62041.62041,0,0,1-.1226-.61708.30544.30544,0,0,1,.1909-.2427C235.2273,407.66632,236.4607,408.29082,237.3206,408.83812Z" transform="translate(0 -54.9526)" style="fill: #263238"/>
        <path d="M237.7566,409.093a.17426.17426,0,0,0,.0791-.019.1724.1724,0,0,0,.0928-.13918c.0073-.0903.1738-2.2226-.5742-2.9433a.86307.86307,0,0,0-.7325-.2412.662.662,0,0,0-.6264.5229c-.1709.8086.9346,2.356,1.6728,2.7959A.17345.17345,0,0,0,237.7566,409.093Zm-1.0132-3.00488a.51236.51236,0,0,1,.3711.15188,3.84213,3.84213,0,0,1,.4868,2.355c-.6445-.54448-1.3803-1.72018-1.268-2.25048.021-.1011.0781-.2212.3296-.25152A.66684.66684,0,0,1,236.7434,406.08812Z" transform="translate(0 -54.9526)" style="fill: #263238"/>
      </g>
      <path d="M261.6442,160.9383a4.7147,4.7147,0,0,0-3.9615-5.4939l-.0861-.0126c-2.39-.3501-5.39-.7099-8.3301-.8501a147.97983,147.97983,0,0,0-16.8498,0c-2.5901.2403-5.1202.6704-7.1402,1.0601l-.0771.0156a7.09931,7.09931,0,0,0-5.3942,4.9416c-2.4175,8.1533-5.3012,24.7921-1.5287,60.1229h39.6501c.28-3.5401-.5097-15.0589.0699-29.73A233.74891,233.74891,0,0,1,261.6442,160.9383Z" transform="translate(0 -54.9526)" style="fill: #263238"/>
      <path d="M261.2622,163.1224c-.8227,4.7417-1.8369,11.185-2.5356,17.9673,0,0-3.6173-7.0975-4.2762-13.1708S258.9644,161.4189,261.2622,163.1224Z" transform="translate(0 -54.9526)" style="opacity: 0.30000000000000004"/>
      <g style="opacity: 0.2">
        <g>
          <path d="M234.668,164.0571a.37506.37506,0,0,1-.1729-.708l12.3604-6.4092a.37523.37523,0,0,1,.3457.6661l-12.3604,6.4091A.37763.37763,0,0,1,234.668,164.0571Z" transform="translate(0 -54.9526)" style="fill: #fff"/>
          <path d="M240.3301,164.6431a.373.373,0,0,1-.2647-.1094l-6.7715-6.7378a.375.375,0,0,1,.5293-.5313l6.7715,6.7378a.375.375,0,0,1-.2646.6407Z" transform="translate(0 -54.9526)" style="fill: #fff"/>
        </g>
        <path d="M249.2617,154.5801a147.66768,147.66768,0,0,0-16.8401,0c-.0901.01-.1899.0199-.28.0299a3.97659,3.97659,0,0,0,.4302,3.0699c.9399,1.5,2.9099,2.3401,5.8698,2.5q.5703.03015,1.1102.0301c8.0498,0,11.0898-4.86,11.2199-5.07l.2801-.4501C250.4517,154.65,249.8616,154.61,249.2617,154.5801Z" transform="translate(0 -54.9526)" style="fill: #fff"/>
      </g>
      <path d="M233.2166,154.5218c4.9001-1.1597,5.76-4.19,5.4299-7.5196a19.87346,19.87346,0,0,0-.3901-2.4804l6.1401-5.0996,4.5103-3.7403c-1.25,5.4302-2.6602,15.3203,1.0097,18.94,0,0-3.0378,5.0077-11.4243,4.5547C231.4089,158.7939,233.2166,154.5218,233.2166,154.5218Z" transform="translate(0 -54.9526)" style="fill: #ff8b7b"/>
      <path d="M238.2565,144.5217a19.91056,19.91056,0,0,1,.3901,2.4804c2.29-.4604,5.3499-2.9003,5.67-5.2402a10.654,10.654,0,0,0,.08-2.3398Z" transform="translate(0 -54.9526)" style="opacity: 0.2"/>
      <path d="M234.9733,118.5c-3.3333,1.9583-2.8019,7.0028-3.7083,10.5833,2.125.2084,5.4636-3.5601,5.4636-3.5601l1.9947-5.7315Z" transform="translate(0 -54.9526)" style="fill: #263238"/>
      <path d="M252.7132,128.5586c-2.1304,7.0635-3.0165,11.293-7.5202,14.2374a9.59059,9.59059,0,0,1-14.9242-8.1036c-.0299-6.7345,3.4589-17.1542,11.1799-18.5925A9.70408,9.70408,0,0,1,252.7132,128.5586Z" transform="translate(0 -54.9526)" style="fill: #ff8b7b"/>
      <path d="M246.0566,134.5511c4.9952-5.8011-1.2512-8.6622,3.8599-12.69-5.75.2711-15.2167-.1389-16.9064-4.0833S236.5202,108.5,240.8482,108c5.0355-.5817,3.9168,5.6111,3.9168,5.6111s19.1389-1.1944,13.0626,6.9445c4.604-.2778,3.3369,7.1666-4.6684,13.4444C251.1539,134.7222,246.0566,134.5511,246.0566,134.5511Z" transform="translate(0 -54.9526)" style="fill: #263238"/>
      <path d="M256.6816,120.7083s3.9406-1.1666,3.8037-4.2916C261.9108,117.3958,262.0566,120.375,256.6816,120.7083Z" transform="translate(0 -54.9526)" style="fill: #263238"/>
      <path d="M253.8793,135.9294a7.91714,7.91714,0,0,1-4.5453,2.7703c-2.2692.4127-2.8037-1.6879-1.6705-3.7348,1.02-1.8424,3.4298-4.2772,5.4656-3.762C255.1349,131.7106,255.3337,134.1424,253.8793,135.9294Z" transform="translate(0 -54.9526)" style="fill: #ff8b7b"/>
      <path d="M241.3179,128.3761c-.1375.5823-.5596.9923-.943.9158s-.5826-.6107-.4451-1.193.5596-.9923.9429-.9158S241.4553,127.7938,241.3179,128.3761Z" transform="translate(0 -54.9526)" style="fill: #263238"/>
      <path d="M234.6898,127.0524c-.1374.5823-.5596.9923-.9429.9158s-.5826-.6107-.4452-1.193.5596-.9923.9429-.9158S234.8273,126.4701,234.6898,127.0524Z" transform="translate(0 -54.9526)" style="fill: #263238"/>
      <path d="M236.7286,127.763a22.36876,22.36876,0,0,1-3.9768,4.4209,3.39946,3.39946,0,0,0,2.678,1.0816Z" transform="translate(0 -54.9526)" style="fill: #ff5652"/>
      <path d="M237.455,135.3124a5.14936,5.14936,0,0,0,3.8418-1.2386.17545.17545,0,1,0-.2447-.2515,4.92417,4.92417,0,0,1-4.2187,1.0492.1755.1755,0,1,0-.0683.3443A5.83588,5.83588,0,0,0,237.455,135.3124Z" transform="translate(0 -54.9526)" style="fill: #263238"/>
      <path d="M243.8772,126.7637a.35108.35108,0,0,0,.3467-.4958,3.372,3.372,0,0,0-2.4784-1.9795.34613.34613,0,0,0-.3928.3036.351.351,0,0,0,.3031.3927,2.673,2.673,0,0,1,1.9289,1.5747A.35142.35142,0,0,0,243.8772,126.7637Z" transform="translate(0 -54.9526)" style="fill: #263238"/>
      <path d="M233.0475,123.0716a.3511.3511,0,0,0,.3236-.0569,2.94143,2.94143,0,0,1,2.5238-.5981.35106.35106,0,0,0,.2134-.6689l-.0018-.0006a3.62437,3.62437,0,0,0-3.1662.7133.3511.3511,0,0,0,.1072.6112Z" transform="translate(0 -54.9526)" style="fill: #263238"/>
      <path d="M262.0278,158.085l.836,1.1372.7487,1.0626c.4939.7059.9463,1.4194,1.4126,2.1298.9158,1.4222,1.7701,2.8732,2.6058,4.3311a97.4036,97.4036,0,0,1,4.5175,9.0021c.6993,1.5265,1.3057,3.1008,1.9444,4.656.5622,1.5928,1.1758,3.1582,1.6687,4.7792a88.74859,88.74859,0,0,1,2.6003,9.8273l.0823.3772a5.22832,5.22832,0,0,1-.7175,3.9406,28.37251,28.37251,0,0,1-4.5489,5.3925,23.47267,23.47267,0,0,1-5.9795,4.0274,21.55928,21.55928,0,0,1-6.8618,1.901,20.96994,20.96994,0,0,1-3.4944.064c-.5808-.0445-1.1591-.1116-1.7402-.2026-.291-.0477-.582-.1072-.8796-.1724l-1.0061-.2442a.46152.46152,0,0,1-.3396-.5573l1.3835-5.797c.011-.0455.2637-.0612.4197-.0992l.5522-.1122c.3745-.0758.7522-.1665,1.1253-.2719a16.95269,16.95269,0,0,0,2.175-.7513,15.712,15.712,0,0,0,3.7852-2.2339,19.08955,19.08955,0,0,0,5.2654-6.8466l-.6353,4.3175c-.8577-2.8271-1.7637-5.6368-2.8723-8.3984-1.0801-2.7648-2.2913-5.4914-3.6052-8.1732-1.3169-2.6787-2.7088-5.3305-4.2176-7.9076-.7424-1.295-1.5256-2.5625-2.3015-3.825l-1.1904-1.8551-.5925-.9029-.545-.8012-.1999-.294a6.49535,6.49535,0,0,1,10.6047-7.4995Z" transform="translate(0 -54.9526)" style="fill: #263238"/>
      <path d="M248.7843,209.4783l-2.1589,3.5253,9.3381-.3771s2.444-6.2789-.8984-7.2702l-1.2902.3584A8.52875,8.52875,0,0,0,248.7843,209.4783Z" transform="translate(0 -54.9526)" style="fill: #ff8b7b"/>
      <path d="M252.6194,204.5483a6.33668,6.33668,0,0,0-1.7015,1.711c2.5392,1.3781,6.0839,6.0829,6.0839,6.0829l.8164-2.5809a2.39262,2.39262,0,0,0-.2653-2.0105l-1.5936-2.4927A2.38925,2.38925,0,0,0,252.6194,204.5483Z" transform="translate(0 -54.9526)" style="fill: #407bff"/>
      <polygon points="247.447 163.469 255.142 162.786 255.963 157.674 246.625 158.051 247.447 163.469" style="fill: #ff8b7b"/>
    </g>
  </g>
  <g id="Clock">
    <g>
      <path d="M153.0566,96.3369l-.5097-.8603a34.70249,34.70249,0,0,1,4.5761-2.273l.377.9258A33.65668,33.65668,0,0,0,153.0566,96.3369Z" transform="translate(0 -54.9526)" style="fill: #407bff"/>
      <path d="M138.4551,113.9487l-.9414-.3398a34.73658,34.73658,0,0,1,12.2588-16.3047l.5898.8076A33.72842,33.72842,0,0,0,138.4551,113.9487Z" transform="translate(0 -54.9526)" style="fill: #407bff"/>
      <circle cx="170.1983" cy="70.4372" r="30.778" style="fill: #407bff"/>
      <path d="M195.91,125.3879a25.70627,25.70627,0,1,1-6.7171-17.3357c.0116,0,.0347.0116.0463.0462A25.64919,25.64919,0,0,1,195.91,125.3879Z" transform="translate(0 -54.9526)" style="fill: #fff;opacity: 0.6000000000000001"/>
      <path d="M195.91,125.3879a25.71177,25.71177,0,0,1-43.1544,18.8938,25.7084,25.7084,0,0,1,36.4373-36.2295c.0116,0,.0347.0116.0463.0462A25.64919,25.64919,0,0,1,195.91,125.3879Z" transform="translate(0 -54.9526)" style="fill: #fff"/>
      <path d="M170.1982,126.8896a1.49505,1.49505,0,0,1-1.0605-.4394l-12.54-12.5396a1.49977,1.49977,0,0,1,2.121-2.121l11.4795,11.479,6.6309-6.6309a1.49984,1.49984,0,1,1,2.1211,2.1211l-7.6914,7.6914A1.49511,1.49511,0,0,1,170.1982,126.8896Z" transform="translate(0 -54.9526)" style="fill: #263238"/>
    </g>
  </g>
</svg>
