<svg xmlns="http://www.w3.org/2000/svg" viewBox="0 0 500 372.6"><g data-name="Background Complete"><g fill="#ebebeb"><path d="M0 327.4h500v.3H0zM416.8 343.5h33.1v.3h-33.1zM322.5 346.3h8.7v.3h-8.7zM396.6 334.3h19.2v.3h-19.2zM52.5 335.9h43.2v.3H52.5zM104.6 335.9h6.3v.3h-6.3zM131.5 340.2h93.7v.3h-93.7zM237 282.8H44a5.7 5.7 0 01-5.8-5.7V5.7A5.7 5.7 0 0144 0H237a5.7 5.7 0 015.7 5.7v271.4a5.7 5.7 0 01-5.7 5.7zM44 .2a5.5 5.5 0 00-5.5 5.5v271.4a5.5 5.5 0 005.4 5.5H237a5.5 5.5 0 005.5-5.5V5.7A5.5 5.5 0 00237 .2zM453.3 282.8h-193a5.7 5.7 0 01-5.8-5.7V5.7a5.7 5.7 0 015.7-5.7h193.1a5.7 5.7 0 015.7 5.7v271.4a5.7 5.7 0 01-5.7 5.7zM260.3.2a5.5 5.5 0 00-5.5 5.5v271.4a5.5 5.5 0 005.4 5.5h193.1a5.5 5.5 0 005.5-5.5V5.7a5.5 5.5 0 00-5.5-5.5z"/></g><path fill="#f0f0f0" d="M254.7 103.1H431v223.2H254.7z"/><path fill="#e0e0e0" d="M261 111.2h163.8v47.7H261z"/><path fill="#ebebeb" d="M261 119h9.3v40H261zM306 119h9.3v40H306zM357.2 119.5l9.1-1.5 6.8 39.4-9.1 1.6zM272.5 124.2h9.3v34.7h-9.3zM293.9 124.2h9.3v34.7h-9.3zM347.9 124.2h9.3v34.7h-9.3zM318.4 125l9.1-2 7.6 34-9.1 2zM285.2 117h4.7v42h-4.7zM340.6 117h4.7v42h-4.7z"/><g><path fill="#e0e0e0" d="M424.8 214.2H261v-47.7h163.8z"/><path fill="#ebebeb" d="M424.8 214.3h-9.3v-40h9.3zM379.8 214.3h-9.3v-40h9.3zM321.8 214.3l-9.1-1.6 6.8-39.4 9.1 1.6zM413.2 214.2H404v-34.7h9.3zM391.9 214.2h-9.3v-34.7h9.3zM337.9 214.2h-9.3v-34.7h9.3zM359.8 214.2l-9-2 7.5-33.9 9 2zM400.6 214.3h-4.7v-42h4.7zM345.2 214.3h-4.7v-42h4.7zM261 174.3h9.3v40H261zM272.5 179.5h9.3v34.7h-9.3zM293.9 179.5h9.3v34.7h-9.3zM285.2 172.3h4.7v42h-4.7z"/></g><g><path fill="#e0e0e0" d="M261 221.8h163.8v47.7H261z"/><g fill="#ebebeb"><path d="M355 229.5h9.3v40H355zM406.3 230.1l9.1-1.6 6.8 39.5-9.1 1.5zM321.5 234.8h9.3v34.7h-9.3zM342.9 234.8h9.3v34.7h-9.3zM396.9 234.8h9.3v34.7h-9.3zM367.4 235.7l9.1-2 7.6 33.8-9.1 2zM334.2 227.6h4.7v42h-4.7zM389.6 227.6h4.7v42h-4.7zM299.2 230.1l9.1-1.6 6.8 39.5-9.1 1.5zM289.9 234.8h9.3v34.7h-9.3zM260.4 235.7l9-2 7.6 33.8-9.1 2zM282.5 227.6h4.7v42h-4.7z"/></g></g><g><path fill="#e0e0e0" d="M52.3 89.9h130.4v6.7H52.3z"/><path fill="#ebebeb" d="M58.3 65.2H64v24.7h-5.7zM86.1 65.2h5.7v24.7h-5.7zM117.7 65.5l5.7-1 4.2 24.4-5.7 1zM65.4 68.4h5.7v21.4h-5.7zM78.6 68.4h5.7v21.4h-5.7zM112 68.4h5.7v21.4H112zM93.7 69l5.6-1.3 4.6 20.9-5.5 1.2zM73.2 63.9h2.9v25.9h-2.9zM107.4 63.9h2.9v25.9h-2.9zM142.2 70.3h28v19.3h-28z"/></g><g><path fill="#e0e0e0" d="M182.7 146.6H52.3v-6.7h130.4z"/><path fill="#ebebeb" d="M176.7 139.9H171v-24.7h5.7zM149 139.9h-5.8v-24.7h5.7zM113.1 140l-5.6-1 4.2-24.4 5.6 1zM169.6 140H164v-21.5h5.7zM156.4 140h-5.7v-21.5h5.7zM123 140h-5.7v-21.5h5.7zM136.6 140l-5.5-1.3 4.6-20.9 5.6 1.3zM161.7 140h-2.9v-26h3zM127.6 140h-3v-26h3zM92.8 139.7h-28v-19.3h28z"/></g></g><ellipse cx="250" cy="361.3" fill="#f5f5f5" data-name="&lt;Path&gt;" rx="193.9" ry="11.3"/><path fill="#407bff" d="M85 339.6s4.4-9.4-.6-18.7-6.3-11.4-3.2-13.3 4.6 7.4 4.6 7.4a21 21 0 00.5-13.1c-2.2-6.8-3.6-17.7-.6-18.8s.6 13.6 3.1 18.6a43.4 43.4 0 002.6-11c.3-5.4-.2-14 2.1-16.2s3.9-.7 1.6 11.2a124.3 124.3 0 00-2.3 21.6s5.1-15.6 8.5-16 3.5 4.5.5 9-8.6 12.1-9.5 16.2c0 0 5.6-11.8 10.7-8.2s-4.4 10.7-8.7 13.3-7 18.6-7 18.6z"/><path fill="#fff" d="M85 339.6s4.4-9.4-.6-18.7-6.3-11.4-3.2-13.3 4.6 7.4 4.6 7.4a21 21 0 00.5-13.1c-2.2-6.8-3.6-17.7-.6-18.8s.6 13.6 3.1 18.6a43.4 43.4 0 002.6-11c.3-5.4-.2-14 2.1-16.2s3.9-.7 1.6 11.2a124.3 124.3 0 00-2.3 21.6s5.1-15.6 8.5-16 3.5 4.5.5 9-8.6 12.1-9.5 16.2c0 0 5.6-11.8 10.7-8.2s-4.4 10.7-8.7 13.3-7 18.6-7 18.6z" opacity=".6" style="isolation:isolate"/><path fill="#407bff" d="M88.4 343.4s-4.1-9.4.9-18.6 6.5-11.4 3.4-13.3-4.7 7.3-4.7 7.3a21 21 0 01-.3-13.1c2.3-6.7 3.8-17.6.8-18.8s-.7 13.6-3.4 18.6a43.5 43.5 0 01-2.4-11c-.3-5.4.4-14-2-16.2s-3.8-.8-1.6 11.1a124.5 124.5 0 012 21.6s-5-15.6-8.4-16.1c-3.4-.5-3.4 4.5-.6 9s8.5 12.3 9.4 16.3c0 0-5.5-11.8-10.6-8.3-5 3.6 4.3 10.8 8.5 13.4s6.9 18.7 6.9 18.7z"/><path fill="#fff" d="M88.4 343.4s-4.1-9.4.9-18.6 6.5-11.4 3.4-13.3-4.7 7.3-4.7 7.3a21 21 0 01-.3-13.1c2.3-6.7 3.8-17.6.8-18.8s-.7 13.6-3.4 18.6a43.5 43.5 0 01-2.4-11c-.3-5.4.4-14-2-16.2s-3.8-.8-1.6 11.1a124.5 124.5 0 012 21.6s-5-15.6-8.4-16.1c-3.4-.5-3.4 4.5-.6 9s8.5 12.3 9.4 16.3c0 0-5.5-11.8-10.6-8.3-5 3.6 4.3 10.8 8.5 13.4s6.9 18.7 6.9 18.7z" opacity=".7" style="isolation:isolate"/><path fill="#407bff" d="M69.1 336.7h34.7l-2.8 24.8H71.9l-2.8-24.8z"/><g><path fill="#407bff" d="M370 323.4h13.9v38.1H370z"/><path d="M379.9 323.4h4v38.1h-4z" opacity=".3" style="isolation:isolate"/><path fill="#407bff" d="M383.1 342.6h30.3v18.9h-30.3z"/><path fill="#fff" d="M383.1 342.6H402v18.9h-18.9z" opacity=".4" style="isolation:isolate"/><path fill="#407bff" d="M282.9 314.1h25.6v47.4h-25.6z"/><path d="M293.3 314.1h15.2v47.4h-15.2z" opacity=".3" style="isolation:isolate"/><g><path fill="#407bff" d="M322.9 314.1h25.6v47.4h-25.6z"/><path d="M333.3 314.1h15.2v47.4h-15.2z" opacity=".3" style="isolation:isolate"/></g><g><path fill="#407bff" d="M323 292h-19l-34.5 22.1h88L323 292z"/><path fill="#fff" d="M304 292l-34.5 22.1h69L304 292z" opacity=".4" style="isolation:isolate"/></g><g><path fill="#407bff" d="M363.6 351.4a10.1 10.1 0 01-20.1 1.2 8.2 8.2 0 01-.1-1.2 10.1 10.1 0 0116.5-7.8 10.1 10.1 0 013.7 7.8z"/><path fill="#fff" d="M360.9 347.7a9.4 9.4 0 01-17.4 4.9 8.2 8.2 0 01-.1-1.2 10.1 10.1 0 0116.5-7.8 9.4 9.4 0 011 4z" opacity=".4" style="isolation:isolate"/></g></g><g><rect width="41.4" height="41.4" x="221.7" y="31.5" fill="#263238" rx="3.5" ry="3.5"/><g style="isolation:isolate"><path fill="#407bff" d="M235.9 40.7l-5.8 4.1v18.8h18.7l5.8-4.1V40.7h-18.7z" style="isolation:isolate"/><path fill="#fff" d="M230.1 44.8h18.7v18.7h-18.7z" opacity=".2"/><path fill="#fff" d="M235.9 40.7h18.7v18.7h-18.7z" opacity=".2"/><path fill="#fff" d="M230.1 44.8l5.8-4.1h18.7l-5.8 4.1h-18.7z" opacity=".6"/><path d="M254.6 40.7v18.8l-5.8 4.1V44.8l5.8-4.1z" opacity=".3" style="isolation:isolate"/><path d="M230.1 63.6l5.8-4.1h18.7l-5.8 4.1h-18.7z" opacity=".3" style="isolation:isolate"/></g><path fill="#263238" d="M270 31.5h34.4A3.5 3.5 0 01308 35v34.3a3.5 3.5 0 01-3.5 3.5h-34.3a3.5 3.5 0 01-3.5-3.5V35a3.5 3.5 0 013.5-3.5z"/><g style="isolation:isolate"><path style="fill:#407bff" fill="#407bff" d="M300 40.7v-.1a.5.5 0 000-.2.5.5 0 00-.1 0 .5.5 0 00-.1-.1.5.5 0 00-.2 0h-18.8a.5.5 0 00-.3 0l-5.8 4.1a.5.5 0 00-.1.1.5.5 0 00-.1.3V64a.5.5 0 00.5.2h18.7a.5.5 0 00.3-.1l5.8-4.1a.4.4 0 00.1-.1.5.5 0 00.2-.3zM294.3 59V45.1l1.9-1.3 2.9-2v17.1zm-18.7-13.5h4.8v13.8l-4.8 3.3zM281 60h12.2v3h-16.6zm.3-1V45.3h11.9v13.5zM298 41.2l-1.7 1.1-2.7 2h-12.2v-3.1zm-17.6.4v2.6h-3.7zm14 18.3h3.6l-3.7 2.5z"/><path fill="#fff" d="M300 40.6a.5.5 0 000-.2.5.5 0 00-.1 0 .5.5 0 00-.1-.1.5.5 0 00-.2 0v-.1h-18.8a.5.5 0 00-.3.1l-5.8 4.1a.5.5 0 00-.1.1.5.5 0 00-.1.3V64a.5.5 0 00.5.2h18.7a.5.5 0 00.3-.1l5.8-4.1a.4.4 0 00.1-.1.5.5 0 00.2-.3V40.7zm-19.7 1.1v2.6h-3.7zm-4.8 3.7h4.8v13.8l-4.8 3.3zM293.2 63h-16.6l4.4-3h12.2zm0-4h-11.9V45.3h11.9zm.3-14.7h-12.2v-3H298l-1.7 1.1zm.7 18.2V60h3.7zM299 59h-4.8V45.1l1.9-1.3 2.9-2z" opacity=".2"/></g><path fill="#263238" d="M180.3 31.5h34.3a3.5 3.5 0 013.5 3.5v34.3a3.5 3.5 0 01-3.5 3.5h-34.3a3.5 3.5 0 01-3.5-3.5V35a3.5 3.5 0 013.5-3.5z"/><path fill="#407bff" d="M191 40.7l-5.8 4.1v18.8h18.7l5.8-4.1V40.7H191z"/><path fill="#fff" d="M185.2 44.8l5.8-4.1h18.7l-5.8 4.1h-18.7z" opacity=".6"/><path d="M209.7 40.7v18.8l-5.8 4.1V44.8l5.8-4.1z" opacity=".3" style="isolation:isolate"/><path fill="#fff" d="M191 40.7l-5.8 4.1v18.8h18.7l5.8-4.1V40.7H191z" opacity=".2"/><g><path fill="#407bff" d="M448.3 229h.3-277.4L56.6 277h.4l-.3.1h276.7l.3-.1h.3l114.6-48zm-16.7 6.8h-24.2l15.8-6.6h24.2zm-233.5 14h24.2l-15.7 6.5h-24.2zm-16.6 6.5h-24.2l15.7-6.6h24.2zm116.9-6.8h-24.2l15.7-6.6h24.2zm16.6-6.6h24.2l-15.7 6.6h-24.2zm-66.6 6.8h24.2l-15.7 6.6h-24.2zm-16.7 6.6h-24.2l15.8-6.6h24.2zm41.8-6.6h24.2l-15.7 6.6h-24.2zm-.3-.2H249l15.8-6.6H289zm-25.1 0h-24.2l15.7-6.6h24.2zm-25.1 0h-24.2l15.7-6.6h24.2zm-17 7l-15.8 6.7H166l15.8-6.6zm.9 0H231l-15.8 6.7h-24.2zm25.1 0h24.2l-15.7 6.7h-24.2zm25.2 0h24.2l-15.8 6.7h-24.2zm25.1 0h24.2l-15.7 6.7h-24.2zm.6-.2l15.8-6.6h24.2l-15.8 6.6zm40.9-6.6H348l-15.7 6.6H308zm.6-.2l15.8-6.6h24.2l-15.8 6.6zm16.4-6.9l15.7-6.6h24.2l-15.7 6.6zm-1 0h-24.1l15.7-6.6h24.2zm-25 0h-24.3l15.8-6.6h24.2zm-25.2 0h-24.2l15.7-6.6h24.2zm-25.1 0h-24.2L256 236h24.2zm-25.2 0h-24.2L231 236H255zm-25.1 0H190l15.7-6.6H230zm-.6.3l-15.8 6.6h-24.2l15.8-6.6zm-41 6.6h-24.1l15.7-6.6h24.2zm-.5.2l-15.8 6.6h-24.2l15.8-6.6zm-16.4 6.9l-15.8 6.6h-24.2l15.8-6.6zm1 0h24.1l-15.7 6.6h-24.2zm7.8 6.8l-15.8 6.6h-24.2l15.8-6.6zm.9 0h24.2l-15.8 6.6h-24.2zm25.1 0h24.2L199 270h-24.2zm25.2 0h24.2L224 270H200zm25 0H265l-15.8 6.6H225zm25.2 0h24.2l-15.7 6.6h-24.2zm25.2 0h24.2l-15.8 6.6h-24.2zm.6-.2l15.7-6.6h24.2l-15.7 6.6zm40.9-6.6h24.2l-15.8 6.6h-24.2zm.6-.3l15.7-6.6h24.2l-15.7 6.6zm16.4-6.8l15.7-6.6h24.2l-15.7 6.6zm16.3-6.9l15.8-6.6h24.2l-15.8 6.6zm16.4-6.8l15.8-6.6h24.2l-15.8 6.6zm-1 0h-24.1l15.7-6.6h24.2zm-25 0H332l15.8-6.6H372zm-25.2 0H307l15.7-6.6H347zm-25.1 0h-24.2l15.7-6.6h24.2zm-25.2 0h-24.2l15.8-6.6h24.2zm-25.1 0h-24.2l15.7-6.6h24.2zm-25.1 0h-24.2l15.7-6.6h24.2zm-25.2 0h-24.2l15.8-6.6h24.2zm-.6.2l-15.7 6.6h-24.2l15.7-6.6zm-40.9 6.6h-24.2l15.8-6.6h24.2zm-.6.3l-15.7 6.6h-24.2l15.7-6.6zm-16.4 6.8l-15.7 6.6H107l15.7-6.6zm-16.3 6.9l-15.8 6.6H90.6l15.8-6.6zm-16.4 6.8L98.4 270H74.2l15.8-6.6zm1 0h24.1l-15.7 6.6H99.4zm7.7 6.9l-15.7 6.5H83l15.7-6.5zm1 0H148l-15.8 6.5h-24.2zm25.1 0h24.2l-15.7 6.5h-24.2zm25.2 0h24.2l-15.8 6.5h-24.2zm25 0h24.3l-15.8 6.5h-24.2zm25.2 0h24.2l-15.7 6.5h-24.2zm25.2 0h24.2l-15.8 6.5h-24.2zm25 0H299l-15.8 6.5H259zm25.2 0H324l-15.7 6.5H284zm.7-.3l15.7-6.6h24.2l-15.7 6.6zm40.8-6.6h24.2l-15.7 6.6h-24.2zm.7-.2l15.7-6.6h24.2l-15.7 6.6zm16.3-6.9l15.8-6.6h24.2l-15.8 6.6zm16.4-6.8l15.7-6.6h24.2l-15.7 6.6zm16.4-6.9l15.7-6.6H431l-15.7 6.6zm-195-13.4l-15.8 6.6h-24.2l15.7-6.6zm-122.5 41h24.2l-15.7 6.6H57.9zm235.6 6.6l15.8-6.5h24.2l-15.8 6.5z"/><path style="fill:#fff" fill="#fff" d="M448.3 229h.3-277.4L56.6 277h.4l-.3.1h276.7l.3-.1h.3l114.6-48zm-16.7 6.8h-24.2l15.8-6.6h24.2zm-233.5 14h24.2l-15.7 6.5h-24.2zm-16.6 6.5h-24.2l15.7-6.6h24.2zm116.9-6.8h-24.2l15.7-6.6h24.2zm16.6-6.6h24.2l-15.7 6.6h-24.2zm-66.6 6.8h24.2l-15.7 6.6h-24.2zm-16.7 6.6h-24.2l15.8-6.6h24.2zm41.8-6.6h24.2l-15.7 6.6h-24.2zm-.3-.2H249l15.8-6.6H289zm-25.1 0h-24.2l15.7-6.6h24.2zm-25.1 0h-24.2l15.7-6.6h24.2zm-17 7l-15.8 6.7H166l15.8-6.6zm.9 0H231l-15.8 6.7h-24.2zm25.1 0h24.2l-15.7 6.7h-24.2zm25.2 0h24.2l-15.8 6.7h-24.2zm25.1 0h24.2l-15.7 6.7h-24.2zm.6-.2l15.8-6.6h24.2l-15.8 6.6zm40.9-6.6H348l-15.7 6.6H308zm.6-.2l15.8-6.6h24.2l-15.8 6.6zm16.4-6.9l15.7-6.6h24.2l-15.7 6.6zm-1 0h-24.1l15.7-6.6h24.2zm-25 0h-24.3l15.8-6.6h24.2zm-25.2 0h-24.2l15.7-6.6h24.2zm-25.1 0h-24.2L256 236h24.2zm-25.2 0h-24.2L231 236H255zm-25.1 0H190l15.7-6.6H230zm-.6.3l-15.8 6.6h-24.2l15.8-6.6zm-41 6.6h-24.1l15.7-6.6h24.2zm-.5.2l-15.8 6.6h-24.2l15.8-6.6zm-16.4 6.9l-15.8 6.6h-24.2l15.8-6.6zm1 0h24.1l-15.7 6.6h-24.2zm7.8 6.8l-15.8 6.6h-24.2l15.8-6.6zm.9 0h24.2l-15.8 6.6h-24.2zm25.1 0h24.2L199 270h-24.2zm25.2 0h24.2L224 270H200zm25 0H265l-15.8 6.6H225zm25.2 0h24.2l-15.7 6.6h-24.2zm25.2 0h24.2l-15.8 6.6h-24.2zm.6-.2l15.7-6.6h24.2l-15.7 6.6zm40.9-6.6h24.2l-15.8 6.6h-24.2zm.6-.3l15.7-6.6h24.2l-15.7 6.6zm16.4-6.8l15.7-6.6h24.2l-15.7 6.6zm16.3-6.9l15.8-6.6h24.2l-15.8 6.6zm16.4-6.8l15.8-6.6h24.2l-15.8 6.6zm-1 0h-24.1l15.7-6.6h24.2zm-25 0H332l15.8-6.6H372zm-25.2 0H307l15.7-6.6H347zm-25.1 0h-24.2l15.7-6.6h24.2zm-25.2 0h-24.2l15.8-6.6h24.2zm-25.1 0h-24.2l15.7-6.6h24.2zm-25.1 0h-24.2l15.7-6.6h24.2zm-25.2 0h-24.2l15.8-6.6h24.2zm-.6.2l-15.7 6.6h-24.2l15.7-6.6zm-40.9 6.6h-24.2l15.8-6.6h24.2zm-.6.3l-15.7 6.6h-24.2l15.7-6.6zm-16.4 6.8l-15.7 6.6H107l15.7-6.6zm-16.3 6.9l-15.8 6.6H90.6l15.8-6.6zm-16.4 6.8L98.4 270H74.2l15.8-6.6zm1 0h24.1l-15.7 6.6H99.4zm7.7 6.9l-15.7 6.5H83l15.7-6.5zm1 0H148l-15.8 6.5h-24.2zm25.1 0h24.2l-15.7 6.5h-24.2zm25.2 0h24.2l-15.8 6.5h-24.2zm25 0h24.3l-15.8 6.5h-24.2zm25.2 0h24.2l-15.7 6.5h-24.2zm25.2 0h24.2l-15.8 6.5h-24.2zm25 0H299l-15.8 6.5H259zm25.2 0H324l-15.7 6.5H284zm.7-.3l15.7-6.6h24.2l-15.7 6.6zm40.8-6.6h24.2l-15.7 6.6h-24.2zm.7-.2l15.7-6.6h24.2l-15.7 6.6zm16.3-6.9l15.8-6.6h24.2l-15.8 6.6zm16.4-6.8l15.7-6.6h24.2l-15.7 6.6zm16.4-6.9l15.7-6.6H431l-15.7 6.6zm-195-13.4l-15.8 6.6h-24.2l15.7-6.6zm-122.5 41h24.2l-15.7 6.6H57.9zm235.6 6.6l15.8-6.5h24.2l-15.8 6.5z" opacity=".4"/></g><g><path fill="#407bff" d="M358.5 35.5a34.3 34.3 0 1034.3 34.3 34.4 34.4 0 00-34.3-34.3zm32.3 33.3h-27.3l25.2-10.6a32.1 32.1 0 012.1 10.6zM388 56.4l-28.4 11.9V37.5A32.4 32.4 0 01388 56.4zm-30.4-19v31.4h-31.3a32.3 32.3 0 0131.3-31.3zm-4 33.4l-25.2 10.5a32.1 32.1 0 01-2-10.5zm-24.4 12.4l28.4-12v30.9a32.4 32.4 0 01-28.4-19zm30.4 18.9V70.8h31.3a32.3 32.3 0 01-31.3 31.3z"/><path style="fill:#fff" fill="#fff" d="M358.5 35.5a34.3 34.3 0 1034.3 34.3 34.4 34.4 0 00-34.3-34.3zm32.3 33.3h-27.3l25.2-10.6a32.1 32.1 0 012.1 10.6zM388 56.4l-28.4 11.9V37.5A32.4 32.4 0 01388 56.4zm-30.4-19v31.4h-31.3a32.3 32.3 0 0131.3-31.3zm-4 33.4l-25.2 10.5a32.1 32.1 0 01-2-10.5zm-24.4 12.4l28.4-12v30.9a32.4 32.4 0 01-28.4-19zm30.4 18.9V70.8h31.3a32.3 32.3 0 01-31.3 31.3z" opacity=".6"/><path fill="#407bff" d="M358.5 31.5l-2.3 6.5h4.7l-2.4-6.5zM396.8 69.8l-6.5-2.4v4.7l6.5-2.3zM323.5 84.6l7-.4-1.9-4.3-5.1 4.7z"/><g fill="none" stroke="#407bff" stroke-linecap="round" stroke-linejoin="round" stroke-width="2"><path d="M358.5 69.8l-30.7 12.8M358.5 36.5v33.3M391.8 69.8h-33.3"/></g></g><g><rect width="45.2" height="11.6" x="400.3" y="158.8" fill="#407bff" rx="2.8" ry="2.8"/><rect width="45.2" height="11.6" x="400.3" y="158.8" fill="#fff" opacity=".4" rx="2.8" ry="2.8" style="isolation:isolate"/><rect width="45.2" height="11.6" x="400.3" y="172.2" fill="#407bff" rx="2.8" ry="2.8"/><rect width="45.2" height="11.6" x="400.3" y="172.2" fill="#fff" opacity=".4" rx="2.8" ry="2.8" style="isolation:isolate"/><rect width="45.2" height="11.6" x="400.3" y="185.6" fill="#407bff" rx="2.8" ry="2.8"/><rect width="45.2" height="11.6" x="400.3" y="185.6" fill="#fff" opacity=".4" rx="2.8" ry="2.8" style="isolation:isolate"/><g><rect width="45.2" height="11.6" x="400.3" y="199" fill="#407bff" rx="2.8" ry="2.8"/><rect width="45.2" height="11.6" x="400.3" y="199" fill="#fff" opacity=".4" rx="2.8" ry="2.8" style="isolation:isolate"/></g><g><rect width="45.2" height="11.6" x="400.3" y="212.4" fill="#407bff" rx="2.8" ry="2.8"/><rect width="45.2" height="11.6" x="400.3" y="212.4" fill="#fff" opacity=".4" rx="2.8" ry="2.8" style="isolation:isolate"/></g></g><g><path fill="#407bff" d="M412.5 31.5H444a1.6 1.6 0 011.6 1.5v95.7a1.6 1.6 0 01-1.6 1.5h-31.4a1.6 1.6 0 01-1.5-1.5V33a1.6 1.6 0 011.5-1.5z"/><g fill="#fff"><path d="M416.4 35.4h9.2a1.4 1.4 0 011.4 1.4V46a1.4 1.4 0 01-1.4 1.3h-9.2A1.4 1.4 0 01415 46v-9.2a1.4 1.4 0 011.4-1.4z" opacity=".4" style="isolation:isolate"/><rect width="12" height="12" x="429.5" y="35.4" opacity=".4" rx="1.4" ry="1.4" style="isolation:isolate"/><path d="M416.4 49.4h9.2a1.4 1.4 0 011.4 1.4V60a1.4 1.4 0 01-1.4 1.3h-9.2A1.4 1.4 0 01415 60v-9.2a1.4 1.4 0 011.4-1.4z" opacity=".4" style="isolation:isolate"/><rect width="12" height="12" x="429.5" y="49.4" opacity=".4" rx="1.4" ry="1.4" style="isolation:isolate"/><path d="M416.4 63.4h9.2a1.4 1.4 0 011.4 1.4V74a1.4 1.4 0 01-1.4 1.3h-9.2A1.4 1.4 0 01415 74v-9.2a1.4 1.4 0 011.4-1.4z" opacity=".4" style="isolation:isolate"/><rect width="12" height="12" x="429.5" y="63.4" opacity=".4" rx="1.4" ry="1.4" style="isolation:isolate"/><path d="M416.4 77.4h9.2a1.4 1.4 0 011.4 1.4V88a1.4 1.4 0 01-1.4 1.3h-9.2A1.4 1.4 0 01415 88v-9.2a1.4 1.4 0 011.4-1.4z" opacity=".4" style="isolation:isolate"/><rect width="12" height="12" x="429.5" y="77.4" opacity=".4" rx="1.4" ry="1.4" style="isolation:isolate"/><path d="M416.4 114.4h9.2a1.4 1.4 0 011.4 1.4v9.2a1.4 1.4 0 01-1.4 1.3h-9.2a1.4 1.4 0 01-1.4-1.3v-9.2a1.4 1.4 0 011.4-1.4z" opacity=".4" style="isolation:isolate"/><rect width="12" height="12" x="429.5" y="114.4" opacity=".4" rx="1.4" ry="1.4" style="isolation:isolate"/><path d="M416.4 100.4h9.2a1.4 1.4 0 011.4 1.4v9.2a1.4 1.4 0 01-1.4 1.3h-9.2a1.4 1.4 0 01-1.4-1.3v-9.2a1.4 1.4 0 011.4-1.4z" opacity=".4" style="isolation:isolate"/><rect width="12" height="12" x="429.5" y="100.4" opacity=".4" rx="1.4" ry="1.4" style="isolation:isolate"/></g></g></g><g data-name="3D model"><path fill="#407bff" d="M270.4 181.5c-13.2-17.8-29.6-28-36.8-22.7l-33 24.2c-7.2 5.3-2.4 24.1 10.7 42s29.6 28 36.8 22.7l33-24.3c7.2-5.3 2.4-24-10.7-41.9z"/><ellipse cx="257.3" cy="246.1" fill="#fff" opacity=".4" rx="16.2" ry="40.1" style="isolation:isolate" transform="rotate(-36.3 173.5 218.6)"/><path fill="#407bff" d="M231 210.5c-6.6-9-14.8-14-18.4-11.4L170 230.3c-3.6 2.6-1.2 12 5.4 21s14.8 14 18.4 11.3l42.4-31.2c3.6-2.6 1.2-12-5.3-21z"/><path d="M236.3 231.4l-11.4 8.4a94 94 0 01-23.8-32.3l11.5-8.4c3.6-2.6 11.8 2.5 18.4 11.4s9 18.3 5.3 21z" opacity=".3" style="isolation:isolate"/><ellipse cx="224.4" cy="270.2" fill="#fff" opacity=".3" rx="8.1" ry="20.1" style="isolation:isolate" transform="rotate(-36.3 140.7 242.8)"/><path d="M193.9 262.6c-3.6 2.7-11.8-2.4-18.4-11.3s-9-18.4-5.4-21 11.9 2.4 18.4 11.4 9 18.3 5.4 21z" opacity=".3" style="isolation:isolate"/><ellipse cx="224.3" cy="270.3" opacity=".3" rx="16.2" ry="40.1" style="isolation:isolate" transform="rotate(-36.3 140.5 242.8)"/><g><path fill="#407bff" d="M297.8 161.3c-22.6-30.8-51-48.4-63.5-39.2L216 135.5c-12.5 9.2-4.2 41.6 18.5 72.4s51.1 48.4 63.5 39.3l18.3-13.5c12.5-9.1 4.2-41.5-18.5-72.4z"/><ellipse cx="257" cy="246.3" opacity=".3" rx="27.9" ry="69.3" style="isolation:isolate" transform="rotate(-36.3 173.2 218.8)"/><ellipse cx="275.3" cy="232.8" fill="#fff" opacity=".4" rx="27.9" ry="69.3" style="isolation:isolate" transform="rotate(-36.3 191.5 205.4)"/></g><g><path fill="#407bff" d="M325 141.3c-13-17.8-29.6-28-36.8-22.7l-33 24.2c-7.2 5.3-2.4 24.1 10.8 42s29.6 28 36.8 22.7l33-24.3c7.2-5.2 2.4-24-10.8-41.9z"/><ellipse cx="279" cy="230.1" opacity=".3" rx="16.2" ry="40.1" style="isolation:isolate" transform="rotate(-36.3 195.2 202.7)"/><ellipse cx="312" cy="205.9" fill="#fff" opacity=".4" rx="16.2" ry="40.1" style="isolation:isolate" transform="rotate(-36.3 228.2 178.4)"/></g></g><g><g data-name="&lt;Group&gt;"><path fill="#e4897b" d="M117 123s-13.6 23.7-14.6 29.4 11.5 41.9 11.5 41.9-2.7 9.5.3 11.1 8.2 4.9 9 2.1 0-11.8 0-11.8l-2.3-2s-8-37.8-8-39.1 14.5-23.7 14.5-23.7z"/><path fill="#407bff" d="M125.2 107c-7 3-24.8 32.4-24.6 45s10.5 33.7 10.5 33.7l7.8-1.5s-2.9-29.7-2-33.6 12.4-19.5 12.4-19.5z"/><path fill="#fff" d="M117 150.6c-1 3.9 2 33.6 2 33.6l-8 1.5s-10.2-21-10.4-33.7c-.2-12.6 17.6-42 24.6-45l3.4 19.6.8 4.5s-6.2 8.4-9.8 14.4a23.6 23.6 0 00-2.6 5.1z" opacity=".2" style="isolation:isolate"/><path d="M129.4 131.1s-6.2 8.4-9.8 14.4c-.6-9.1 3.9-19.7 5.6-23.4l.7-1.3 2.7 5.8z" opacity=".2" style="isolation:isolate"/><path fill="#e4897b" d="M166.7 354.1l8.1.8.4-4.7 1.1-12.8-8.1-.8-1.2 14.1-.3 3.4zM126.2 353h7.9v-1.8l.1-.2.4-11.4v-.2l.1-4.4h-7.8l-.7 18z"/><path d="M168.2 336.6l-1.2 14.1 8.2-.5 1.1-12.8-8.1-.8zM126.3 352l7.8-1h.1l.4-11-7.9.6-.4 11.1v.3z" opacity=".2" style="isolation:isolate"/><path fill="#263238" d="M135.2 352.5h-9.6a.7.7 0 00-.7.6l-1.5 7a1.2 1.2 0 001.1 1.4c3.1 0 5.4-.3 9.3-.3l12.9.3c3.3 0 3.7-3.3 2.3-3.6-6-1.3-10.6-3.1-12.5-4.9a1.9 1.9 0 00-1.3-.5zM175.7 352.3H166a.7.7 0 00-.7.5l-1.5 7a1.2 1.2 0 001.1 1.4l9.3-.2 12.9.2c3.3 0 3.7-3.2 2.3-3.5-6-1.3-10.6-3.2-12.5-4.9a1.9 1.9 0 00-1.3-.5zM177 349h-11.5s1-99.2-11.5-132.8a1567.2 1567.2 0 01-4.6 47.1L136.6 350h-11.4s1.4-59.1 2.7-83.7c1.5-26.7 2.1-85.3 2.2-90.3h41.7c4 21 14.2 105 5.3 173z"/><path fill="#e4897b" d="M156.7 87.9a11.2 11.2 0 01-.4 1.1 11 11 0 01-5.3 6 9.9 9.9 0 01-11.7-1.8c-4-4-3.9-8.6-4.3-16.4a10.7 10.7 0 0114.7-10.6c7.6 3.1 8.7 14.7 7 21.7z"/><path d="M152.4 94.2a11 11 0 01-1.4.9 10 10 0 01-8.5.3 11.6 11.6 0 011.4-2.6 15.4 15.4 0 018.5 1.4z" opacity=".2" style="isolation:isolate"/><path fill="#e4897b" d="M136.8 104.3c3.8 3.5 13.2 2.2 13.2 2.2s5.9-1.6 4.6-3.5c-3.4-.5-5-2.1-5.8-4.2a10 10 0 01-.3-4 20.8 20.8 0 01.3-2.1L137.2 84c1.5 5.6 3.3 16-.4 20.2z"/><path fill="#263238" d="M147.5 62.9s5-2.2 8.5 1.1c3 2.8 1 7.1 2.9 10.7s-4.7 6-4.7 6-1.7 3.6-4.7 3.4c0 0-2.4 2.9-2 6s-4 5.4-10 5.3-3.5-3.8-3.5-3.8a24.5 24.5 0 01-4.1-6.7 23 23 0 01-1.7-9.2 12.5 12.5 0 013.4-9c4-4.5 13.4-6.7 15.9-3.8z"/><path fill="#e4897b" d="M148 81.4a5 5 0 002.6 3.4c1.6.7 2.6-1.5 2.4-3.9-.2-2-1.3-5-3-4.6-1.7.4-2.5 3-2 5z"/><path d="M154 216.2l-2.8 32.2c-1.5-13.8-3.2-23.7-3.2-23.7s-1.6-1.3-6.1-8.5 0-20.5 0-20.5c-.1 12.4 12.1 20.5 12.1 20.5z" opacity=".2" style="isolation:isolate"/><path fill="#407bff" d="M178.4 345.8l-.6 3.2h-13.6v-3l14.2-.2zM137.9 347l-1.3 3h-11.4l-.8-3h13.5zM129.7 182.9v6.1l43.7-3.1v-5.4l-43.7 2.4z"/><path fill="#fff" d="M129.7 182.9v6.1l43.7-3.1v-5.4l-43.7 2.4z" opacity=".2" style="isolation:isolate"/><path fill="#407bff" d="M175.6 177.8a4.1 4.1 0 01-4 4.4l-41 2a2.3 2.3 0 01-2.4-2.3c-.3-25-8.8-70.4-3-74.9 6-4.7 35.7-7.1 35.7-7.1a100 100 0 013.6 10l.4 1.3c1.7 5.6 3.1 11.7 4.4 17.8l.2 1.3a422.7 422.7 0 016 47.5z"/><path fill="#fff" d="M175.6 177.8a4.1 4.1 0 01-4 4.4l-41 2a2.3 2.3 0 01-2.4-2.3c-.3-25-8.8-70.4-3-74.9 6-4.7 35.7-7.1 35.7-7.1a100 100 0 013.6 10l.4 1.3c1.7 5.6 3.1 11.7 4.4 17.8l.2 1.3a422.7 422.7 0 016 47.5z" opacity=".4" style="isolation:isolate"/><g><path fill="#407bff" d="M153 100.7s-4.5-3.6-13-3.4-9.3 3.4-9.3 3.4-9.4 4.7-2 12.3 21.7-11.7 21.7-11.7z"/><path fill="#fff" d="M153 100.7s-4.5-3.6-13-3.4-9.3 3.4-9.3 3.4-9.4 4.7-2 12.3 21.7-11.7 21.7-11.7z" opacity=".2" style="isolation:isolate"/></g><path d="M169.3 129a34.5 34.5 0 01-6.9-17.4l2.5-.4c1.7 5.6 3.1 11.7 4.4 17.8z" opacity=".2" style="isolation:isolate"/><path fill="#e4897b" d="M166.2 100s29.6-6 33.8-7.6 26.2-22.6 26.2-22.6l4.8 3.6S214.5 95 206.3 101 169 116.5 169 116.5z"/><path fill="#e4897b" d="M226.2 69.8c2.4-2.7 11-8.6 12.2-9s3.2 7.1 2.8 8.1-4.6 3.1-6.8 3.4-4.4 2.4-4.4 2.4z"/><g><path fill="#407bff" d="M160.9 99.9s-.4 14 6.6 20.9c0 0 25-7.4 38.4-16.5a54.9 54.9 0 0018.8-23s-2.3-4.4-5.4-5c0 0-18 14.4-27.9 16.4S160 99.9 160 99.9"/><path fill="#fff" d="M160.9 99.9s-.4 14 6.6 20.9c0 0 25-7.4 38.4-16.5a54.9 54.9 0 0018.8-23s-2.3-4.4-5.4-5c0 0-18 14.4-27.9 16.4S160 99.9 160 99.9" opacity=".2" style="isolation:isolate"/></g><path fill="#407bff" d="M218.9 76.6l1.8-2.6 5.9 6.7-2.3 1.5-5.4-5.6zM110.6 184.7l8.1-2.5.8 2.5-8.9 2.9v-2.9z"/></g></g></svg>
